<svg width="483" height="458" viewBox="0 0 483 458" fill="none" xmlns="http://www.w3.org/2000/svg">
<rect width="483" height="458" rx="10" fill="#F8F9FB"/>
<rect x="0.25" y="0.25" width="482.5" height="457.5" rx="9.75" stroke="black" stroke-opacity="0.4" stroke-width="0.5"/>
<path d="M29.708 142V124.48H35.132C36.172 124.48 37.084 124.696 37.868 125.128C38.652 125.544 39.26 126.128 39.692 126.88C40.124 127.632 40.34 128.512 40.34 129.52C40.34 130.704 40.028 131.72 39.404 132.568C38.796 133.416 37.964 134 36.908 134.32L40.58 142H38.036L34.676 134.56H31.868V142H29.708ZM31.868 132.616H35.132C36.028 132.616 36.748 132.336 37.292 131.776C37.836 131.2 38.108 130.448 38.108 129.52C38.108 128.576 37.836 127.824 37.292 127.264C36.748 126.704 36.028 126.424 35.132 126.424H31.868V132.616ZM49.0906 142.24C48.0506 142.24 47.1386 142.032 46.3546 141.616C45.5866 141.2 44.9866 140.616 44.5546 139.864C44.1386 139.096 43.9306 138.208 43.9306 137.2V133.6C43.9306 132.576 44.1386 131.688 44.5546 130.936C44.9866 130.184 45.5866 129.6 46.3546 129.184C47.1386 128.768 48.0506 128.56 49.0906 128.56C50.1306 128.56 51.0346 128.768 51.8026 129.184C52.5866 129.6 53.1866 130.184 53.6026 130.936C54.0346 131.688 54.2506 132.576 54.2506 133.6V135.928H46.0426V137.2C46.0426 138.24 46.3066 139.04 46.8346 139.6C47.3626 140.144 48.1146 140.416 49.0906 140.416C49.9226 140.416 50.5946 140.272 51.1066 139.984C51.6186 139.68 51.9306 139.232 52.0426 138.64H54.2026C54.0586 139.744 53.5146 140.624 52.5706 141.28C51.6426 141.92 50.4826 142.24 49.0906 142.24ZM52.1386 134.488V133.6C52.1386 132.56 51.8746 131.76 51.3466 131.2C50.8346 130.64 50.0826 130.36 49.0906 130.36C48.1146 130.36 47.3626 130.64 46.8346 131.2C46.3066 131.76 46.0426 132.56 46.0426 133.6V134.296H52.3066L52.1386 134.488ZM58.4893 146.32V128.8H60.6493V131.32H61.0813L60.6493 131.824C60.6493 130.816 60.9773 130.024 61.6333 129.448C62.3053 128.856 63.1853 128.56 64.2733 128.56C65.6013 128.56 66.6573 129 67.4413 129.88C68.2413 130.744 68.6413 131.936 68.6413 133.456V137.32C68.6413 138.328 68.4573 139.2 68.0893 139.936C67.7373 140.672 67.2333 141.24 66.5773 141.64C65.9373 142.04 65.1693 142.24 64.2733 142.24C63.2013 142.24 62.3293 141.944 61.6573 141.352C60.9853 140.76 60.6493 139.968 60.6493 138.976L61.0813 139.48H60.6013L60.6493 142.48V146.32H58.4893ZM63.5533 140.368C64.4653 140.368 65.1773 140.096 65.6893 139.552C66.2173 139.008 66.4813 138.224 66.4813 137.2V133.6C66.4813 132.576 66.2173 131.792 65.6893 131.248C65.1773 130.704 64.4653 130.432 63.5533 130.432C62.6733 130.432 61.9693 130.712 61.4413 131.272C60.9133 131.832 60.6493 132.608 60.6493 133.6V137.2C60.6493 138.192 60.9133 138.968 61.4413 139.528C61.9693 140.088 62.6733 140.368 63.5533 140.368ZM77.8719 142.192C76.8159 142.192 75.9039 141.992 75.1359 141.592C74.3679 141.192 73.7679 140.616 73.3359 139.864C72.9199 139.096 72.7119 138.192 72.7119 137.152V133.648C72.7119 132.592 72.9199 131.688 73.3359 130.936C73.7679 130.184 74.3679 129.608 75.1359 129.208C75.9039 128.808 76.8159 128.608 77.8719 128.608C78.9279 128.608 79.8399 128.808 80.6079 129.208C81.3759 129.608 81.9679 130.184 82.3839 130.936C82.8159 131.688 83.0319 132.584 83.0319 133.624V137.152C83.0319 138.192 82.8159 139.096 82.3839 139.864C81.9679 140.616 81.3759 141.192 80.6079 141.592C79.8399 141.992 78.9279 142.192 77.8719 142.192ZM77.8719 140.272C78.8159 140.272 79.5519 140.008 80.0799 139.48C80.6079 138.952 80.8719 138.176 80.8719 137.152V133.648C80.8719 132.624 80.6079 131.848 80.0799 131.32C79.5519 130.792 78.8159 130.528 77.8719 130.528C76.9439 130.528 76.2079 130.792 75.6639 131.32C75.1359 131.848 74.8719 132.624 74.8719 133.648V137.152C74.8719 138.176 75.1359 138.952 75.6639 139.48C76.2079 140.008 76.9439 140.272 77.8719 140.272ZM91.8545 142.192C90.9585 142.192 90.1745 142.056 89.5025 141.784C88.8465 141.496 88.3185 141.096 87.9185 140.584C87.5345 140.072 87.3025 139.464 87.2225 138.76H89.3825C89.4785 139.224 89.7345 139.592 90.1505 139.864C90.5825 140.136 91.1505 140.272 91.8545 140.272H92.8625C93.7105 140.272 94.3425 140.104 94.7585 139.768C95.1745 139.416 95.3825 138.952 95.3825 138.376C95.3825 137.816 95.1905 137.376 94.8065 137.056C94.4385 136.72 93.8865 136.496 93.1505 136.384L91.3745 136.096C90.0785 135.872 89.1105 135.472 88.4705 134.896C87.8465 134.304 87.5345 133.448 87.5345 132.328C87.5345 131.144 87.9105 130.232 88.6625 129.592C89.4145 128.936 90.5425 128.608 92.0465 128.608H92.9585C94.2225 128.608 95.2385 128.904 96.0065 129.496C96.7745 130.088 97.2385 130.888 97.3985 131.896H95.2385C95.1425 131.48 94.9025 131.152 94.5185 130.912C94.1345 130.656 93.6145 130.528 92.9585 130.528H92.0465C91.2305 130.528 90.6305 130.68 90.2465 130.984C89.8785 131.288 89.6945 131.744 89.6945 132.352C89.6945 132.896 89.8545 133.296 90.1745 133.552C90.4945 133.808 90.9985 133.992 91.6865 134.104L93.4625 134.392C94.8865 134.616 95.9185 135.032 96.5585 135.64C97.2145 136.248 97.5425 137.128 97.5425 138.28C97.5425 139.496 97.1505 140.456 96.3665 141.16C95.5985 141.848 94.4305 142.192 92.8625 142.192H91.8545ZM101.493 142V140.032H106.173V130.768H102.093V128.8H108.333V140.032H112.773V142H101.493ZM107.013 126.424C106.485 126.424 106.069 126.288 105.765 126.016C105.461 125.744 105.309 125.376 105.309 124.912C105.309 124.432 105.461 124.056 105.765 123.784C106.069 123.496 106.485 123.352 107.013 123.352C107.541 123.352 107.957 123.496 108.261 123.784C108.565 124.056 108.717 124.432 108.717 124.912C108.717 125.376 108.565 125.744 108.261 126.016C107.957 126.288 107.541 126.424 107.013 126.424ZM122.484 142C121.348 142 120.46 141.696 119.82 141.088C119.196 140.48 118.884 139.624 118.884 138.52V130.768H115.164V128.8H118.884V125.08H121.044V128.8H126.324V130.768H121.044V138.52C121.044 139.528 121.524 140.032 122.484 140.032H126.084V142H122.484ZM135.434 142.192C134.378 142.192 133.466 141.992 132.698 141.592C131.93 141.192 131.33 140.616 130.898 139.864C130.482 139.096 130.274 138.192 130.274 137.152V133.648C130.274 132.592 130.482 131.688 130.898 130.936C131.33 130.184 131.93 129.608 132.698 129.208C133.466 128.808 134.378 128.608 135.434 128.608C136.49 128.608 137.402 128.808 138.17 129.208C138.938 129.608 139.53 130.184 139.946 130.936C140.378 131.688 140.594 132.584 140.594 133.624V137.152C140.594 138.192 140.378 139.096 139.946 139.864C139.53 140.616 138.938 141.192 138.17 141.592C137.402 141.992 136.49 142.192 135.434 142.192ZM135.434 140.272C136.378 140.272 137.114 140.008 137.642 139.48C138.17 138.952 138.434 138.176 138.434 137.152V133.648C138.434 132.624 138.17 131.848 137.642 131.32C137.114 130.792 136.378 130.528 135.434 130.528C134.506 130.528 133.77 130.792 133.226 131.32C132.698 131.848 132.434 132.624 132.434 133.648V137.152C132.434 138.176 132.698 138.952 133.226 139.48C133.77 140.008 134.506 140.272 135.434 140.272ZM145.289 142V128.8H147.401V131.32H147.905L147.209 132.88C147.209 131.456 147.513 130.384 148.121 129.664C148.745 128.928 149.665 128.56 150.881 128.56C152.273 128.56 153.377 129 154.193 129.88C155.025 130.744 155.441 131.92 155.441 133.408V134.2H153.281V133.6C153.281 132.56 153.025 131.768 152.513 131.224C152.017 130.664 151.305 130.384 150.377 130.384C149.465 130.384 148.745 130.664 148.217 131.224C147.705 131.784 147.449 132.576 147.449 133.6V142H145.289ZM161.288 146.32L163.232 141.184L158.336 128.8H160.736L163.808 136.96C163.92 137.232 164.024 137.56 164.12 137.944C164.216 138.312 164.296 138.624 164.36 138.88C164.424 138.624 164.504 138.312 164.6 137.944C164.696 137.56 164.792 137.232 164.888 136.96L167.768 128.8H170.096L163.592 146.32H161.288ZM351.294 206.24C350.222 206.24 349.286 206.032 348.486 205.616C347.702 205.184 347.094 204.584 346.662 203.816C346.23 203.032 346.014 202.12 346.014 201.08V193.4C346.014 192.344 346.23 191.432 346.662 190.664C347.094 189.896 347.702 189.304 348.486 188.888C349.286 188.456 350.222 188.24 351.294 188.24C352.382 188.24 353.318 188.456 354.102 188.888C354.886 189.304 355.494 189.896 355.926 190.664C356.358 191.432 356.574 192.344 356.574 193.4V201.08C356.574 202.12 356.358 203.032 355.926 203.816C355.494 204.584 354.878 205.184 354.078 205.616C353.294 206.032 352.366 206.24 351.294 206.24ZM351.294 204.392C352.254 204.392 353.022 204.088 353.598 203.48C354.19 202.856 354.486 202.056 354.486 201.08V193.4C354.486 192.424 354.19 191.632 353.598 191.024C353.022 190.4 352.254 190.088 351.294 190.088C350.334 190.088 349.558 190.4 348.966 191.024C348.39 191.632 348.102 192.424 348.102 193.4V201.08C348.102 202.056 348.39 202.856 348.966 203.48C349.558 204.088 350.334 204.392 351.294 204.392ZM351.294 198.656C350.862 198.656 350.51 198.52 350.238 198.248C349.982 197.976 349.854 197.616 349.854 197.168C349.854 196.736 349.982 196.392 350.238 196.136C350.51 195.864 350.862 195.728 351.294 195.728C351.726 195.728 352.07 195.864 352.326 196.136C352.598 196.392 352.734 196.736 352.734 197.168C352.734 197.616 352.598 197.976 352.326 198.248C352.07 198.52 351.726 198.656 351.294 198.656ZM365.684 206.24C365.076 206.24 364.588 206.064 364.22 205.712C363.868 205.36 363.692 204.888 363.692 204.296C363.692 203.672 363.868 203.176 364.22 202.808C364.588 202.44 365.076 202.256 365.684 202.256C366.292 202.256 366.772 202.44 367.124 202.808C367.492 203.176 367.676 203.672 367.676 204.296C367.676 204.888 367.492 205.36 367.124 205.712C366.772 206.064 366.292 206.24 365.684 206.24ZM380.075 206.24C379.003 206.24 378.067 206.032 377.267 205.616C376.483 205.184 375.875 204.584 375.443 203.816C375.011 203.032 374.795 202.12 374.795 201.08V193.4C374.795 192.344 375.011 191.432 375.443 190.664C375.875 189.896 376.483 189.304 377.267 188.888C378.067 188.456 379.003 188.24 380.075 188.24C381.163 188.24 382.099 188.456 382.883 188.888C383.667 189.304 384.275 189.896 384.707 190.664C385.139 191.432 385.355 192.344 385.355 193.4V201.08C385.355 202.12 385.139 203.032 384.707 203.816C384.275 204.584 383.659 205.184 382.859 205.616C382.075 206.032 381.147 206.24 380.075 206.24ZM380.075 204.392C381.035 204.392 381.803 204.088 382.379 203.48C382.971 202.856 383.267 202.056 383.267 201.08V193.4C383.267 192.424 382.971 191.632 382.379 191.024C381.803 190.4 381.035 190.088 380.075 190.088C379.115 190.088 378.339 190.4 377.747 191.024C377.171 191.632 376.883 192.424 376.883 193.4V201.08C376.883 202.056 377.171 202.856 377.747 203.48C378.339 204.088 379.115 204.392 380.075 204.392ZM380.075 198.656C379.643 198.656 379.291 198.52 379.019 198.248C378.763 197.976 378.635 197.616 378.635 197.168C378.635 196.736 378.763 196.392 379.019 196.136C379.291 195.864 379.643 195.728 380.075 195.728C380.507 195.728 380.851 195.864 381.107 196.136C381.379 196.392 381.515 196.736 381.515 197.168C381.515 197.616 381.379 197.976 381.107 198.248C380.851 198.52 380.507 198.656 380.075 198.656ZM391.706 206L397.97 190.448H391.346V193.04H389.186V188.48H400.106V190.592L394.034 206H391.706ZM410.815 206.24C410.207 206.24 409.727 206.064 409.375 205.712C409.007 205.36 408.823 204.888 408.823 204.296C408.823 203.672 409.007 203.176 409.375 202.808C409.727 202.44 410.207 202.256 410.815 202.256C411.423 202.256 411.911 202.44 412.279 202.808C412.631 203.176 412.807 203.672 412.807 204.296C412.807 204.888 412.631 205.36 412.279 205.712C411.911 206.064 411.423 206.24 410.815 206.24ZM421.327 206.24C420.719 206.24 420.231 206.064 419.863 205.712C419.511 205.36 419.335 204.888 419.335 204.296C419.335 203.672 419.511 203.176 419.863 202.808C420.231 202.44 420.719 202.256 421.327 202.256C421.935 202.256 422.415 202.44 422.767 202.808C423.135 203.176 423.319 203.672 423.319 204.296C423.319 204.888 423.135 205.36 422.767 205.712C422.415 206.064 421.935 206.24 421.327 206.24Z" fill="#6E56CA"/>
<path d="M197.077 144.64C196.133 144.64 195.317 144.48 194.629 144.16C193.957 143.856 193.445 143.4 193.093 142.792C192.741 142.2 192.589 141.488 192.637 140.656L192.877 136.72C192.925 135.872 192.797 135.264 192.493 134.896C192.189 134.512 191.517 134.32 190.477 134.32H187.837V132.4H190.477C191.517 132.4 192.189 132.216 192.493 131.848C192.797 131.464 192.925 130.848 192.877 130L192.637 126.064C192.589 125.216 192.741 124.496 193.093 123.904C193.445 123.312 193.957 122.864 194.629 122.56C195.317 122.24 196.133 122.08 197.077 122.08H198.157V124H197.077C196.325 124 195.749 124.176 195.349 124.528C194.949 124.864 194.765 125.376 194.797 126.064L195.037 130C195.101 131.04 194.853 131.872 194.293 132.496C193.733 133.104 192.941 133.408 191.917 133.408V133.288C192.925 133.288 193.709 133.6 194.269 134.224C194.845 134.848 195.101 135.68 195.037 136.72L194.797 140.656C194.765 141.344 194.949 141.856 195.349 142.192C195.749 142.544 196.325 142.72 197.077 142.72H198.157V144.64H197.077ZM420.007 177.84L421.927 170.376H425.047L421.927 177.84H420.007ZM434.398 209.84L436.318 202.376H439.438L436.318 209.84H434.398ZM29.54 336.64V334.72H30.62C31.372 334.72 31.948 334.544 32.348 334.192C32.748 333.856 32.932 333.344 32.9 332.656L32.66 328.72C32.596 327.68 32.844 326.848 33.404 326.224C33.98 325.6 34.772 325.288 35.78 325.288V325.408C34.756 325.408 33.964 325.104 33.404 324.496C32.844 323.872 32.596 323.04 32.66 322L32.9 318.064C32.932 317.376 32.748 316.864 32.348 316.528C31.948 316.176 31.372 316 30.62 316H29.54V314.08H30.62C31.564 314.08 32.372 314.24 33.044 314.56C33.732 314.864 34.252 315.312 34.604 315.904C34.956 316.496 35.108 317.216 35.06 318.064L34.82 322C34.772 322.848 34.9 323.464 35.204 323.848C35.508 324.216 36.18 324.4 37.22 324.4H39.86V326.32H37.22C36.196 326.32 35.524 326.512 35.204 326.896C34.9 327.264 34.772 327.872 34.82 328.72L35.06 332.656C35.108 333.488 34.956 334.2 34.604 334.792C34.252 335.4 33.732 335.856 33.044 336.16C32.372 336.48 31.564 336.64 30.62 336.64H29.54Z" fill="#6B6B6B"/>
<path d="M65.0413 163.68L64.7533 158.64V156.48H67.0813V158.64L66.8173 163.68H65.0413ZM60.1693 163.68L59.8813 158.64V156.48H62.2093V158.64L61.9453 163.68H60.1693ZM72.8799 174V160.8H75.0399V163.32H75.4959L75.0399 163.824C75.0399 162.784 75.3519 161.984 75.9759 161.424C76.5999 160.848 77.4639 160.56 78.5679 160.56C79.8959 160.56 80.9519 160.968 81.7359 161.784C82.5199 162.6 82.9119 163.712 82.9119 165.12V174H80.7519V165.36C80.7519 164.416 80.4959 163.696 79.9839 163.2C79.4879 162.688 78.8079 162.432 77.9439 162.432C77.0479 162.432 76.3359 162.704 75.8079 163.248C75.2959 163.792 75.0399 164.576 75.0399 165.6V174H72.8799ZM91.1105 174.24C89.7185 174.24 88.6225 173.888 87.8225 173.184C87.0225 172.464 86.6225 171.496 86.6225 170.28C86.6225 169.048 87.0225 168.08 87.8225 167.376C88.6225 166.672 89.7025 166.32 91.0625 166.32H95.1425V165C95.1425 164.184 94.8945 163.56 94.3985 163.128C93.9185 162.68 93.2305 162.456 92.3345 162.456C91.5505 162.456 90.8945 162.624 90.3665 162.96C89.8385 163.28 89.5345 163.72 89.4545 164.28H87.2945C87.4385 163.144 87.9745 162.24 88.9025 161.568C89.8305 160.896 90.9905 160.56 92.3825 160.56C93.9025 160.56 95.1025 160.952 95.9825 161.736C96.8625 162.52 97.3025 163.584 97.3025 164.928V174H95.1905V171.48H94.8305L95.1905 171.12C95.1905 172.08 94.8145 172.84 94.0625 173.4C93.3265 173.96 92.3425 174.24 91.1105 174.24ZM91.6385 172.536C92.6625 172.536 93.5025 172.28 94.1585 171.768C94.8145 171.256 95.1425 170.6 95.1425 169.8V167.928H91.1105C90.3905 167.928 89.8225 168.128 89.4065 168.528C88.9905 168.928 88.7825 169.472 88.7825 170.16C88.7825 170.896 89.0305 171.48 89.5265 171.912C90.0385 172.328 90.7425 172.536 91.6385 172.536ZM101.037 174V160.8H102.933V162.384H103.365L103.029 162.96C103.029 162.224 103.221 161.64 103.605 161.208C104.005 160.776 104.541 160.56 105.213 160.56C105.949 160.56 106.517 160.832 106.917 161.376C107.317 161.92 107.517 162.688 107.517 163.68L106.869 162.384H107.877L107.421 162.96C107.421 162.224 107.621 161.64 108.021 161.208C108.437 160.776 108.981 160.56 109.653 160.56C110.485 160.56 111.125 160.872 111.573 161.496C112.037 162.12 112.269 162.944 112.269 163.968V174H110.277V163.944C110.277 163.4 110.157 162.976 109.917 162.672C109.693 162.368 109.357 162.216 108.909 162.216C108.477 162.216 108.133 162.368 107.877 162.672C107.637 162.96 107.517 163.376 107.517 163.92V174H105.789V163.944C105.789 163.384 105.661 162.96 105.405 162.672C105.165 162.368 104.821 162.216 104.373 162.216C103.925 162.216 103.589 162.368 103.365 162.672C103.141 162.96 103.029 163.376 103.029 163.92V174H101.037ZM121.044 174.24C120.004 174.24 119.092 174.032 118.308 173.616C117.54 173.2 116.94 172.616 116.508 171.864C116.092 171.096 115.884 170.208 115.884 169.2V165.6C115.884 164.576 116.092 163.688 116.508 162.936C116.94 162.184 117.54 161.6 118.308 161.184C119.092 160.768 120.004 160.56 121.044 160.56C122.084 160.56 122.988 160.768 123.756 161.184C124.54 161.6 125.14 162.184 125.556 162.936C125.988 163.688 126.204 164.576 126.204 165.6V167.928H117.996V169.2C117.996 170.24 118.26 171.04 118.788 171.6C119.316 172.144 120.068 172.416 121.044 172.416C121.876 172.416 122.548 172.272 123.06 171.984C123.572 171.68 123.884 171.232 123.996 170.64H126.156C126.012 171.744 125.468 172.624 124.524 173.28C123.596 173.92 122.436 174.24 121.044 174.24ZM124.092 166.488V165.6C124.092 164.56 123.828 163.76 123.3 163.2C122.788 162.64 122.036 162.36 121.044 162.36C120.068 162.36 119.316 162.64 118.788 163.2C118.26 163.76 117.996 164.56 117.996 165.6V166.296H124.26L124.092 166.488ZM136.994 163.68L136.706 158.64V156.48H139.034V158.64L138.77 163.68H136.994ZM132.122 163.68L131.834 158.64V156.48H134.162V158.64L133.898 163.68H132.122ZM149.825 164.16C149.233 164.16 148.753 164 148.385 163.68C148.017 163.344 147.833 162.904 147.833 162.36C147.833 161.816 148.017 161.384 148.385 161.064C148.753 160.728 149.233 160.56 149.825 160.56C150.433 160.56 150.913 160.728 151.265 161.064C151.633 161.384 151.817 161.816 151.817 162.36C151.817 162.904 151.633 163.344 151.265 163.68C150.913 164 150.433 164.16 149.825 164.16ZM149.825 174.24C149.233 174.24 148.753 174.08 148.385 173.76C148.017 173.424 147.833 172.984 147.833 172.44C147.833 171.896 148.017 171.464 148.385 171.144C148.753 170.808 149.233 170.64 149.825 170.64C150.433 170.64 150.913 170.808 151.265 171.144C151.633 171.464 151.817 171.896 151.817 172.44C151.817 172.984 151.633 173.424 151.265 173.76C150.913 174.08 150.433 174.24 149.825 174.24ZM65.0413 195.68L64.7533 190.64V188.48H67.0813V190.64L66.8173 195.68H65.0413ZM60.1693 195.68L59.8813 190.64V188.48H62.2093V190.64L61.9453 195.68H60.1693ZM72.8799 210.32V192.8H75.0399V195.32H75.4719L75.0399 195.824C75.0399 194.816 75.3679 194.024 76.0239 193.448C76.6959 192.856 77.5759 192.56 78.6639 192.56C79.9919 192.56 81.0479 193 81.8319 193.88C82.6319 194.744 83.0319 195.936 83.0319 197.456V201.32C83.0319 202.328 82.8479 203.2 82.4799 203.936C82.1279 204.672 81.6239 205.24 80.9679 205.64C80.3279 206.04 79.5599 206.24 78.6639 206.24C77.5919 206.24 76.7199 205.944 76.0479 205.352C75.3759 204.76 75.0399 203.968 75.0399 202.976L75.4719 203.48H74.9919L75.0399 206.48V210.32H72.8799ZM77.9439 204.368C78.8559 204.368 79.5679 204.096 80.0799 203.552C80.6079 203.008 80.8719 202.224 80.8719 201.2V197.6C80.8719 196.576 80.6079 195.792 80.0799 195.248C79.5679 194.704 78.8559 194.432 77.9439 194.432C77.0639 194.432 76.3599 194.712 75.8319 195.272C75.3039 195.832 75.0399 196.608 75.0399 197.6V201.2C75.0399 202.192 75.3039 202.968 75.8319 203.528C76.3599 204.088 77.0639 204.368 77.9439 204.368ZM89.3345 210.32L91.2785 205.184L86.3825 192.8H88.7825L91.8545 200.96C91.9665 201.232 92.0705 201.56 92.1665 201.944C92.2625 202.312 92.3425 202.624 92.4065 202.88C92.4705 202.624 92.5505 202.312 92.6465 201.944C92.7425 201.56 92.8385 201.232 92.9345 200.96L95.8145 192.8H98.1425L91.6385 210.32H89.3345ZM100.893 208.4V206.6H112.413V208.4H100.893ZM122.484 206C121.348 206 120.46 205.696 119.82 205.088C119.196 204.48 118.884 203.624 118.884 202.52V194.768H115.164V192.8H118.884V189.08H121.044V192.8H126.324V194.768H121.044V202.52C121.044 203.528 121.524 204.032 122.484 204.032H126.084V206H122.484ZM135.434 206.192C134.378 206.192 133.466 205.992 132.698 205.592C131.93 205.192 131.33 204.616 130.898 203.864C130.482 203.096 130.274 202.192 130.274 201.152V197.648C130.274 196.592 130.482 195.688 130.898 194.936C131.33 194.184 131.93 193.608 132.698 193.208C133.466 192.808 134.378 192.608 135.434 192.608C136.49 192.608 137.402 192.808 138.17 193.208C138.938 193.608 139.53 194.184 139.946 194.936C140.378 195.688 140.594 196.584 140.594 197.624V201.152C140.594 202.192 140.378 203.096 139.946 203.864C139.53 204.616 138.938 205.192 138.17 205.592C137.402 205.992 136.49 206.192 135.434 206.192ZM135.434 204.272C136.378 204.272 137.114 204.008 137.642 203.48C138.17 202.952 138.434 202.176 138.434 201.152V197.648C138.434 196.624 138.17 195.848 137.642 195.32C137.114 194.792 136.378 194.528 135.434 194.528C134.506 194.528 133.77 194.792 133.226 195.32C132.698 195.848 132.434 196.624 132.434 197.648V201.152C132.434 202.176 132.698 202.952 133.226 203.48C133.77 204.008 134.506 204.272 135.434 204.272ZM144.065 208.4V206.6H155.585V208.4H144.065ZM159.68 206V192.8H161.792V195.32H162.296L161.6 196.88C161.6 195.456 161.904 194.384 162.512 193.664C163.136 192.928 164.056 192.56 165.272 192.56C166.664 192.56 167.768 193 168.584 193.88C169.416 194.744 169.832 195.92 169.832 197.408V198.2H167.672V197.6C167.672 196.56 167.416 195.768 166.904 195.224C166.408 194.664 165.696 194.384 164.768 194.384C163.856 194.384 163.136 194.664 162.608 195.224C162.096 195.784 161.84 196.576 161.84 197.6V206H159.68ZM178.582 206.24C177.062 206.24 175.846 205.792 174.934 204.896C174.022 203.984 173.566 202.752 173.566 201.2V192.8H175.726V201.2C175.726 202.192 175.982 202.968 176.494 203.528C177.006 204.072 177.702 204.344 178.582 204.344C179.478 204.344 180.182 204.072 180.694 203.528C181.222 202.968 181.486 202.192 181.486 201.2V192.8H183.646V201.2C183.646 202.752 183.182 203.984 182.254 204.896C181.326 205.792 180.102 206.24 178.582 206.24ZM192.589 206.192C191.693 206.192 190.909 206.056 190.237 205.784C189.581 205.496 189.053 205.096 188.653 204.584C188.269 204.072 188.037 203.464 187.957 202.76H190.117C190.213 203.224 190.469 203.592 190.885 203.864C191.317 204.136 191.885 204.272 192.589 204.272H193.597C194.445 204.272 195.077 204.104 195.493 203.768C195.909 203.416 196.117 202.952 196.117 202.376C196.117 201.816 195.925 201.376 195.541 201.056C195.173 200.72 194.621 200.496 193.885 200.384L192.109 200.096C190.813 199.872 189.845 199.472 189.205 198.896C188.581 198.304 188.269 197.448 188.269 196.328C188.269 195.144 188.645 194.232 189.397 193.592C190.149 192.936 191.277 192.608 192.781 192.608H193.693C194.957 192.608 195.973 192.904 196.741 193.496C197.509 194.088 197.973 194.888 198.133 195.896H195.973C195.877 195.48 195.637 195.152 195.253 194.912C194.869 194.656 194.349 194.528 193.693 194.528H192.781C191.965 194.528 191.365 194.68 190.981 194.984C190.613 195.288 190.429 195.744 190.429 196.352C190.429 196.896 190.589 197.296 190.909 197.552C191.229 197.808 191.733 197.992 192.421 198.104L194.197 198.392C195.621 198.616 196.653 199.032 197.293 199.64C197.949 200.248 198.277 201.128 198.277 202.28C198.277 203.496 197.885 204.456 197.101 205.16C196.333 205.848 195.165 206.192 193.597 206.192H192.589ZM208.828 206C207.692 206 206.804 205.696 206.164 205.088C205.54 204.48 205.228 203.624 205.228 202.52V194.768H201.508V192.8H205.228V189.08H207.388V192.8H212.668V194.768H207.388V202.52C207.388 203.528 207.868 204.032 208.828 204.032H212.428V206H208.828ZM216.018 208.4V206.6H227.538V208.4H216.018ZM231.633 206V192.8H233.745V195.32H234.249L233.553 196.88C233.553 195.456 233.857 194.384 234.465 193.664C235.089 192.928 236.009 192.56 237.225 192.56C238.617 192.56 239.721 193 240.537 193.88C241.369 194.744 241.785 195.92 241.785 197.408V198.2H239.625V197.6C239.625 196.56 239.369 195.768 238.857 195.224C238.361 194.664 237.649 194.384 236.721 194.384C235.809 194.384 235.089 194.664 234.561 195.224C234.049 195.784 233.793 196.576 233.793 197.6V206H231.633ZM249.407 206.24C248.015 206.24 246.919 205.888 246.119 205.184C245.319 204.464 244.919 203.496 244.919 202.28C244.919 201.048 245.319 200.08 246.119 199.376C246.919 198.672 247.999 198.32 249.359 198.32H253.439V197C253.439 196.184 253.191 195.56 252.695 195.128C252.215 194.68 251.527 194.456 250.631 194.456C249.847 194.456 249.191 194.624 248.663 194.96C248.135 195.28 247.831 195.72 247.751 196.28H245.591C245.735 195.144 246.271 194.24 247.199 193.568C248.127 192.896 249.287 192.56 250.679 192.56C252.199 192.56 253.399 192.952 254.279 193.736C255.159 194.52 255.599 195.584 255.599 196.928V206H253.487V203.48H253.127L253.487 203.12C253.487 204.08 253.111 204.84 252.359 205.4C251.623 205.96 250.639 206.24 249.407 206.24ZM249.935 204.536C250.959 204.536 251.799 204.28 252.455 203.768C253.111 203.256 253.439 202.6 253.439 201.8V199.928H249.407C248.687 199.928 248.119 200.128 247.703 200.528C247.287 200.928 247.079 201.472 247.079 202.16C247.079 202.896 247.327 203.48 247.823 203.912C248.335 204.328 249.039 204.536 249.935 204.536ZM266.39 206C265.254 206 264.366 205.696 263.726 205.088C263.102 204.48 262.79 203.624 262.79 202.52V194.768H259.07V192.8H262.79V189.08H264.95V192.8H270.23V194.768H264.95V202.52C264.95 203.528 265.43 204.032 266.39 204.032H269.99V206H266.39ZM274.181 206V204.032H278.861V194.768H274.781V192.8H281.021V204.032H285.461V206H274.181ZM279.701 190.424C279.173 190.424 278.757 190.288 278.453 190.016C278.149 189.744 277.997 189.376 277.997 188.912C277.997 188.432 278.149 188.056 278.453 187.784C278.757 187.496 279.173 187.352 279.701 187.352C280.229 187.352 280.645 187.496 280.949 187.784C281.253 188.056 281.405 188.432 281.405 188.912C281.405 189.376 281.253 189.744 280.949 190.016C280.645 190.288 280.229 190.424 279.701 190.424ZM293.731 206.192C292.675 206.192 291.763 205.992 290.995 205.592C290.227 205.192 289.627 204.616 289.195 203.864C288.779 203.096 288.571 202.192 288.571 201.152V197.648C288.571 196.592 288.779 195.688 289.195 194.936C289.627 194.184 290.227 193.608 290.995 193.208C291.763 192.808 292.675 192.608 293.731 192.608C294.787 192.608 295.699 192.808 296.467 193.208C297.235 193.608 297.827 194.184 298.243 194.936C298.675 195.688 298.891 196.584 298.891 197.624V201.152C298.891 202.192 298.675 203.096 298.243 203.864C297.827 204.616 297.235 205.192 296.467 205.592C295.699 205.992 294.787 206.192 293.731 206.192ZM293.731 204.272C294.675 204.272 295.411 204.008 295.939 203.48C296.467 202.952 296.731 202.176 296.731 201.152V197.648C296.731 196.624 296.467 195.848 295.939 195.32C295.411 194.792 294.675 194.528 293.731 194.528C292.803 194.528 292.067 194.792 291.523 195.32C290.995 195.848 290.731 196.624 290.731 197.648V201.152C290.731 202.176 290.995 202.952 291.523 203.48C292.067 204.008 292.803 204.272 293.731 204.272ZM309.682 195.68L309.394 190.64V188.48H311.722V190.64L311.458 195.68H309.682ZM304.81 195.68L304.522 190.64V188.48H306.85V190.64L306.586 195.68H304.81ZM322.513 196.16C321.921 196.16 321.441 196 321.073 195.68C320.705 195.344 320.521 194.904 320.521 194.36C320.521 193.816 320.705 193.384 321.073 193.064C321.441 192.728 321.921 192.56 322.513 192.56C323.121 192.56 323.601 192.728 323.953 193.064C324.321 193.384 324.505 193.816 324.505 194.36C324.505 194.904 324.321 195.344 323.953 195.68C323.601 196 323.121 196.16 322.513 196.16ZM322.513 206.24C321.921 206.24 321.441 206.08 321.073 205.76C320.705 205.424 320.521 204.984 320.521 204.44C320.521 203.896 320.705 203.464 321.073 203.144C321.441 202.808 321.921 202.64 322.513 202.64C323.121 202.64 323.601 202.808 323.953 203.144C324.321 203.464 324.505 203.896 324.505 204.44C324.505 204.984 324.321 205.424 323.953 205.76C323.601 206.08 323.121 206.24 322.513 206.24ZM65.0413 227.68L64.7533 222.64V220.48H67.0813V222.64L66.8173 227.68H65.0413ZM60.1693 227.68L59.8813 222.64V220.48H62.2093V222.64L61.9453 227.68H60.1693ZM77.4639 238.192C76.5679 238.192 75.7839 238.056 75.1119 237.784C74.4559 237.496 73.9279 237.096 73.5279 236.584C73.1439 236.072 72.9119 235.464 72.8319 234.76H74.9919C75.0879 235.224 75.3439 235.592 75.7599 235.864C76.1919 236.136 76.7599 236.272 77.4639 236.272H78.4719C79.3199 236.272 79.9519 236.104 80.3679 235.768C80.7839 235.416 80.9919 234.952 80.9919 234.376C80.9919 233.816 80.7999 233.376 80.4159 233.056C80.0479 232.72 79.4959 232.496 78.7599 232.384L76.9839 232.096C75.6879 231.872 74.7199 231.472 74.0799 230.896C73.4559 230.304 73.1439 229.448 73.1439 228.328C73.1439 227.144 73.5199 226.232 74.2719 225.592C75.0239 224.936 76.1519 224.608 77.6559 224.608H78.5679C79.8319 224.608 80.8479 224.904 81.6159 225.496C82.3839 226.088 82.8479 226.888 83.0079 227.896H80.8479C80.7519 227.48 80.5119 227.152 80.1279 226.912C79.7439 226.656 79.2239 226.528 78.5679 226.528H77.6559C76.8399 226.528 76.2399 226.68 75.8559 226.984C75.4879 227.288 75.3039 227.744 75.3039 228.352C75.3039 228.896 75.4639 229.296 75.7839 229.552C76.1039 229.808 76.6079 229.992 77.2959 230.104L79.0719 230.392C80.4959 230.616 81.5279 231.032 82.1679 231.64C82.8239 232.248 83.1519 233.128 83.1519 234.28C83.1519 235.496 82.7599 236.456 81.9759 237.16C81.2079 237.848 80.0399 238.192 78.4719 238.192H77.4639ZM93.7025 238C92.5665 238 91.6785 237.696 91.0385 237.088C90.4145 236.48 90.1025 235.624 90.1025 234.52V226.768H86.3825V224.8H90.1025V221.08H92.2625V224.8H97.5425V226.768H92.2625V234.52C92.2625 235.528 92.7425 236.032 93.7025 236.032H97.3025V238H93.7025ZM105.501 238.24C104.109 238.24 103.013 237.888 102.213 237.184C101.413 236.464 101.013 235.496 101.013 234.28C101.013 233.048 101.413 232.08 102.213 231.376C103.013 230.672 104.093 230.32 105.453 230.32H109.533V229C109.533 228.184 109.285 227.56 108.789 227.128C108.309 226.68 107.621 226.456 106.725 226.456C105.941 226.456 105.285 226.624 104.757 226.96C104.229 227.28 103.925 227.72 103.845 228.28H101.685C101.829 227.144 102.365 226.24 103.293 225.568C104.221 224.896 105.381 224.56 106.773 224.56C108.293 224.56 109.493 224.952 110.373 225.736C111.253 226.52 111.693 227.584 111.693 228.928V238H109.581V235.48H109.221L109.581 235.12C109.581 236.08 109.205 236.84 108.453 237.4C107.717 237.96 106.733 238.24 105.501 238.24ZM106.029 236.536C107.053 236.536 107.893 236.28 108.549 235.768C109.205 235.256 109.533 234.6 109.533 233.8V231.928H105.501C104.781 231.928 104.213 232.128 103.797 232.528C103.381 232.928 103.173 233.472 103.173 234.16C103.173 234.896 103.421 235.48 103.917 235.912C104.429 236.328 105.133 236.536 106.029 236.536ZM116.052 238V224.8H118.212V227.32H118.668L118.212 227.824C118.212 226.784 118.524 225.984 119.148 225.424C119.772 224.848 120.636 224.56 121.74 224.56C123.068 224.56 124.124 224.968 124.908 225.784C125.692 226.6 126.084 227.712 126.084 229.12V238H123.924V229.36C123.924 228.416 123.668 227.696 123.156 227.2C122.66 226.688 121.98 226.432 121.116 226.432C120.22 226.432 119.508 226.704 118.98 227.248C118.468 227.792 118.212 228.576 118.212 229.6V238H116.052ZM134.666 238.24C133.354 238.24 132.29 237.8 131.474 236.92C130.674 236.04 130.274 234.848 130.274 233.344V229.48C130.274 227.96 130.674 226.76 131.474 225.88C132.274 225 133.338 224.56 134.666 224.56C135.754 224.56 136.626 224.856 137.282 225.448C137.938 226.04 138.266 226.832 138.266 227.824L137.834 227.32H138.314L138.266 224.32V220.48H140.426V238H138.266V235.48H137.834L138.266 234.976C138.266 235.984 137.938 236.784 137.282 237.376C136.626 237.952 135.754 238.24 134.666 238.24ZM135.386 236.368C136.282 236.368 136.986 236.088 137.498 235.528C138.01 234.968 138.266 234.192 138.266 233.2V229.6C138.266 228.608 138.01 227.832 137.498 227.272C136.986 226.712 136.282 226.432 135.386 226.432C134.474 226.432 133.754 226.704 133.226 227.248C132.698 227.792 132.434 228.576 132.434 229.6V233.2C132.434 234.224 132.698 235.008 133.226 235.552C133.754 236.096 134.474 236.368 135.386 236.368ZM149.417 238.192C148.521 238.192 147.737 238.056 147.065 237.784C146.409 237.496 145.881 237.096 145.481 236.584C145.097 236.072 144.865 235.464 144.785 234.76H146.945C147.041 235.224 147.297 235.592 147.713 235.864C148.145 236.136 148.713 236.272 149.417 236.272H150.425C151.273 236.272 151.905 236.104 152.321 235.768C152.737 235.416 152.945 234.952 152.945 234.376C152.945 233.816 152.753 233.376 152.369 233.056C152.001 232.72 151.449 232.496 150.713 232.384L148.937 232.096C147.641 231.872 146.673 231.472 146.033 230.896C145.409 230.304 145.097 229.448 145.097 228.328C145.097 227.144 145.473 226.232 146.225 225.592C146.977 224.936 148.105 224.608 149.609 224.608H150.521C151.785 224.608 152.801 224.904 153.569 225.496C154.337 226.088 154.801 226.888 154.961 227.896H152.801C152.705 227.48 152.465 227.152 152.081 226.912C151.697 226.656 151.177 226.528 150.521 226.528H149.609C148.793 226.528 148.193 226.68 147.809 226.984C147.441 227.288 147.257 227.744 147.257 228.352C147.257 228.896 147.417 229.296 147.737 229.552C148.057 229.808 148.561 229.992 149.249 230.104L151.025 230.392C152.449 230.616 153.481 231.032 154.121 231.64C154.777 232.248 155.105 233.128 155.105 234.28C155.105 235.496 154.713 236.456 153.929 237.16C153.161 237.848 151.993 238.192 150.425 238.192H149.417ZM158.456 240.4V238.6H169.976V240.4H158.456ZM176.686 238V228.088H172.846V226.12H176.686V223.84C176.686 222.8 177.014 221.984 177.67 221.392C178.326 220.784 179.23 220.48 180.382 220.48H184.246V222.448H180.382C179.886 222.448 179.502 222.568 179.23 222.808C178.974 223.032 178.846 223.376 178.846 223.84V226.12H184.246V228.088H178.846V238H176.686ZM192.997 238.192C191.941 238.192 191.029 237.992 190.261 237.592C189.493 237.192 188.893 236.616 188.461 235.864C188.045 235.096 187.837 234.192 187.837 233.152V229.648C187.837 228.592 188.045 227.688 188.461 226.936C188.893 226.184 189.493 225.608 190.261 225.208C191.029 224.808 191.941 224.608 192.997 224.608C194.053 224.608 194.965 224.808 195.733 225.208C196.501 225.608 197.093 226.184 197.509 226.936C197.941 227.688 198.157 228.584 198.157 229.624V233.152C198.157 234.192 197.941 235.096 197.509 235.864C197.093 236.616 196.501 237.192 195.733 237.592C194.965 237.992 194.053 238.192 192.997 238.192ZM192.997 236.272C193.941 236.272 194.677 236.008 195.205 235.48C195.733 234.952 195.997 234.176 195.997 233.152V229.648C195.997 228.624 195.733 227.848 195.205 227.32C194.677 226.792 193.941 226.528 192.997 226.528C192.069 226.528 191.333 226.792 190.789 227.32C190.261 227.848 189.997 228.624 189.997 229.648V233.152C189.997 234.176 190.261 234.952 190.789 235.48C191.333 236.008 192.069 236.272 192.997 236.272ZM202.852 238V224.8H204.964V227.32H205.468L204.772 228.88C204.772 227.456 205.076 226.384 205.684 225.664C206.308 224.928 207.228 224.56 208.444 224.56C209.836 224.56 210.94 225 211.756 225.88C212.588 226.744 213.004 227.92 213.004 229.408V230.2H210.844V229.6C210.844 228.56 210.588 227.768 210.076 227.224C209.58 226.664 208.868 226.384 207.94 226.384C207.028 226.384 206.308 226.664 205.78 227.224C205.268 227.784 205.012 228.576 205.012 229.6V238H202.852ZM223.338 227.68L223.05 222.64V220.48H225.378V222.64L225.114 227.68H223.338ZM218.466 227.68L218.178 222.64V220.48H220.506V222.64L220.242 227.68H218.466ZM236.169 228.16C235.577 228.16 235.097 228 234.729 227.68C234.361 227.344 234.177 226.904 234.177 226.36C234.177 225.816 234.361 225.384 234.729 225.064C235.097 224.728 235.577 224.56 236.169 224.56C236.777 224.56 237.257 224.728 237.609 225.064C237.977 225.384 238.161 225.816 238.161 226.36C238.161 226.904 237.977 227.344 237.609 227.68C237.257 228 236.777 228.16 236.169 228.16ZM236.169 238.24C235.577 238.24 235.097 238.08 234.729 237.76C234.361 237.424 234.177 236.984 234.177 236.44C234.177 235.896 234.361 235.464 234.729 235.144C235.097 234.808 235.577 234.64 236.169 234.64C236.777 234.64 237.257 234.808 237.609 235.144C237.977 235.464 238.161 235.896 238.161 236.44C238.161 236.984 237.977 237.424 237.609 237.76C237.257 238.08 236.777 238.24 236.169 238.24ZM52.2106 272.64L43.6906 250.08H45.9706L54.4906 272.64H52.2106ZM58.4893 270V256.8H60.6493V259.32H61.1053L60.6493 259.824C60.6493 258.784 60.9613 257.984 61.5853 257.424C62.2093 256.848 63.0733 256.56 64.1773 256.56C65.5053 256.56 66.5613 256.968 67.3453 257.784C68.1293 258.6 68.5213 259.712 68.5213 261.12V270H66.3613V261.36C66.3613 260.416 66.1053 259.696 65.5933 259.2C65.0973 258.688 64.4173 258.432 63.5533 258.432C62.6573 258.432 61.9453 258.704 61.4173 259.248C60.9053 259.792 60.6493 260.576 60.6493 261.6V270H58.4893ZM80.9919 272.64L72.4719 250.08H74.7519L83.2719 272.64H80.9919ZM93.8225 259.68L93.5345 254.64V252.48H95.8625V254.64L95.5985 259.68H93.8225ZM88.9505 259.68L88.6625 254.64V252.48H90.9905V254.64L90.7265 259.68H88.9505ZM152.945 304.64L144.425 282.08H146.705L155.225 304.64H152.945ZM165.776 291.68L165.488 286.64V284.48H167.816V286.64L167.552 291.68H165.776ZM160.904 291.68L160.616 286.64V284.48H162.944V286.64L162.68 291.68H160.904Z" fill="#CD7036"/>
<path d="M180.166 163.68L179.878 158.64V156.48H182.206V158.64L181.942 163.68H180.166ZM175.294 163.68L175.006 158.64V156.48H177.334V158.64L177.07 163.68H175.294ZM193.765 174.24C192.677 174.24 191.805 173.952 191.149 173.376C190.493 172.784 190.165 171.984 190.165 170.976L190.597 171.48H190.165V174H188.005V156.48H190.165V160.32L190.117 163.32H190.597L190.165 163.824C190.165 162.832 190.493 162.04 191.149 161.448C191.821 160.856 192.693 160.56 193.765 160.56C195.093 160.56 196.157 161 196.957 161.88C197.757 162.76 198.157 163.96 198.157 165.48V169.344C198.157 170.848 197.757 172.04 196.957 172.92C196.157 173.8 195.093 174.24 193.765 174.24ZM193.045 172.368C193.957 172.368 194.677 172.096 195.205 171.552C195.733 171.008 195.997 170.224 195.997 169.2V165.6C195.997 164.576 195.733 163.792 195.205 163.248C194.677 162.704 193.957 162.432 193.045 162.432C192.165 162.432 191.461 162.712 190.933 163.272C190.421 163.832 190.165 164.608 190.165 165.6V169.2C190.165 170.192 190.421 170.968 190.933 171.528C191.461 172.088 192.165 172.368 193.045 172.368ZM207.388 174.192C206.332 174.192 205.42 173.992 204.652 173.592C203.884 173.192 203.284 172.616 202.852 171.864C202.436 171.096 202.228 170.192 202.228 169.152V165.648C202.228 164.592 202.436 163.688 202.852 162.936C203.284 162.184 203.884 161.608 204.652 161.208C205.42 160.808 206.332 160.608 207.388 160.608C208.444 160.608 209.356 160.808 210.124 161.208C210.892 161.608 211.484 162.184 211.9 162.936C212.332 163.688 212.548 164.584 212.548 165.624V169.152C212.548 170.192 212.332 171.096 211.9 171.864C211.484 172.616 210.892 173.192 210.124 173.592C209.356 173.992 208.444 174.192 207.388 174.192ZM207.388 172.272C208.332 172.272 209.068 172.008 209.596 171.48C210.124 170.952 210.388 170.176 210.388 169.152V165.648C210.388 164.624 210.124 163.848 209.596 163.32C209.068 162.792 208.332 162.528 207.388 162.528C206.46 162.528 205.724 162.792 205.18 163.32C204.652 163.848 204.388 164.624 204.388 165.648V169.152C204.388 170.176 204.652 170.952 205.18 171.48C205.724 172.008 206.46 172.272 207.388 172.272ZM221.754 174.24C220.234 174.24 219.018 173.792 218.106 172.896C217.194 171.984 216.738 170.752 216.738 169.2V160.8H218.898V169.2C218.898 170.192 219.154 170.968 219.666 171.528C220.178 172.072 220.874 172.344 221.754 172.344C222.65 172.344 223.354 172.072 223.866 171.528C224.394 170.968 224.658 170.192 224.658 169.2V160.8H226.818V169.2C226.818 170.752 226.354 171.984 225.426 172.896C224.498 173.792 223.274 174.24 221.754 174.24ZM231.177 174V160.8H233.337V163.32H233.793L233.337 163.824C233.337 162.784 233.649 161.984 234.273 161.424C234.897 160.848 235.761 160.56 236.865 160.56C238.193 160.56 239.249 160.968 240.033 161.784C240.817 162.6 241.209 163.712 241.209 165.12V174H239.049V165.36C239.049 164.416 238.793 163.696 238.281 163.2C237.785 162.688 237.105 162.432 236.241 162.432C235.345 162.432 234.633 162.704 234.105 163.248C233.593 163.792 233.337 164.576 233.337 165.6V174H231.177ZM249.791 174.24C248.479 174.24 247.415 173.8 246.599 172.92C245.799 172.04 245.399 170.848 245.399 169.344V165.48C245.399 163.96 245.799 162.76 246.599 161.88C247.399 161 248.463 160.56 249.791 160.56C250.879 160.56 251.751 160.856 252.407 161.448C253.063 162.04 253.391 162.832 253.391 163.824L252.959 163.32H253.439L253.391 160.32V156.48H255.551V174H253.391V171.48H252.959L253.391 170.976C253.391 171.984 253.063 172.784 252.407 173.376C251.751 173.952 250.879 174.24 249.791 174.24ZM250.511 172.368C251.407 172.368 252.111 172.088 252.623 171.528C253.135 170.968 253.391 170.192 253.391 169.2V165.6C253.391 164.608 253.135 163.832 252.623 163.272C252.111 162.712 251.407 162.432 250.511 162.432C249.599 162.432 248.879 162.704 248.351 163.248C247.823 163.792 247.559 164.576 247.559 165.6V169.2C247.559 170.224 247.823 171.008 248.351 171.552C248.879 172.096 249.599 172.368 250.511 172.368ZM263.798 174.24C262.406 174.24 261.31 173.888 260.51 173.184C259.71 172.464 259.31 171.496 259.31 170.28C259.31 169.048 259.71 168.08 260.51 167.376C261.31 166.672 262.39 166.32 263.75 166.32H267.83V165C267.83 164.184 267.582 163.56 267.086 163.128C266.606 162.68 265.918 162.456 265.022 162.456C264.238 162.456 263.582 162.624 263.054 162.96C262.526 163.28 262.222 163.72 262.142 164.28H259.982C260.126 163.144 260.662 162.24 261.59 161.568C262.518 160.896 263.678 160.56 265.07 160.56C266.59 160.56 267.79 160.952 268.67 161.736C269.55 162.52 269.99 163.584 269.99 164.928V174H267.878V171.48H267.518L267.878 171.12C267.878 172.08 267.502 172.84 266.75 173.4C266.014 173.96 265.03 174.24 263.798 174.24ZM264.326 172.536C265.35 172.536 266.19 172.28 266.846 171.768C267.502 171.256 267.83 170.6 267.83 169.8V167.928H263.798C263.078 167.928 262.51 168.128 262.094 168.528C261.678 168.928 261.47 169.472 261.47 170.16C261.47 170.896 261.718 171.48 262.214 171.912C262.726 172.328 263.43 172.536 264.326 172.536ZM274.805 174V160.8H276.917V163.32H277.421L276.725 164.88C276.725 163.456 277.029 162.384 277.637 161.664C278.261 160.928 279.181 160.56 280.397 160.56C281.789 160.56 282.893 161 283.709 161.88C284.541 162.744 284.957 163.92 284.957 165.408V166.2H282.797V165.6C282.797 164.56 282.541 163.768 282.029 163.224C281.533 162.664 280.821 162.384 279.893 162.384C278.981 162.384 278.261 162.664 277.733 163.224C277.221 163.784 276.965 164.576 276.965 165.6V174H274.805ZM290.803 178.32L292.747 173.184L287.851 160.8H290.251L293.323 168.96C293.435 169.232 293.539 169.56 293.635 169.944C293.731 170.312 293.811 170.624 293.875 170.88C293.939 170.624 294.019 170.312 294.115 169.944C294.211 169.56 294.307 169.232 294.403 168.96L297.283 160.8H299.611L293.107 178.32H290.803ZM302.506 174V160.8H304.402V162.384H304.834L304.498 162.96C304.498 162.224 304.69 161.64 305.074 161.208C305.474 160.776 306.01 160.56 306.682 160.56C307.418 160.56 307.986 160.832 308.386 161.376C308.786 161.92 308.986 162.688 308.986 163.68L308.338 162.384H309.346L308.89 162.96C308.89 162.224 309.09 161.64 309.49 161.208C309.906 160.776 310.45 160.56 311.122 160.56C311.954 160.56 312.594 160.872 313.042 161.496C313.506 162.12 313.738 162.944 313.738 163.968V174H311.746V163.944C311.746 163.4 311.626 162.976 311.386 162.672C311.162 162.368 310.826 162.216 310.378 162.216C309.946 162.216 309.602 162.368 309.346 162.672C309.106 162.96 308.986 163.376 308.986 163.92V174H307.258V163.944C307.258 163.384 307.13 162.96 306.874 162.672C306.634 162.368 306.29 162.216 305.842 162.216C305.394 162.216 305.058 162.368 304.834 162.672C304.61 162.96 304.498 163.376 304.498 163.92V174H302.506ZM324.313 174C323.545 174 322.873 173.848 322.297 173.544C321.721 173.24 321.273 172.808 320.953 172.248C320.633 171.688 320.473 171.032 320.473 170.28V158.448H316.033V156.48H322.633V170.28C322.633 170.824 322.785 171.256 323.089 171.576C323.393 171.88 323.801 172.032 324.313 172.032H328.513V174H324.313ZM331.503 176.64L340.023 154.08H342.303L333.783 176.64H331.503ZM352.062 174.24C350.974 174.24 350.102 173.952 349.446 173.376C348.79 172.784 348.462 171.984 348.462 170.976L348.894 171.48H348.462V174H346.302V156.48H348.462V160.32L348.414 163.32H348.894L348.462 163.824C348.462 162.832 348.79 162.04 349.446 161.448C350.118 160.856 350.99 160.56 352.062 160.56C353.39 160.56 354.454 161 355.254 161.88C356.054 162.76 356.454 163.96 356.454 165.48V169.344C356.454 170.848 356.054 172.04 355.254 172.92C354.454 173.8 353.39 174.24 352.062 174.24ZM351.342 172.368C352.254 172.368 352.974 172.096 353.502 171.552C354.03 171.008 354.294 170.224 354.294 169.2V165.6C354.294 164.576 354.03 163.792 353.502 163.248C352.974 162.704 352.254 162.432 351.342 162.432C350.462 162.432 349.758 162.712 349.23 163.272C348.718 163.832 348.462 164.608 348.462 165.6V169.2C348.462 170.192 348.718 170.968 349.23 171.528C349.758 172.088 350.462 172.368 351.342 172.368ZM364.532 174.24C363.14 174.24 362.044 173.888 361.244 173.184C360.444 172.464 360.044 171.496 360.044 170.28C360.044 169.048 360.444 168.08 361.244 167.376C362.044 166.672 363.124 166.32 364.484 166.32H368.564V165C368.564 164.184 368.316 163.56 367.82 163.128C367.34 162.68 366.652 162.456 365.756 162.456C364.972 162.456 364.316 162.624 363.788 162.96C363.26 163.28 362.956 163.72 362.876 164.28H360.716C360.86 163.144 361.396 162.24 362.324 161.568C363.252 160.896 364.412 160.56 365.804 160.56C367.324 160.56 368.524 160.952 369.404 161.736C370.284 162.52 370.724 163.584 370.724 164.928V174H368.612V171.48H368.252L368.612 171.12C368.612 172.08 368.236 172.84 367.484 173.4C366.748 173.96 365.764 174.24 364.532 174.24ZM365.06 172.536C366.084 172.536 366.924 172.28 367.58 171.768C368.236 171.256 368.564 170.6 368.564 169.8V167.928H364.532C363.812 167.928 363.244 168.128 362.828 168.528C362.412 168.928 362.204 169.472 362.204 170.16C362.204 170.896 362.452 171.48 362.948 171.912C363.46 172.328 364.164 172.536 365.06 172.536ZM374.459 174V160.8H376.355V162.384H376.787L376.451 162.96C376.451 162.224 376.643 161.64 377.027 161.208C377.427 160.776 377.963 160.56 378.635 160.56C379.371 160.56 379.939 160.832 380.339 161.376C380.739 161.92 380.939 162.688 380.939 163.68L380.291 162.384H381.299L380.843 162.96C380.843 162.224 381.043 161.64 381.443 161.208C381.859 160.776 382.403 160.56 383.075 160.56C383.907 160.56 384.547 160.872 384.995 161.496C385.459 162.12 385.691 162.944 385.691 163.968V174H383.699V163.944C383.699 163.4 383.579 162.976 383.339 162.672C383.115 162.368 382.779 162.216 382.331 162.216C381.899 162.216 381.555 162.368 381.299 162.672C381.059 162.96 380.939 163.376 380.939 163.92V174H379.211V163.944C379.211 163.384 379.083 162.96 378.827 162.672C378.587 162.368 378.243 162.216 377.795 162.216C377.347 162.216 377.011 162.368 376.787 162.672C376.563 162.96 376.451 163.376 376.451 163.92V174H374.459ZM396.266 174C395.498 174 394.826 173.848 394.25 173.544C393.674 173.24 393.226 172.808 392.906 172.248C392.586 171.688 392.426 171.032 392.426 170.28V158.448H387.986V156.48H394.586V170.28C394.586 170.824 394.738 171.256 395.042 171.576C395.346 171.88 395.754 172.032 396.266 172.032H400.466V174H396.266ZM410.416 163.68L410.128 158.64V156.48H412.456V158.64L412.192 163.68H410.416ZM405.544 163.68L405.256 158.64V156.48H407.584V158.64L407.32 163.68H405.544ZM266.51 227.68L266.222 222.64V220.48H268.55V222.64L268.286 227.68H266.51ZM261.638 227.68L261.35 222.64V220.48H263.678V222.64L263.414 227.68H261.638ZM274.373 238V220.48H279.341C280.941 220.48 282.189 220.88 283.085 221.68C283.997 222.48 284.453 223.592 284.453 225.016C284.453 225.816 284.285 226.512 283.949 227.104C283.613 227.696 283.133 228.152 282.509 228.472C281.901 228.792 281.165 228.944 280.301 228.928V228.568C281.229 228.552 282.029 228.728 282.701 229.096C283.389 229.464 283.917 229.992 284.285 230.68C284.669 231.368 284.861 232.184 284.861 233.128C284.861 234.12 284.653 234.984 284.237 235.72C283.821 236.456 283.229 237.024 282.461 237.424C281.693 237.808 280.773 238 279.701 238H274.373ZM276.485 236.056H279.461C280.469 236.056 281.261 235.792 281.837 235.264C282.429 234.72 282.725 233.984 282.725 233.056C282.725 232.096 282.429 231.32 281.837 230.728C281.261 230.12 280.469 229.816 279.461 229.816H276.485V236.056ZM276.485 227.944H279.317C280.245 227.944 280.973 227.696 281.501 227.2C282.045 226.704 282.317 226.032 282.317 225.184C282.317 224.336 282.053 223.664 281.525 223.168C280.997 222.672 280.269 222.424 279.341 222.424H276.485V227.944ZM287.731 238L292.291 220.48H295.195L299.731 238H297.547L296.395 233.344H291.091L289.939 238H287.731ZM291.523 231.52H295.939L294.595 226.12C294.339 225.096 294.139 224.24 293.995 223.552C293.851 222.864 293.763 222.416 293.731 222.208C293.699 222.416 293.611 222.864 293.467 223.552C293.323 224.24 293.123 225.088 292.867 226.096L291.523 231.52ZM302.746 238V220.48H305.578L307.402 226.144C307.578 226.656 307.738 227.168 307.882 227.68C308.026 228.176 308.13 228.56 308.194 228.832C308.274 228.56 308.378 228.176 308.506 227.68C308.634 227.168 308.778 226.648 308.938 226.12L310.666 220.48H313.498V238H311.386V231.64C311.386 230.936 311.41 230.136 311.458 229.24C311.506 228.344 311.57 227.432 311.65 226.504C311.73 225.56 311.81 224.664 311.89 223.816C311.986 222.952 312.066 222.2 312.13 221.56L309.298 230.32H307.018L304.162 221.56C304.242 222.184 304.322 222.912 304.402 223.744C304.482 224.56 304.554 225.432 304.618 226.36C304.682 227.272 304.738 228.184 304.786 229.096C304.834 230.008 304.858 230.856 304.858 231.64V238H302.746ZM318.073 238V220.48H320.233V236.032H328.153V238H318.073ZM345.678 238V224.8H347.574V226.384H348.006L347.67 226.96C347.67 226.224 347.862 225.64 348.246 225.208C348.646 224.776 349.182 224.56 349.854 224.56C350.59 224.56 351.158 224.832 351.558 225.376C351.958 225.92 352.158 226.688 352.158 227.68L351.51 226.384H352.518L352.062 226.96C352.062 226.224 352.262 225.64 352.662 225.208C353.078 224.776 353.622 224.56 354.294 224.56C355.126 224.56 355.766 224.872 356.214 225.496C356.678 226.12 356.91 226.944 356.91 227.968V238H354.918V227.944C354.918 227.4 354.798 226.976 354.558 226.672C354.334 226.368 353.998 226.216 353.55 226.216C353.118 226.216 352.774 226.368 352.518 226.672C352.278 226.96 352.158 227.376 352.158 227.92V238H350.43V227.944C350.43 227.384 350.302 226.96 350.046 226.672C349.806 226.368 349.462 226.216 349.014 226.216C348.566 226.216 348.23 226.368 348.006 226.672C347.782 226.96 347.67 227.376 347.67 227.92V238H345.678ZM365.684 238.24C364.644 238.24 363.732 238.032 362.948 237.616C362.18 237.2 361.58 236.616 361.148 235.864C360.732 235.096 360.524 234.208 360.524 233.2V229.6C360.524 228.576 360.732 227.688 361.148 226.936C361.58 226.184 362.18 225.6 362.948 225.184C363.732 224.768 364.644 224.56 365.684 224.56C366.724 224.56 367.628 224.768 368.396 225.184C369.18 225.6 369.78 226.184 370.196 226.936C370.628 227.688 370.844 228.576 370.844 229.6V231.928H362.636V233.2C362.636 234.24 362.9 235.04 363.428 235.6C363.956 236.144 364.708 236.416 365.684 236.416C366.516 236.416 367.188 236.272 367.7 235.984C368.212 235.68 368.524 235.232 368.636 234.64H370.796C370.652 235.744 370.108 236.624 369.164 237.28C368.236 237.92 367.076 238.24 365.684 238.24ZM368.732 230.488V229.6C368.732 228.56 368.468 227.76 367.94 227.2C367.428 226.64 366.676 226.36 365.684 226.36C364.708 226.36 363.956 226.64 363.428 227.2C362.9 227.76 362.636 228.56 362.636 229.6V230.296H368.9L368.732 230.488ZM378.923 238.24C377.531 238.24 376.435 237.888 375.635 237.184C374.835 236.464 374.435 235.496 374.435 234.28C374.435 233.048 374.835 232.08 375.635 231.376C376.435 230.672 377.515 230.32 378.875 230.32H382.955V229C382.955 228.184 382.707 227.56 382.211 227.128C381.731 226.68 381.043 226.456 380.147 226.456C379.363 226.456 378.707 226.624 378.179 226.96C377.651 227.28 377.347 227.72 377.267 228.28H375.107C375.251 227.144 375.787 226.24 376.715 225.568C377.643 224.896 378.803 224.56 380.195 224.56C381.715 224.56 382.915 224.952 383.795 225.736C384.675 226.52 385.115 227.584 385.115 228.928V238H383.003V235.48H382.643L383.003 235.12C383.003 236.08 382.627 236.84 381.875 237.4C381.139 237.96 380.155 238.24 378.923 238.24ZM379.451 236.536C380.475 236.536 381.315 236.28 381.971 235.768C382.627 235.256 382.955 234.6 382.955 233.8V231.928H378.923C378.203 231.928 377.635 232.128 377.219 232.528C376.803 232.928 376.595 233.472 376.595 234.16C376.595 234.896 376.843 235.48 377.339 235.912C377.851 236.328 378.555 236.536 379.451 236.536ZM389.474 238V224.8H391.634V227.32H392.09L391.634 227.824C391.634 226.784 391.946 225.984 392.57 225.424C393.194 224.848 394.058 224.56 395.162 224.56C396.49 224.56 397.546 224.968 398.33 225.784C399.114 226.6 399.506 227.712 399.506 229.12V238H397.346V229.36C397.346 228.416 397.09 227.696 396.578 227.2C396.082 226.688 395.402 226.432 394.538 226.432C393.642 226.432 392.93 226.704 392.402 227.248C391.89 227.792 391.634 228.576 391.634 229.6V238H389.474ZM408.448 238.192C407.552 238.192 406.768 238.056 406.096 237.784C405.44 237.496 404.912 237.096 404.512 236.584C404.128 236.072 403.896 235.464 403.816 234.76H405.976C406.072 235.224 406.328 235.592 406.744 235.864C407.176 236.136 407.744 236.272 408.448 236.272H409.456C410.304 236.272 410.936 236.104 411.352 235.768C411.768 235.416 411.976 234.952 411.976 234.376C411.976 233.816 411.784 233.376 411.4 233.056C411.032 232.72 410.48 232.496 409.744 232.384L407.968 232.096C406.672 231.872 405.704 231.472 405.064 230.896C404.44 230.304 404.128 229.448 404.128 228.328C404.128 227.144 404.504 226.232 405.256 225.592C406.008 224.936 407.136 224.608 408.64 224.608H409.552C410.816 224.608 411.832 224.904 412.6 225.496C413.368 226.088 413.832 226.888 413.992 227.896H411.832C411.736 227.48 411.496 227.152 411.112 226.912C410.728 226.656 410.208 226.528 409.552 226.528H408.64C407.824 226.528 407.224 226.68 406.84 226.984C406.472 227.288 406.288 227.744 406.288 228.352C406.288 228.896 406.448 229.296 406.768 229.552C407.088 229.808 407.592 229.992 408.28 230.104L410.056 230.392C411.48 230.616 412.512 231.032 413.152 231.64C413.808 232.248 414.136 233.128 414.136 234.28C414.136 235.496 413.744 236.456 412.96 237.16C412.192 237.848 411.024 238.192 409.456 238.192H408.448ZM423.247 228.16C422.655 228.16 422.175 228 421.807 227.68C421.439 227.344 421.255 226.904 421.255 226.36C421.255 225.816 421.439 225.384 421.807 225.064C422.175 224.728 422.655 224.56 423.247 224.56C423.855 224.56 424.335 224.728 424.687 225.064C425.055 225.384 425.239 225.816 425.239 226.36C425.239 226.904 425.055 227.344 424.687 227.68C424.335 228 423.855 228.16 423.247 228.16ZM423.247 238.24C422.655 238.24 422.175 238.08 421.807 237.76C421.439 237.424 421.255 236.984 421.255 236.44C421.255 235.896 421.439 235.464 421.807 235.144C422.175 234.808 422.655 234.64 423.247 234.64C423.855 234.64 424.335 234.808 424.687 235.144C425.055 235.464 425.239 235.896 425.239 236.44C425.239 236.984 425.055 237.424 424.687 237.76C424.335 238.08 423.855 238.24 423.247 238.24ZM101.685 270V252.48H106.653C108.253 252.48 109.501 252.88 110.397 253.68C111.309 254.48 111.765 255.592 111.765 257.016C111.765 257.816 111.597 258.512 111.261 259.104C110.925 259.696 110.445 260.152 109.821 260.472C109.213 260.792 108.477 260.944 107.613 260.928V260.568C108.541 260.552 109.341 260.728 110.013 261.096C110.701 261.464 111.229 261.992 111.597 262.68C111.981 263.368 112.173 264.184 112.173 265.128C112.173 266.12 111.965 266.984 111.549 267.72C111.133 268.456 110.541 269.024 109.773 269.424C109.005 269.808 108.085 270 107.013 270H101.685ZM103.797 268.056H106.773C107.781 268.056 108.573 267.792 109.149 267.264C109.741 266.72 110.037 265.984 110.037 265.056C110.037 264.096 109.741 263.32 109.149 262.728C108.573 262.12 107.781 261.816 106.773 261.816H103.797V268.056ZM103.797 259.944H106.629C107.557 259.944 108.285 259.696 108.813 259.2C109.357 258.704 109.629 258.032 109.629 257.184C109.629 256.336 109.365 255.664 108.837 255.168C108.309 254.672 107.581 254.424 106.653 254.424H103.797V259.944ZM119.892 270.24C118.5 270.24 117.404 269.888 116.604 269.184C115.804 268.464 115.404 267.496 115.404 266.28C115.404 265.048 115.804 264.08 116.604 263.376C117.404 262.672 118.484 262.32 119.844 262.32H123.924V261C123.924 260.184 123.676 259.56 123.18 259.128C122.7 258.68 122.012 258.456 121.116 258.456C120.332 258.456 119.676 258.624 119.148 258.96C118.62 259.28 118.316 259.72 118.236 260.28H116.076C116.22 259.144 116.756 258.24 117.684 257.568C118.612 256.896 119.772 256.56 121.164 256.56C122.684 256.56 123.884 256.952 124.764 257.736C125.644 258.52 126.084 259.584 126.084 260.928V270H123.972V267.48H123.612L123.972 267.12C123.972 268.08 123.596 268.84 122.844 269.4C122.108 269.96 121.124 270.24 119.892 270.24ZM120.42 268.536C121.444 268.536 122.284 268.28 122.94 267.768C123.596 267.256 123.924 266.6 123.924 265.8V263.928H119.892C119.172 263.928 118.604 264.128 118.188 264.528C117.772 264.928 117.564 265.472 117.564 266.16C117.564 266.896 117.812 267.48 118.308 267.912C118.82 268.328 119.524 268.536 120.42 268.536ZM135.026 270.192C134.13 270.192 133.346 270.056 132.674 269.784C132.018 269.496 131.49 269.096 131.09 268.584C130.706 268.072 130.474 267.464 130.394 266.76H132.554C132.65 267.224 132.906 267.592 133.322 267.864C133.754 268.136 134.322 268.272 135.026 268.272H136.034C136.882 268.272 137.514 268.104 137.93 267.768C138.346 267.416 138.554 266.952 138.554 266.376C138.554 265.816 138.362 265.376 137.978 265.056C137.61 264.72 137.058 264.496 136.322 264.384L134.546 264.096C133.25 263.872 132.282 263.472 131.642 262.896C131.018 262.304 130.706 261.448 130.706 260.328C130.706 259.144 131.082 258.232 131.834 257.592C132.586 256.936 133.714 256.608 135.218 256.608H136.13C137.394 256.608 138.41 256.904 139.178 257.496C139.946 258.088 140.41 258.888 140.57 259.896H138.41C138.314 259.48 138.074 259.152 137.69 258.912C137.306 258.656 136.786 258.528 136.13 258.528H135.218C134.402 258.528 133.802 258.68 133.418 258.984C133.05 259.288 132.866 259.744 132.866 260.352C132.866 260.896 133.026 261.296 133.346 261.552C133.666 261.808 134.17 261.992 134.858 262.104L136.634 262.392C138.058 262.616 139.09 263.032 139.73 263.64C140.386 264.248 140.714 265.128 140.714 266.28C140.714 267.496 140.322 268.456 139.538 269.16C138.77 269.848 137.602 270.192 136.034 270.192H135.026ZM144.665 270V268.032H149.345V258.768H145.265V256.8H151.505V268.032H155.945V270H144.665ZM150.185 254.424C149.657 254.424 149.241 254.288 148.937 254.016C148.633 253.744 148.481 253.376 148.481 252.912C148.481 252.432 148.633 252.056 148.937 251.784C149.241 251.496 149.657 251.352 150.185 251.352C150.713 251.352 151.129 251.496 151.433 251.784C151.737 252.056 151.889 252.432 151.889 252.912C151.889 253.376 151.737 253.744 151.433 254.016C151.129 254.288 150.713 254.424 150.185 254.424ZM164.312 270.24C163.256 270.24 162.328 270.04 161.528 269.64C160.744 269.24 160.136 268.664 159.704 267.912C159.272 267.144 159.056 266.24 159.056 265.2V261.6C159.056 260.544 159.272 259.64 159.704 258.888C160.136 258.136 160.744 257.56 161.528 257.16C162.328 256.76 163.256 256.56 164.312 256.56C165.832 256.56 167.056 256.968 167.984 257.784C168.912 258.6 169.4 259.712 169.448 261.12H167.288C167.24 260.272 166.952 259.624 166.424 259.176C165.912 258.712 165.208 258.48 164.312 258.48C163.368 258.48 162.616 258.752 162.056 259.296C161.496 259.824 161.216 260.584 161.216 261.576V265.2C161.216 266.192 161.496 266.96 162.056 267.504C162.616 268.048 163.368 268.32 164.312 268.32C165.208 268.32 165.912 268.088 166.424 267.624C166.952 267.16 167.24 266.512 167.288 265.68H169.448C169.4 267.088 168.912 268.2 167.984 269.016C167.056 269.832 165.832 270.24 164.312 270.24ZM177.454 270.24C176.062 270.24 174.966 269.888 174.166 269.184C173.366 268.464 172.966 267.496 172.966 266.28C172.966 265.048 173.366 264.08 174.166 263.376C174.966 262.672 176.046 262.32 177.406 262.32H181.486V261C181.486 260.184 181.238 259.56 180.742 259.128C180.262 258.68 179.574 258.456 178.678 258.456C177.894 258.456 177.238 258.624 176.71 258.96C176.182 259.28 175.878 259.72 175.798 260.28H173.638C173.782 259.144 174.318 258.24 175.246 257.568C176.174 256.896 177.334 256.56 178.726 256.56C180.246 256.56 181.446 256.952 182.326 257.736C183.206 258.52 183.646 259.584 183.646 260.928V270H181.534V267.48H181.174L181.534 267.12C181.534 268.08 181.158 268.84 180.406 269.4C179.67 269.96 178.686 270.24 177.454 270.24ZM177.982 268.536C179.006 268.536 179.846 268.28 180.502 267.768C181.158 267.256 181.486 266.6 181.486 265.8V263.928H177.454C176.734 263.928 176.166 264.128 175.75 264.528C175.334 264.928 175.126 265.472 175.126 266.16C175.126 266.896 175.374 267.48 175.87 267.912C176.382 268.328 177.086 268.536 177.982 268.536ZM194.797 270C194.029 270 193.357 269.848 192.781 269.544C192.205 269.24 191.757 268.808 191.437 268.248C191.117 267.688 190.957 267.032 190.957 266.28V254.448H186.517V252.48H193.117V266.28C193.117 266.824 193.269 267.256 193.573 267.576C193.877 267.88 194.285 268.032 194.797 268.032H198.997V270H194.797ZM209.188 270C208.42 270 207.748 269.848 207.172 269.544C206.596 269.24 206.148 268.808 205.828 268.248C205.508 267.688 205.348 267.032 205.348 266.28V254.448H200.908V252.48H207.508V266.28C207.508 266.824 207.66 267.256 207.964 267.576C208.268 267.88 208.676 268.032 209.188 268.032H213.388V270H209.188ZM218.85 274.32L220.794 269.184L215.898 256.8H218.298L221.37 264.96C221.482 265.232 221.586 265.56 221.682 265.944C221.778 266.312 221.858 266.624 221.922 266.88C221.986 266.624 222.066 266.312 222.162 265.944C222.258 265.56 222.354 265.232 222.45 264.96L225.33 256.8H227.658L221.154 274.32H218.85ZM249.407 270.24C248.015 270.24 246.919 269.888 246.119 269.184C245.319 268.464 244.919 267.496 244.919 266.28C244.919 265.048 245.319 264.08 246.119 263.376C246.919 262.672 247.999 262.32 249.359 262.32H253.439V261C253.439 260.184 253.191 259.56 252.695 259.128C252.215 258.68 251.527 258.456 250.631 258.456C249.847 258.456 249.191 258.624 248.663 258.96C248.135 259.28 247.831 259.72 247.751 260.28H245.591C245.735 259.144 246.271 258.24 247.199 257.568C248.127 256.896 249.287 256.56 250.679 256.56C252.199 256.56 253.399 256.952 254.279 257.736C255.159 258.52 255.599 259.584 255.599 260.928V270H253.487V267.48H253.127L253.487 267.12C253.487 268.08 253.111 268.84 252.359 269.4C251.623 269.96 250.639 270.24 249.407 270.24ZM249.935 268.536C250.959 268.536 251.799 268.28 252.455 267.768C253.111 267.256 253.439 266.6 253.439 265.8V263.928H249.407C248.687 263.928 248.119 264.128 247.703 264.528C247.287 264.928 247.079 265.472 247.079 266.16C247.079 266.896 247.327 267.48 247.823 267.912C248.335 268.328 249.039 268.536 249.935 268.536ZM273.965 270V252.48H276.797L278.621 258.144C278.797 258.656 278.957 259.168 279.101 259.68C279.245 260.176 279.349 260.56 279.413 260.832C279.493 260.56 279.597 260.176 279.725 259.68C279.853 259.168 279.997 258.648 280.157 258.12L281.885 252.48H284.717V270H282.605V263.64C282.605 262.936 282.629 262.136 282.677 261.24C282.725 260.344 282.789 259.432 282.869 258.504C282.949 257.56 283.029 256.664 283.109 255.816C283.205 254.952 283.285 254.2 283.349 253.56L280.517 262.32H278.237L275.381 253.56C275.461 254.184 275.541 254.912 275.621 255.744C275.701 256.56 275.773 257.432 275.837 258.36C275.901 259.272 275.957 260.184 276.005 261.096C276.053 262.008 276.077 262.856 276.077 263.64V270H273.965ZM292.579 270.24C291.187 270.24 290.091 269.888 289.291 269.184C288.491 268.464 288.091 267.496 288.091 266.28C288.091 265.048 288.491 264.08 289.291 263.376C290.091 262.672 291.171 262.32 292.531 262.32H296.611V261C296.611 260.184 296.363 259.56 295.867 259.128C295.387 258.68 294.699 258.456 293.803 258.456C293.019 258.456 292.363 258.624 291.835 258.96C291.307 259.28 291.003 259.72 290.923 260.28H288.763C288.907 259.144 289.443 258.24 290.371 257.568C291.299 256.896 292.459 256.56 293.851 256.56C295.371 256.56 296.571 256.952 297.451 257.736C298.331 258.52 298.771 259.584 298.771 260.928V270H296.659V267.48H296.299L296.659 267.12C296.659 268.08 296.283 268.84 295.531 269.4C294.795 269.96 293.811 270.24 292.579 270.24ZM293.107 268.536C294.131 268.536 294.971 268.28 295.627 267.768C296.283 267.256 296.611 266.6 296.611 265.8V263.928H292.579C291.859 263.928 291.291 264.128 290.875 264.528C290.459 264.928 290.251 265.472 290.251 266.16C290.251 266.896 290.499 267.48 290.995 267.912C291.507 268.328 292.211 268.536 293.107 268.536ZM307.354 270.24C306.042 270.24 304.978 269.8 304.162 268.92C303.362 268.04 302.962 266.848 302.962 265.344V261.48C302.962 259.96 303.362 258.76 304.162 257.88C304.962 257 306.026 256.56 307.354 256.56C308.442 256.56 309.314 256.856 309.97 257.448C310.626 258.04 310.954 258.832 310.954 259.824L310.522 259.32H311.002L310.954 256.32V252.48H313.114V270H310.954V267.48H310.522L310.954 266.976C310.954 267.984 310.626 268.784 309.97 269.376C309.314 269.952 308.442 270.24 307.354 270.24ZM308.074 268.368C308.97 268.368 309.674 268.088 310.186 267.528C310.698 266.968 310.954 266.192 310.954 265.2V261.6C310.954 260.608 310.698 259.832 310.186 259.272C309.674 258.712 308.97 258.432 308.074 258.432C307.162 258.432 306.442 258.704 305.914 259.248C305.386 259.792 305.122 260.576 305.122 261.6V265.2C305.122 266.224 305.386 267.008 305.914 267.552C306.442 268.096 307.162 268.368 308.074 268.368ZM322.513 270.24C321.473 270.24 320.561 270.032 319.777 269.616C319.009 269.2 318.409 268.616 317.977 267.864C317.561 267.096 317.353 266.208 317.353 265.2V261.6C317.353 260.576 317.561 259.688 317.977 258.936C318.409 258.184 319.009 257.6 319.777 257.184C320.561 256.768 321.473 256.56 322.513 256.56C323.553 256.56 324.457 256.768 325.225 257.184C326.009 257.6 326.609 258.184 327.025 258.936C327.457 259.688 327.673 260.576 327.673 261.6V263.928H319.465V265.2C319.465 266.24 319.729 267.04 320.257 267.6C320.785 268.144 321.537 268.416 322.513 268.416C323.345 268.416 324.017 268.272 324.529 267.984C325.041 267.68 325.353 267.232 325.465 266.64H327.625C327.481 267.744 326.937 268.624 325.993 269.28C325.065 269.92 323.905 270.24 322.513 270.24ZM325.561 262.488V261.6C325.561 260.56 325.297 259.76 324.769 259.2C324.257 258.64 323.505 258.36 322.513 258.36C321.537 258.36 320.785 258.64 320.257 259.2C319.729 259.76 319.465 260.56 319.465 261.6V262.296H325.729L325.561 262.488ZM333.063 263.04V261.12H340.743V263.04H333.063ZM351.27 270.24C349.75 270.24 348.534 269.792 347.622 268.896C346.71 267.984 346.254 266.752 346.254 265.2V256.8H348.414V265.2C348.414 266.192 348.67 266.968 349.182 267.528C349.694 268.072 350.39 268.344 351.27 268.344C352.166 268.344 352.87 268.072 353.382 267.528C353.91 266.968 354.174 266.192 354.174 265.2V256.8H356.334V265.2C356.334 266.752 355.87 267.984 354.942 268.896C354.014 269.792 352.79 270.24 351.27 270.24ZM360.692 274.32V256.8H362.852V259.32H363.284L362.852 259.824C362.852 258.816 363.18 258.024 363.836 257.448C364.508 256.856 365.388 256.56 366.476 256.56C367.804 256.56 368.86 257 369.644 257.88C370.444 258.744 370.844 259.936 370.844 261.456V265.32C370.844 266.328 370.66 267.2 370.292 267.936C369.94 268.672 369.436 269.24 368.78 269.64C368.14 270.04 367.372 270.24 366.476 270.24C365.404 270.24 364.532 269.944 363.86 269.352C363.188 268.76 362.852 267.968 362.852 266.976L363.284 267.48H362.804L362.852 270.48V274.32H360.692ZM365.756 268.368C366.668 268.368 367.38 268.096 367.892 267.552C368.42 267.008 368.684 266.224 368.684 265.2V261.6C368.684 260.576 368.42 259.792 367.892 259.248C367.38 258.704 366.668 258.432 365.756 258.432C364.876 258.432 364.172 258.712 363.644 259.272C363.116 259.832 362.852 260.608 362.852 261.6V265.2C362.852 266.192 363.116 266.968 363.644 267.528C364.172 268.088 364.876 268.368 365.756 268.368ZM30.26 302V284.48H32.42V300.032H40.34V302H30.26ZM47.9386 302.24C46.5466 302.24 45.4506 301.888 44.6506 301.184C43.8506 300.464 43.4506 299.496 43.4506 298.28C43.4506 297.048 43.8506 296.08 44.6506 295.376C45.4506 294.672 46.5306 294.32 47.8906 294.32H51.9706V293C51.9706 292.184 51.7226 291.56 51.2266 291.128C50.7466 290.68 50.0586 290.456 49.1626 290.456C48.3786 290.456 47.7226 290.624 47.1946 290.96C46.6666 291.28 46.3626 291.72 46.2826 292.28H44.1226C44.2666 291.144 44.8026 290.24 45.7306 289.568C46.6586 288.896 47.8186 288.56 49.2106 288.56C50.7306 288.56 51.9306 288.952 52.8106 289.736C53.6906 290.52 54.1306 291.584 54.1306 292.928V302H52.0186V299.48H51.6586L52.0186 299.12C52.0186 300.08 51.6426 300.84 50.8906 301.4C50.1546 301.96 49.1706 302.24 47.9386 302.24ZM48.4666 300.536C49.4906 300.536 50.3306 300.28 50.9866 299.768C51.6426 299.256 51.9706 298.6 51.9706 297.8V295.928H47.9386C47.2186 295.928 46.6506 296.128 46.2346 296.528C45.8186 296.928 45.6106 297.472 45.6106 298.16C45.6106 298.896 45.8586 299.48 46.3546 299.912C46.8666 300.328 47.5706 300.536 48.4666 300.536ZM58.4893 302V288.8H60.6493V291.32H61.1053L60.6493 291.824C60.6493 290.784 60.9613 289.984 61.5853 289.424C62.2093 288.848 63.0733 288.56 64.1773 288.56C65.5053 288.56 66.5613 288.968 67.3453 289.784C68.1293 290.6 68.5213 291.712 68.5213 293.12V302H66.3613V293.36C66.3613 292.416 66.1053 291.696 65.5933 291.2C65.0973 290.688 64.4173 290.432 63.5533 290.432C62.6573 290.432 61.9453 290.704 61.4173 291.248C60.9053 291.792 60.6493 292.576 60.6493 293.6V302H58.4893ZM74.5359 306.32V304.352H78.7359C79.4079 304.352 79.8959 304.2 80.1999 303.896C80.5199 303.592 80.6799 303.12 80.6799 302.48V300.8L80.7279 298.4H80.2959L80.7039 298.04C80.7039 299 80.3839 299.76 79.7439 300.32C79.1039 300.88 78.2479 301.16 77.1759 301.16C75.8159 301.16 74.7439 300.72 73.9599 299.84C73.1759 298.944 72.7839 297.744 72.7839 296.24V293.456C72.7839 291.952 73.1759 290.76 73.9599 289.88C74.7439 289 75.8159 288.56 77.1759 288.56C78.2479 288.56 79.1039 288.84 79.7439 289.4C80.3839 289.96 80.7039 290.72 80.7039 291.68L80.2959 291.32H80.7039V288.8H82.8399V302.48C82.8399 303.664 82.4719 304.6 81.7359 305.288C81.0159 305.976 80.0079 306.32 78.7119 306.32H74.5359ZM77.8239 299.288C78.7199 299.288 79.4239 299.008 79.9359 298.448C80.4479 297.888 80.7039 297.112 80.7039 296.12V293.6C80.7039 292.608 80.4479 291.832 79.9359 291.272C79.4239 290.712 78.7199 290.432 77.8239 290.432C76.9119 290.432 76.1999 290.704 75.6879 291.248C75.1919 291.792 74.9439 292.576 74.9439 293.6V296.12C74.9439 297.144 75.1919 297.928 75.6879 298.472C76.1999 299.016 76.9119 299.288 77.8239 299.288ZM92.2385 302.24C90.7185 302.24 89.5025 301.792 88.5905 300.896C87.6785 299.984 87.2225 298.752 87.2225 297.2V288.8H89.3825V297.2C89.3825 298.192 89.6385 298.968 90.1505 299.528C90.6625 300.072 91.3585 300.344 92.2385 300.344C93.1345 300.344 93.8385 300.072 94.3505 299.528C94.8785 298.968 95.1425 298.192 95.1425 297.2V288.8H97.3025V297.2C97.3025 298.752 96.8385 299.984 95.9105 300.896C94.9825 301.792 93.7585 302.24 92.2385 302.24ZM105.501 302.24C104.109 302.24 103.013 301.888 102.213 301.184C101.413 300.464 101.013 299.496 101.013 298.28C101.013 297.048 101.413 296.08 102.213 295.376C103.013 294.672 104.093 294.32 105.453 294.32H109.533V293C109.533 292.184 109.285 291.56 108.789 291.128C108.309 290.68 107.621 290.456 106.725 290.456C105.941 290.456 105.285 290.624 104.757 290.96C104.229 291.28 103.925 291.72 103.845 292.28H101.685C101.829 291.144 102.365 290.24 103.293 289.568C104.221 288.896 105.381 288.56 106.773 288.56C108.293 288.56 109.493 288.952 110.373 289.736C111.253 290.52 111.693 291.584 111.693 292.928V302H109.581V299.48H109.221L109.581 299.12C109.581 300.08 109.205 300.84 108.453 301.4C107.717 301.96 106.733 302.24 105.501 302.24ZM106.029 300.536C107.053 300.536 107.893 300.28 108.549 299.768C109.205 299.256 109.533 298.6 109.533 297.8V295.928H105.501C104.781 295.928 104.213 296.128 103.797 296.528C103.381 296.928 103.173 297.472 103.173 298.16C103.173 298.896 103.421 299.48 103.917 299.912C104.429 300.328 105.133 300.536 106.029 300.536ZM117.708 306.32V304.352H121.908C122.58 304.352 123.068 304.2 123.372 303.896C123.692 303.592 123.852 303.12 123.852 302.48V300.8L123.9 298.4H123.468L123.876 298.04C123.876 299 123.556 299.76 122.916 300.32C122.276 300.88 121.42 301.16 120.348 301.16C118.988 301.16 117.916 300.72 117.132 299.84C116.348 298.944 115.956 297.744 115.956 296.24V293.456C115.956 291.952 116.348 290.76 117.132 289.88C117.916 289 118.988 288.56 120.348 288.56C121.42 288.56 122.276 288.84 122.916 289.4C123.556 289.96 123.876 290.72 123.876 291.68L123.468 291.32H123.876V288.8H126.012V302.48C126.012 303.664 125.644 304.6 124.908 305.288C124.188 305.976 123.18 306.32 121.884 306.32H117.708ZM120.996 299.288C121.892 299.288 122.596 299.008 123.108 298.448C123.62 297.888 123.876 297.112 123.876 296.12V293.6C123.876 292.608 123.62 291.832 123.108 291.272C122.596 290.712 121.892 290.432 120.996 290.432C120.084 290.432 119.372 290.704 118.86 291.248C118.364 291.792 118.116 292.576 118.116 293.6V296.12C118.116 297.144 118.364 297.928 118.86 298.472C119.372 299.016 120.084 299.288 120.996 299.288ZM135.434 302.24C134.394 302.24 133.482 302.032 132.698 301.616C131.93 301.2 131.33 300.616 130.898 299.864C130.482 299.096 130.274 298.208 130.274 297.2V293.6C130.274 292.576 130.482 291.688 130.898 290.936C131.33 290.184 131.93 289.6 132.698 289.184C133.482 288.768 134.394 288.56 135.434 288.56C136.474 288.56 137.378 288.768 138.146 289.184C138.93 289.6 139.53 290.184 139.946 290.936C140.378 291.688 140.594 292.576 140.594 293.6V295.928H132.386V297.2C132.386 298.24 132.65 299.04 133.178 299.6C133.706 300.144 134.458 300.416 135.434 300.416C136.266 300.416 136.938 300.272 137.45 299.984C137.962 299.68 138.274 299.232 138.386 298.64H140.546C140.402 299.744 139.858 300.624 138.914 301.28C137.986 301.92 136.826 302.24 135.434 302.24ZM138.482 294.488V293.6C138.482 292.56 138.218 291.76 137.69 291.2C137.178 290.64 136.426 290.36 135.434 290.36C134.458 290.36 133.706 290.64 133.178 291.2C132.65 291.76 132.386 292.56 132.386 293.6V294.296H138.65L138.482 294.488ZM180.166 291.68L179.878 286.64V284.48H182.206V286.64L181.942 291.68H180.166ZM175.294 291.68L175.006 286.64V284.48H177.334V286.64L177.07 291.68H175.294Z" fill="#658B1F"/>
</svg>
