<svg width="541" height="514" viewBox="0 0 541 514" fill="none" xmlns="http://www.w3.org/2000/svg">
<g clip-path="url(#clip0_652_147)">
<rect width="541" height="514" rx="10" fill="#F8F9FB"/>
<rect x="0.25" y="0.25" width="540.5" height="513.5" rx="9.75" stroke="black" stroke-opacity="0.3" stroke-width="0.5"/>
<path d="M45.796 187.74C44.74 187.74 43.812 187.54 43.012 187.14C42.228 186.74 41.62 186.164 41.188 185.412C40.756 184.644 40.54 183.74 40.54 182.7V179.1C40.54 178.044 40.756 177.14 41.188 176.388C41.62 175.636 42.228 175.06 43.012 174.66C43.812 174.26 44.74 174.06 45.796 174.06C47.316 174.06 48.54 174.468 49.468 175.284C50.396 176.1 50.884 177.212 50.932 178.62H48.772C48.724 177.772 48.436 177.124 47.908 176.676C47.396 176.212 46.692 175.98 45.796 175.98C44.852 175.98 44.1 176.252 43.54 176.796C42.98 177.324 42.7 178.084 42.7 179.076V182.7C42.7 183.692 42.98 184.46 43.54 185.004C44.1 185.548 44.852 185.82 45.796 185.82C46.692 185.82 47.396 185.588 47.908 185.124C48.436 184.66 48.724 184.012 48.772 183.18H50.932C50.884 184.588 50.396 185.7 49.468 186.516C48.54 187.332 47.316 187.74 45.796 187.74ZM61.8906 187.5C61.1226 187.5 60.4506 187.348 59.8746 187.044C59.2986 186.74 58.8506 186.308 58.5306 185.748C58.2106 185.188 58.0506 184.532 58.0506 183.78V171.948H53.6106V169.98H60.2106V183.78C60.2106 184.324 60.3626 184.756 60.6666 185.076C60.9706 185.38 61.3786 185.532 61.8906 185.532H66.0906V187.5H61.8906ZM73.3293 187.74C71.9373 187.74 70.8413 187.388 70.0413 186.684C69.2413 185.964 68.8413 184.996 68.8413 183.78C68.8413 182.548 69.2413 181.58 70.0413 180.876C70.8413 180.172 71.9213 179.82 73.2812 179.82H77.3613V178.5C77.3613 177.684 77.1133 177.06 76.6173 176.628C76.1373 176.18 75.4493 175.956 74.5533 175.956C73.7693 175.956 73.1133 176.124 72.5853 176.46C72.0573 176.78 71.7533 177.22 71.6733 177.78H69.5133C69.6573 176.644 70.1933 175.74 71.1213 175.068C72.0493 174.396 73.2093 174.06 74.6013 174.06C76.1213 174.06 77.3213 174.452 78.2013 175.236C79.0813 176.02 79.5213 177.084 79.5213 178.428V187.5H77.4093V184.98H77.0493L77.4093 184.62C77.4093 185.58 77.0333 186.34 76.2813 186.9C75.5453 187.46 74.5613 187.74 73.3293 187.74ZM73.8573 186.036C74.8813 186.036 75.7213 185.78 76.3773 185.268C77.0333 184.756 77.3613 184.1 77.3613 183.3V181.428H73.3293C72.6093 181.428 72.0413 181.628 71.6253 182.028C71.2093 182.428 71.0013 182.972 71.0013 183.66C71.0013 184.396 71.2493 184.98 71.7453 185.412C72.2573 185.828 72.9613 186.036 73.8573 186.036ZM88.4639 187.692C87.5679 187.692 86.7839 187.556 86.1119 187.284C85.4559 186.996 84.9279 186.596 84.5279 186.084C84.1439 185.572 83.9119 184.964 83.8319 184.26H85.9919C86.0879 184.724 86.3439 185.092 86.7599 185.364C87.1919 185.636 87.7599 185.772 88.4639 185.772H89.4719C90.3199 185.772 90.9519 185.604 91.3679 185.268C91.7839 184.916 91.9919 184.452 91.9919 183.876C91.9919 183.316 91.7999 182.876 91.4159 182.556C91.0479 182.22 90.4959 181.996 89.7599 181.884L87.9839 181.596C86.6879 181.372 85.7199 180.972 85.0799 180.396C84.4559 179.804 84.1439 178.948 84.1439 177.828C84.1439 176.644 84.5199 175.732 85.2719 175.092C86.0239 174.436 87.1519 174.108 88.6559 174.108H89.5679C90.8319 174.108 91.8479 174.404 92.6159 174.996C93.3839 175.588 93.8479 176.388 94.0079 177.396H91.8479C91.7519 176.98 91.5119 176.652 91.1279 176.412C90.7439 176.156 90.2239 176.028 89.5679 176.028H88.6559C87.8399 176.028 87.2399 176.18 86.8559 176.484C86.4879 176.788 86.3039 177.244 86.3039 177.852C86.3039 178.396 86.4639 178.796 86.7839 179.052C87.1039 179.308 87.6079 179.492 88.2959 179.604L90.0719 179.892C91.4959 180.116 92.5279 180.532 93.1679 181.14C93.8239 181.748 94.1519 182.628 94.1519 183.78C94.1519 184.996 93.7599 185.956 92.9759 186.66C92.2079 187.348 91.0399 187.692 89.4719 187.692H88.4639ZM102.855 187.692C101.959 187.692 101.175 187.556 100.503 187.284C99.8465 186.996 99.3185 186.596 98.9185 186.084C98.5345 185.572 98.3025 184.964 98.2225 184.26H100.383C100.479 184.724 100.735 185.092 101.151 185.364C101.583 185.636 102.151 185.772 102.855 185.772H103.863C104.711 185.772 105.343 185.604 105.759 185.268C106.175 184.916 106.383 184.452 106.383 183.876C106.383 183.316 106.191 182.876 105.807 182.556C105.439 182.22 104.887 181.996 104.151 181.884L102.375 181.596C101.079 181.372 100.111 180.972 99.4705 180.396C98.8465 179.804 98.5345 178.948 98.5345 177.828C98.5345 176.644 98.9105 175.732 99.6625 175.092C100.415 174.436 101.543 174.108 103.047 174.108H103.959C105.223 174.108 106.239 174.404 107.007 174.996C107.775 175.588 108.239 176.388 108.398 177.396H106.239C106.143 176.98 105.903 176.652 105.519 176.412C105.135 176.156 104.615 176.028 103.959 176.028H103.047C102.231 176.028 101.631 176.18 101.247 176.484C100.879 176.788 100.695 177.244 100.695 177.852C100.695 178.396 100.855 178.796 101.175 179.052C101.495 179.308 101.999 179.492 102.687 179.604L104.463 179.892C105.887 180.116 106.919 180.532 107.559 181.14C108.215 181.748 108.543 182.628 108.543 183.78C108.543 184.996 108.151 185.956 107.367 186.66C106.599 187.348 105.431 187.692 103.863 187.692H102.855ZM43.34 344.5V335.414H39.82V333.61H43.34V331.52C43.34 330.567 43.6407 329.819 44.242 329.276C44.8433 328.719 45.672 328.44 46.728 328.44H50.27V330.244H46.728C46.2733 330.244 45.9213 330.354 45.672 330.574C45.4373 330.779 45.32 331.095 45.32 331.52V333.61H50.27V335.414H45.32V344.5H43.34ZM58.2694 344.72C56.8761 344.72 55.7614 344.309 54.9254 343.488C54.0894 342.652 53.6714 341.523 53.6714 340.1V332.4H55.6514V340.1C55.6514 341.009 55.8861 341.721 56.3554 342.234C56.8247 342.733 57.4627 342.982 58.2694 342.982C59.0907 342.982 59.7361 342.733 60.2054 342.234C60.6894 341.721 60.9314 341.009 60.9314 340.1V332.4H62.9114V340.1C62.9114 341.523 62.4861 342.652 61.6354 343.488C60.7847 344.309 59.6627 344.72 58.2694 344.72ZM66.9068 344.5V332.4H68.8868V334.71H69.3048L68.8868 335.172C68.8868 334.219 69.1728 333.485 69.7448 332.972C70.3168 332.444 71.1088 332.18 72.1208 332.18C73.3381 332.18 74.3061 332.554 75.0248 333.302C75.7435 334.05 76.1028 335.069 76.1028 336.36V344.5H74.1228V336.58C74.1228 335.715 73.8881 335.055 73.4188 334.6C72.9641 334.131 72.3408 333.896 71.5488 333.896C70.7275 333.896 70.0748 334.145 69.5908 334.644C69.1215 335.143 68.8868 335.861 68.8868 336.8V344.5H66.9068ZM84.7622 344.72C83.7942 344.72 82.9436 344.537 82.2102 344.17C81.4916 343.803 80.9342 343.275 80.5382 342.586C80.1422 341.882 79.9442 341.053 79.9442 340.1V336.8C79.9442 335.832 80.1422 335.003 80.5382 334.314C80.9342 333.625 81.4916 333.097 82.2102 332.73C82.9436 332.363 83.7942 332.18 84.7622 332.18C86.1556 332.18 87.2776 332.554 88.1282 333.302C88.9789 334.05 89.4262 335.069 89.4702 336.36H87.4902C87.4462 335.583 87.1822 334.989 86.6982 334.578C86.2289 334.153 85.5836 333.94 84.7622 333.94C83.8969 333.94 83.2076 334.189 82.6942 334.688C82.1809 335.172 81.9242 335.869 81.9242 336.778V340.1C81.9242 341.009 82.1809 341.713 82.6942 342.212C83.2076 342.711 83.8969 342.96 84.7622 342.96C85.5836 342.96 86.2289 342.747 86.6982 342.322C87.1822 341.897 87.4462 341.303 87.4902 340.54H89.4702C89.4262 341.831 88.9789 342.85 88.1282 343.598C87.2776 344.346 86.1556 344.72 84.7622 344.72ZM99.1856 344.5C98.1443 344.5 97.3303 344.221 96.7436 343.664C96.1716 343.107 95.8856 342.322 95.8856 341.31V334.204H92.4756V332.4H95.8856V328.99H97.8656V332.4H102.706V334.204H97.8656V341.31C97.8656 342.234 98.3056 342.696 99.1856 342.696H102.486V344.5H99.1856ZM106.327 344.5V342.696H110.617V334.204H106.877V332.4H112.597V342.696H116.667V344.5H106.327ZM111.387 330.222C110.903 330.222 110.522 330.097 110.243 329.848C109.964 329.599 109.825 329.261 109.825 328.836C109.825 328.396 109.964 328.051 110.243 327.802C110.522 327.538 110.903 327.406 111.387 327.406C111.871 327.406 112.252 327.538 112.531 327.802C112.81 328.051 112.949 328.396 112.949 328.836C112.949 329.261 112.81 329.599 112.531 329.848C112.252 330.097 111.871 330.222 111.387 330.222ZM124.248 344.676C123.28 344.676 122.444 344.493 121.74 344.126C121.036 343.759 120.486 343.231 120.09 342.542C119.709 341.838 119.518 341.009 119.518 340.056V336.844C119.518 335.876 119.709 335.047 120.09 334.358C120.486 333.669 121.036 333.141 121.74 332.774C122.444 332.407 123.28 332.224 124.248 332.224C125.216 332.224 126.052 332.407 126.756 332.774C127.46 333.141 128.003 333.669 128.384 334.358C128.78 335.047 128.978 335.869 128.978 336.822V340.056C128.978 341.009 128.78 341.838 128.384 342.542C128.003 343.231 127.46 343.759 126.756 344.126C126.052 344.493 125.216 344.676 124.248 344.676ZM124.248 342.916C125.114 342.916 125.788 342.674 126.272 342.19C126.756 341.706 126.998 340.995 126.998 340.056V336.844C126.998 335.905 126.756 335.194 126.272 334.71C125.788 334.226 125.114 333.984 124.248 333.984C123.398 333.984 122.723 334.226 122.224 334.71C121.74 335.194 121.498 335.905 121.498 336.844V340.056C121.498 340.995 121.74 341.706 122.224 342.19C122.723 342.674 123.398 342.916 124.248 342.916ZM132.864 344.5V332.4H134.844V334.71H135.262L134.844 335.172C134.844 334.219 135.13 333.485 135.702 332.972C136.274 332.444 137.066 332.18 138.078 332.18C139.295 332.18 140.263 332.554 140.982 333.302C141.701 334.05 142.06 335.069 142.06 336.36V344.5H140.08V336.58C140.08 335.715 139.845 335.055 139.376 334.6C138.921 334.131 138.298 333.896 137.506 333.896C136.685 333.896 136.032 334.145 135.548 334.644C135.079 335.143 134.844 335.861 134.844 336.8V344.5H132.864ZM359.23 330.75H361.562L366.644 337.24L361.54 343.73H359.23L363.41 338.472C363.454 338.413 363.498 338.355 363.542 338.296C363.6 338.237 363.652 338.179 363.696 338.12H343.764V336.36H363.696C363.637 336.287 363.578 336.213 363.52 336.14C363.461 336.067 363.395 335.993 363.322 335.92L359.23 330.75Z" fill="#C04780"/>
<path d="M251.249 190.14C250.305 190.14 249.489 189.98 248.801 189.66C248.129 189.356 247.617 188.9 247.265 188.292C246.913 187.7 246.761 186.988 246.809 186.156L247.049 182.22C247.097 181.372 246.969 180.764 246.665 180.396C246.361 180.012 245.689 179.82 244.649 179.82H242.009V177.9H244.649C245.689 177.9 246.361 177.716 246.665 177.348C246.969 176.964 247.097 176.348 247.049 175.5L246.809 171.564C246.761 170.716 246.913 169.996 247.265 169.404C247.617 168.812 248.129 168.364 248.801 168.06C249.489 167.74 250.305 167.58 251.249 167.58H252.329V169.5H251.249C250.497 169.5 249.921 169.676 249.521 170.028C249.121 170.364 248.937 170.876 248.969 171.564L249.209 175.5C249.273 176.54 249.025 177.372 248.465 177.996C247.905 178.604 247.113 178.908 246.089 178.908V178.788C247.097 178.788 247.881 179.1 248.441 179.724C249.017 180.348 249.273 181.18 249.209 182.22L248.969 186.156C248.937 186.844 249.121 187.356 249.521 187.692C249.921 188.044 250.497 188.22 251.249 188.22H252.329V190.14H251.249ZM69.4893 219.5V206.3H71.6493V208.82H72.1053L71.6493 209.324C71.6493 208.284 71.9613 207.484 72.5853 206.924C73.2093 206.348 74.0733 206.06 75.1773 206.06C76.5053 206.06 77.5613 206.468 78.3453 207.284C79.1293 208.1 79.5213 209.212 79.5213 210.62V219.5H77.3613V210.86C77.3613 209.916 77.1053 209.196 76.5933 208.7C76.0973 208.188 75.4173 207.932 74.5533 207.932C73.6573 207.932 72.9453 208.204 72.4173 208.748C71.9053 209.292 71.6493 210.076 71.6493 211.1V219.5H69.4893ZM87.7199 219.74C86.3279 219.74 85.2319 219.388 84.4319 218.684C83.6319 217.964 83.2319 216.996 83.2319 215.78C83.2319 214.548 83.6319 213.58 84.4319 212.876C85.2319 212.172 86.3119 211.82 87.6719 211.82H91.7519V210.5C91.7519 209.684 91.5039 209.06 91.0079 208.628C90.5279 208.18 89.8399 207.956 88.9439 207.956C88.1599 207.956 87.5039 208.124 86.9759 208.46C86.4479 208.78 86.1439 209.22 86.0639 209.78H83.9039C84.0479 208.644 84.5839 207.74 85.5119 207.068C86.4399 206.396 87.5999 206.06 88.9919 206.06C90.5119 206.06 91.7119 206.452 92.5919 207.236C93.4719 208.02 93.9119 209.084 93.9119 210.428V219.5H91.7999V216.98H91.4399L91.7999 216.62C91.7999 217.58 91.4239 218.34 90.6719 218.9C89.9359 219.46 88.9519 219.74 87.7199 219.74ZM88.2479 218.036C89.2719 218.036 90.1119 217.78 90.7679 217.268C91.4239 216.756 91.7519 216.1 91.7519 215.3V213.428H87.7199C86.9999 213.428 86.4319 213.628 86.0159 214.028C85.5999 214.428 85.3919 214.972 85.3919 215.66C85.3919 216.396 85.6399 216.98 86.1359 217.412C86.6479 217.828 87.3519 218.036 88.2479 218.036ZM97.6465 219.5V206.3H99.5425V207.884H99.9745L99.6385 208.46C99.6385 207.724 99.8305 207.14 100.215 206.708C100.615 206.276 101.151 206.06 101.823 206.06C102.559 206.06 103.127 206.332 103.527 206.876C103.927 207.42 104.127 208.188 104.127 209.18L103.479 207.884H104.487L104.031 208.46C104.031 207.724 104.231 207.14 104.631 206.708C105.047 206.276 105.591 206.06 106.263 206.06C107.095 206.06 107.735 206.372 108.182 206.996C108.647 207.62 108.879 208.444 108.879 209.468V219.5H106.887V209.444C106.887 208.9 106.767 208.476 106.527 208.172C106.303 207.868 105.967 207.716 105.519 207.716C105.087 207.716 104.743 207.868 104.487 208.172C104.247 208.46 104.127 208.876 104.127 209.42V219.5H102.398V209.444C102.398 208.884 102.271 208.46 102.015 208.172C101.775 207.868 101.431 207.716 100.983 207.716C100.535 207.716 100.199 207.868 99.9745 208.172C99.7505 208.46 99.6385 208.876 99.6385 209.42V219.5H97.6465ZM117.653 219.74C116.613 219.74 115.701 219.532 114.917 219.116C114.149 218.7 113.549 218.116 113.117 217.364C112.701 216.596 112.493 215.708 112.493 214.7V211.1C112.493 210.076 112.701 209.188 113.117 208.436C113.549 207.684 114.149 207.1 114.917 206.684C115.701 206.268 116.613 206.06 117.653 206.06C118.693 206.06 119.597 206.268 120.365 206.684C121.149 207.1 121.749 207.684 122.165 208.436C122.597 209.188 122.813 210.076 122.813 211.1V213.428H114.605V214.7C114.605 215.74 114.869 216.54 115.397 217.1C115.925 217.644 116.677 217.916 117.653 217.916C118.485 217.916 119.157 217.772 119.669 217.484C120.181 217.18 120.493 216.732 120.605 216.14H122.765C122.621 217.244 122.077 218.124 121.133 218.78C120.205 219.42 119.045 219.74 117.653 219.74ZM120.701 211.988V211.1C120.701 210.06 120.437 209.26 119.909 208.7C119.397 208.14 118.645 207.86 117.653 207.86C116.677 207.86 115.925 208.14 115.397 208.7C114.869 209.26 114.605 210.06 114.605 211.1V211.796H120.869L120.701 211.988ZM69.4893 255.82V238.3H71.6493V240.82H72.0813L71.6493 241.324C71.6493 240.316 71.9773 239.524 72.6333 238.948C73.3053 238.356 74.1853 238.06 75.2733 238.06C76.6013 238.06 77.6573 238.5 78.4413 239.38C79.2413 240.244 79.6413 241.436 79.6413 242.956V246.82C79.6413 247.828 79.4573 248.7 79.0893 249.436C78.7373 250.172 78.2333 250.74 77.5773 251.14C76.9373 251.54 76.1693 251.74 75.2733 251.74C74.2013 251.74 73.3293 251.444 72.6573 250.852C71.9853 250.26 71.6493 249.468 71.6493 248.476L72.0813 248.98H71.6013L71.6493 251.98V255.82H69.4893ZM74.5533 249.868C75.4653 249.868 76.1773 249.596 76.6893 249.052C77.2173 248.508 77.4813 247.724 77.4813 246.7V243.1C77.4813 242.076 77.2173 241.292 76.6893 240.748C76.1773 240.204 75.4653 239.932 74.5533 239.932C73.6733 239.932 72.9693 240.212 72.4413 240.772C71.9133 241.332 71.6493 242.108 71.6493 243.1V246.7C71.6493 247.692 71.9133 248.468 72.4413 249.028C72.9693 249.588 73.6733 249.868 74.5533 249.868ZM84.3359 251.5V238.3H86.4479V240.82H86.9519L86.2559 242.38C86.2559 240.956 86.5599 239.884 87.1679 239.164C87.7919 238.428 88.7119 238.06 89.9279 238.06C91.3199 238.06 92.4239 238.5 93.2399 239.38C94.0719 240.244 94.4879 241.42 94.4879 242.908V243.7H92.3279V243.1C92.3279 242.06 92.0719 241.268 91.5599 240.724C91.0639 240.164 90.3519 239.884 89.4239 239.884C88.5119 239.884 87.7919 240.164 87.2639 240.724C86.7519 241.284 86.4959 242.076 86.4959 243.1V251.5H84.3359ZM98.1025 251.5V249.532H102.783V240.268H98.7025V238.3H104.943V249.532H109.383V251.5H98.1025ZM103.623 235.924C103.095 235.924 102.679 235.788 102.375 235.516C102.071 235.244 101.919 234.876 101.919 234.412C101.919 233.932 102.071 233.556 102.375 233.284C102.679 232.996 103.095 232.852 103.623 232.852C104.151 232.852 104.567 232.996 104.871 233.284C105.175 233.556 105.327 233.932 105.327 234.412C105.327 234.876 105.175 235.244 104.871 235.516C104.567 235.788 104.151 235.924 103.623 235.924ZM117.653 251.692C116.597 251.692 115.685 251.492 114.917 251.092C114.149 250.692 113.549 250.116 113.117 249.364C112.701 248.596 112.493 247.692 112.493 246.652V243.148C112.493 242.092 112.701 241.188 113.117 240.436C113.549 239.684 114.149 239.108 114.917 238.708C115.685 238.308 116.597 238.108 117.653 238.108C118.709 238.108 119.621 238.308 120.389 238.708C121.157 239.108 121.749 239.684 122.165 240.436C122.597 241.188 122.813 242.084 122.813 243.124V246.652C122.813 247.692 122.597 248.596 122.165 249.364C121.749 250.116 121.157 250.692 120.389 251.092C119.621 251.492 118.709 251.692 117.653 251.692ZM117.653 249.772C118.597 249.772 119.333 249.508 119.861 248.98C120.389 248.452 120.653 247.676 120.653 246.652V243.148C120.653 242.124 120.389 241.348 119.861 240.82C119.333 240.292 118.597 240.028 117.653 240.028C116.725 240.028 115.989 240.292 115.445 240.82C114.917 241.348 114.653 242.124 114.653 243.148V246.652C114.653 247.676 114.917 248.452 115.445 248.98C115.989 249.508 116.725 249.772 117.653 249.772ZM127.508 251.5V238.3H129.62V240.82H130.124L129.428 242.38C129.428 240.956 129.732 239.884 130.34 239.164C130.964 238.428 131.884 238.06 133.1 238.06C134.492 238.06 135.596 238.5 136.412 239.38C137.244 240.244 137.66 241.42 137.66 242.908V243.7H135.5V243.1C135.5 242.06 135.244 241.268 134.732 240.724C134.236 240.164 133.524 239.884 132.596 239.884C131.684 239.884 130.964 240.164 130.436 240.724C129.924 241.284 129.668 242.076 129.668 243.1V251.5H127.508ZM140.674 253.9V252.1H152.194V253.9H140.674ZM155.665 255.82V253.828H158.761C159.753 253.828 160.521 253.556 161.065 253.012C161.625 252.484 161.905 251.732 161.905 250.756V240.268H156.385V238.3H164.065V250.756C164.065 252.308 163.585 253.54 162.625 254.452C161.665 255.364 160.377 255.82 158.761 255.82H155.665ZM162.865 235.924C162.337 235.924 161.921 235.788 161.617 235.516C161.313 235.244 161.161 234.876 161.161 234.412C161.161 233.932 161.313 233.556 161.617 233.284C161.921 232.996 162.337 232.852 162.865 232.852C163.393 232.852 163.809 232.996 164.113 233.284C164.417 233.556 164.569 233.932 164.569 234.412C164.569 234.876 164.417 235.244 164.113 235.516C163.809 235.788 163.393 235.924 162.865 235.924ZM175.216 251.692C174.16 251.692 173.248 251.492 172.48 251.092C171.712 250.692 171.112 250.116 170.68 249.364C170.264 248.596 170.056 247.692 170.056 246.652V243.148C170.056 242.092 170.264 241.188 170.68 240.436C171.112 239.684 171.712 239.108 172.48 238.708C173.248 238.308 174.16 238.108 175.216 238.108C176.272 238.108 177.184 238.308 177.952 238.708C178.72 239.108 179.312 239.684 179.728 240.436C180.16 241.188 180.376 242.084 180.376 243.124V246.652C180.376 247.692 180.16 248.596 179.728 249.364C179.312 250.116 178.72 250.692 177.952 251.092C177.184 251.492 176.272 251.692 175.216 251.692ZM175.216 249.772C176.16 249.772 176.896 249.508 177.424 248.98C177.952 248.452 178.216 247.676 178.216 246.652V243.148C178.216 242.124 177.952 241.348 177.424 240.82C176.896 240.292 176.16 240.028 175.216 240.028C174.288 240.028 173.552 240.292 173.008 240.82C172.48 241.348 172.216 242.124 172.216 243.148V246.652C172.216 247.676 172.48 248.452 173.008 248.98C173.552 249.508 174.288 249.772 175.216 249.772ZM190.374 251.74C189.286 251.74 188.414 251.452 187.758 250.876C187.102 250.284 186.774 249.484 186.774 248.476L187.206 248.98H186.774V251.5H184.614V233.98H186.774V237.82L186.726 240.82H187.206L186.774 241.324C186.774 240.332 187.102 239.54 187.758 238.948C188.43 238.356 189.302 238.06 190.374 238.06C191.702 238.06 192.766 238.5 193.566 239.38C194.366 240.26 194.766 241.46 194.766 242.98V246.844C194.766 248.348 194.366 249.54 193.566 250.42C192.766 251.3 191.702 251.74 190.374 251.74ZM189.654 249.868C190.566 249.868 191.286 249.596 191.814 249.052C192.342 248.508 192.606 247.724 192.606 246.7V243.1C192.606 242.076 192.342 241.292 191.814 240.748C191.286 240.204 190.566 239.932 189.654 239.932C188.774 239.932 188.07 240.212 187.542 240.772C187.03 241.332 186.774 242.108 186.774 243.1V246.7C186.774 247.692 187.03 248.468 187.542 249.028C188.07 249.588 188.774 249.868 189.654 249.868ZM203.589 251.692C202.693 251.692 201.909 251.556 201.237 251.284C200.581 250.996 200.053 250.596 199.653 250.084C199.269 249.572 199.037 248.964 198.957 248.26H201.117C201.213 248.724 201.469 249.092 201.885 249.364C202.317 249.636 202.885 249.772 203.589 249.772H204.597C205.445 249.772 206.077 249.604 206.493 249.268C206.909 248.916 207.117 248.452 207.117 247.876C207.117 247.316 206.925 246.876 206.541 246.556C206.173 246.22 205.621 245.996 204.885 245.884L203.109 245.596C201.813 245.372 200.845 244.972 200.205 244.396C199.581 243.804 199.269 242.948 199.269 241.828C199.269 240.644 199.645 239.732 200.397 239.092C201.149 238.436 202.277 238.108 203.781 238.108H204.693C205.957 238.108 206.973 238.404 207.741 238.996C208.509 239.588 208.973 240.388 209.133 241.396H206.973C206.877 240.98 206.637 240.652 206.253 240.412C205.869 240.156 205.349 240.028 204.693 240.028H203.781C202.965 240.028 202.365 240.18 201.981 240.484C201.613 240.788 201.429 241.244 201.429 241.852C201.429 242.396 201.589 242.796 201.909 243.052C202.229 243.308 202.733 243.492 203.421 243.604L205.197 243.892C206.621 244.116 207.653 244.532 208.293 245.14C208.949 245.748 209.277 246.628 209.277 247.78C209.277 248.996 208.885 249.956 208.101 250.66C207.333 251.348 206.165 251.692 204.597 251.692H203.589ZM40.54 286.14V284.22H41.62C42.372 284.22 42.948 284.044 43.348 283.692C43.748 283.356 43.932 282.844 43.9 282.156L43.66 278.22C43.596 277.18 43.844 276.348 44.404 275.724C44.98 275.1 45.772 274.788 46.78 274.788V274.908C45.756 274.908 44.964 274.604 44.404 273.996C43.844 273.372 43.596 272.54 43.66 271.5L43.9 267.564C43.932 266.876 43.748 266.364 43.348 266.028C42.948 265.676 42.372 265.5 41.62 265.5H40.54V263.58H41.62C42.564 263.58 43.372 263.74 44.044 264.06C44.732 264.364 45.252 264.812 45.604 265.404C45.956 265.996 46.108 266.716 46.06 267.564L45.82 271.5C45.772 272.348 45.9 272.964 46.204 273.348C46.508 273.716 47.18 273.9 48.22 273.9H50.86V275.82H48.22C47.196 275.82 46.524 276.012 46.204 276.396C45.9 276.764 45.772 277.372 45.82 278.22L46.06 282.156C46.108 282.988 45.956 283.7 45.604 284.292C45.252 284.9 44.732 285.356 44.044 285.66C43.372 285.98 42.564 286.14 41.62 286.14H40.54ZM312.998 347.14C310.915 346.627 309.295 345.615 308.136 344.104C306.977 342.593 306.398 340.745 306.398 338.56V334.6C306.398 333.163 306.662 331.865 307.19 330.706C307.733 329.533 308.495 328.543 309.478 327.736C310.475 326.929 311.649 326.357 312.998 326.02V327.89C312.059 328.11 311.245 328.535 310.556 329.166C309.867 329.782 309.331 330.552 308.95 331.476C308.569 332.4 308.378 333.441 308.378 334.6V338.56C308.378 339.689 308.561 340.716 308.928 341.64C309.309 342.564 309.845 343.334 310.534 343.95C311.238 344.551 312.059 344.962 312.998 345.182V347.14ZM318.05 347.14V345.182C319.003 344.962 319.824 344.551 320.514 343.95C321.203 343.334 321.731 342.564 322.098 341.64C322.479 340.716 322.67 339.689 322.67 338.56V334.6C322.67 333.441 322.479 332.4 322.098 331.476C321.716 330.552 321.181 329.782 320.492 329.166C319.802 328.535 318.988 328.11 318.05 327.89V326.02C319.414 326.357 320.587 326.929 321.57 327.736C322.552 328.543 323.308 329.533 323.836 330.706C324.378 331.865 324.65 333.163 324.65 334.6V338.56C324.65 340.745 324.07 342.593 322.912 344.104C321.753 345.615 320.132 346.627 318.05 347.14Z" fill="#5D5D5D"/>
<path d="M126.764 187.5V169.98H137.66V172.764H129.716V177.444H137.036V180.228H129.764V187.5H126.764ZM146.434 187.716C145.314 187.716 144.338 187.508 143.506 187.092C142.69 186.66 142.05 186.06 141.586 185.292C141.138 184.508 140.914 183.588 140.914 182.532V179.268C140.914 178.212 141.138 177.3 141.586 176.532C142.05 175.748 142.69 175.148 143.506 174.732C144.338 174.3 145.314 174.084 146.434 174.084C147.57 174.084 148.546 174.3 149.362 174.732C150.178 175.148 150.81 175.748 151.258 176.532C151.722 177.3 151.954 178.204 151.954 179.244V182.532C151.954 183.588 151.722 184.508 151.258 185.292C150.81 186.06 150.178 186.66 149.362 187.092C148.546 187.508 147.57 187.716 146.434 187.716ZM146.434 185.1C147.234 185.1 147.85 184.884 148.282 184.452C148.73 184.004 148.954 183.364 148.954 182.532V179.268C148.954 178.42 148.73 177.78 148.282 177.348C147.85 176.916 147.234 176.7 146.434 176.7C145.65 176.7 145.034 176.916 144.586 177.348C144.138 177.78 143.914 178.42 143.914 179.268V182.532C143.914 183.364 144.138 184.004 144.586 184.452C145.034 184.884 145.65 185.1 146.434 185.1ZM160.825 187.74C159.145 187.74 157.825 187.276 156.865 186.348C155.905 185.404 155.425 184.124 155.425 182.508V174.3H158.425V182.484C158.425 183.332 158.633 183.988 159.049 184.452C159.465 184.9 160.057 185.124 160.825 185.124C161.577 185.124 162.161 184.9 162.577 184.452C163.009 183.988 163.225 183.332 163.225 182.484V174.3H166.225V182.508C166.225 184.124 165.737 185.404 164.761 186.348C163.785 187.276 162.473 187.74 160.825 187.74ZM169.864 187.5V174.3H172.792V176.82H173.608L172.792 177.516C172.792 176.428 173.104 175.58 173.728 174.972C174.368 174.364 175.24 174.06 176.344 174.06C177.64 174.06 178.672 174.492 179.44 175.356C180.224 176.22 180.616 177.38 180.616 178.836V187.5H177.616V179.148C177.616 178.348 177.408 177.732 176.992 177.3C176.576 176.868 175.992 176.652 175.24 176.652C174.504 176.652 173.92 176.876 173.488 177.324C173.072 177.772 172.864 178.412 172.864 179.244V187.5H169.864ZM188.478 187.74C187.166 187.74 186.102 187.284 185.286 186.372C184.486 185.46 184.086 184.236 184.086 182.7V179.124C184.086 177.572 184.486 176.34 185.286 175.428C186.086 174.516 187.15 174.06 188.478 174.06C189.566 174.06 190.43 174.372 191.07 174.996C191.71 175.604 192.03 176.444 192.03 177.516L191.358 176.82H192.054L191.958 173.676V169.98H194.958V187.5H192.03V184.98H191.358L192.03 184.284C192.03 185.356 191.71 186.204 191.07 186.828C190.43 187.436 189.566 187.74 188.478 187.74ZM189.534 185.148C190.302 185.148 190.894 184.924 191.31 184.476C191.742 184.012 191.958 183.372 191.958 182.556V179.244C191.958 178.428 191.742 177.796 191.31 177.348C190.894 176.884 190.302 176.652 189.534 176.652C188.766 176.652 188.166 176.876 187.734 177.324C187.302 177.772 187.086 178.412 187.086 179.244V182.556C187.086 183.388 187.302 184.028 187.734 184.476C188.166 184.924 188.766 185.148 189.534 185.148ZM204.021 187.74C202.901 187.74 201.925 187.524 201.093 187.092C200.261 186.66 199.613 186.06 199.149 185.292C198.701 184.508 198.477 183.596 198.477 182.556V179.244C198.477 178.204 198.701 177.3 199.149 176.532C199.613 175.748 200.261 175.14 201.093 174.708C201.925 174.276 202.901 174.06 204.021 174.06C205.125 174.06 206.085 174.276 206.901 174.708C207.733 175.14 208.373 175.748 208.821 176.532C209.285 177.3 209.517 178.204 209.517 179.244V181.62H201.381V182.556C201.381 183.484 201.605 184.188 202.053 184.668C202.501 185.132 203.165 185.364 204.045 185.364C204.717 185.364 205.261 185.252 205.677 185.028C206.093 184.788 206.357 184.444 206.469 183.996H209.421C209.197 185.132 208.589 186.044 207.597 186.732C206.621 187.404 205.429 187.74 204.021 187.74ZM206.613 179.94V179.22C206.613 178.308 206.397 177.612 205.965 177.132C205.533 176.636 204.885 176.388 204.021 176.388C203.157 176.388 202.501 176.636 202.053 177.132C201.605 177.628 201.381 178.332 201.381 179.244V179.748L206.829 179.7L206.613 179.94ZM213.444 187.5V174.3H216.276V176.82H217.02L216.132 178.356C216.132 176.932 216.452 175.86 217.092 175.14C217.732 174.42 218.676 174.06 219.924 174.06C221.348 174.06 222.468 174.5 223.284 175.38C224.1 176.26 224.508 177.476 224.508 179.028V179.988H221.364V179.244C221.364 178.396 221.14 177.74 220.692 177.276C220.26 176.812 219.66 176.58 218.892 176.58C218.108 176.58 217.5 176.812 217.068 177.276C216.652 177.74 216.444 178.396 216.444 179.244V187.5H213.444ZM145.93 219.716C144.922 219.716 144.042 219.556 143.29 219.236C142.538 218.916 141.946 218.476 141.514 217.916C141.098 217.34 140.874 216.668 140.842 215.9H143.842C143.874 216.316 144.074 216.652 144.442 216.908C144.826 217.164 145.322 217.292 145.93 217.292H146.986C147.722 217.292 148.274 217.148 148.642 216.86C149.01 216.572 149.194 216.18 149.194 215.684C149.194 215.22 149.026 214.86 148.69 214.604C148.37 214.332 147.866 214.156 147.178 214.076L145.546 213.836C144.042 213.628 142.938 213.228 142.234 212.636C141.53 212.044 141.178 211.156 141.178 209.972C141.178 208.74 141.594 207.788 142.426 207.116C143.258 206.428 144.482 206.084 146.098 206.084H147.01C148.482 206.084 149.658 206.412 150.538 207.068C151.418 207.724 151.89 208.604 151.954 209.708H148.954C148.906 209.356 148.706 209.068 148.354 208.844C148.018 208.62 147.57 208.508 147.01 208.508H146.098C145.41 208.508 144.906 208.636 144.586 208.892C144.282 209.132 144.13 209.492 144.13 209.972C144.13 210.42 144.266 210.756 144.538 210.98C144.81 211.188 145.25 211.34 145.858 211.436L147.562 211.676C149.13 211.9 150.282 212.324 151.018 212.948C151.77 213.556 152.146 214.46 152.146 215.66C152.146 216.94 151.706 217.94 150.826 218.66C149.962 219.364 148.682 219.716 146.986 219.716H145.93ZM162.265 219.5C161.001 219.5 160.009 219.148 159.289 218.444C158.585 217.74 158.233 216.772 158.233 215.54V209.012H154.657V206.3H158.233V202.58H161.257V206.3H166.321V209.012H161.257V215.54C161.257 216.372 161.665 216.788 162.481 216.788H166.081V219.5H162.265ZM170.272 219.5V206.3H173.104V208.82H173.848L172.96 210.356C172.96 208.932 173.28 207.86 173.92 207.14C174.56 206.42 175.504 206.06 176.752 206.06C178.176 206.06 179.296 206.5 180.112 207.38C180.928 208.26 181.336 209.476 181.336 211.028V211.988H178.192V211.244C178.192 210.396 177.968 209.74 177.52 209.276C177.088 208.812 176.488 208.58 175.72 208.58C174.936 208.58 174.328 208.812 173.896 209.276C173.48 209.74 173.272 210.396 173.272 211.244V219.5H170.272ZM184.23 219.5V216.764H188.838V209.012H184.83V206.3H191.718V216.764H195.798V219.5H184.23ZM190.038 204.092C189.43 204.092 188.95 203.94 188.598 203.636C188.246 203.316 188.07 202.892 188.07 202.364C188.07 201.836 188.246 201.42 188.598 201.116C188.95 200.796 189.43 200.636 190.038 200.636C190.646 200.636 191.126 200.796 191.478 201.116C191.83 201.42 192.006 201.836 192.006 202.364C192.006 202.892 191.83 203.316 191.478 203.636C191.126 203.94 190.646 204.092 190.038 204.092ZM198.645 219.5V206.3H201.573V208.82H202.389L201.573 209.516C201.573 208.428 201.885 207.58 202.509 206.972C203.149 206.364 204.021 206.06 205.125 206.06C206.421 206.06 207.453 206.492 208.221 207.356C209.005 208.22 209.397 209.38 209.397 210.836V219.5H206.397V211.148C206.397 210.348 206.189 209.732 205.773 209.3C205.357 208.868 204.773 208.652 204.021 208.652C203.285 208.652 202.701 208.876 202.269 209.324C201.853 209.772 201.645 210.412 201.645 211.244V219.5H198.645ZM214.836 223.82V221.324H218.748C219.42 221.324 219.924 221.156 220.26 220.82C220.596 220.5 220.764 220.036 220.764 219.428V218.444L220.812 215.972H220.164L220.812 215.324C220.812 216.396 220.492 217.236 219.852 217.844C219.228 218.436 218.38 218.732 217.308 218.732C215.964 218.732 214.892 218.276 214.092 217.364C213.308 216.452 212.916 215.22 212.916 213.668V211.1C212.916 209.564 213.308 208.34 214.092 207.428C214.892 206.516 215.964 206.06 217.308 206.06C218.38 206.06 219.228 206.364 219.852 206.972C220.492 207.564 220.812 208.396 220.812 209.468L220.164 208.82H220.812L220.74 206.3H223.74V219.5C223.74 220.828 223.3 221.876 222.42 222.644C221.54 223.428 220.332 223.82 218.796 223.82H214.836ZM218.316 216.14C219.084 216.14 219.676 215.916 220.092 215.468C220.524 215.004 220.74 214.364 220.74 213.548V211.244C220.74 210.428 220.524 209.796 220.092 209.348C219.676 208.884 219.084 208.652 218.316 208.652C217.548 208.652 216.956 208.876 216.54 209.324C216.124 209.772 215.916 210.412 215.916 211.244V213.548C215.916 214.38 216.124 215.02 216.54 215.468C216.956 215.916 217.548 216.14 218.316 216.14ZM232.274 251.716C231.266 251.716 230.386 251.556 229.634 251.236C228.882 250.916 228.29 250.476 227.858 249.916C227.442 249.34 227.218 248.668 227.186 247.9H230.186C230.218 248.316 230.418 248.652 230.786 248.908C231.17 249.164 231.666 249.292 232.274 249.292H233.33C234.066 249.292 234.618 249.148 234.986 248.86C235.354 248.572 235.538 248.18 235.538 247.684C235.538 247.22 235.37 246.86 235.034 246.604C234.714 246.332 234.21 246.156 233.522 246.076L231.89 245.836C230.386 245.628 229.282 245.228 228.578 244.636C227.874 244.044 227.522 243.156 227.522 241.972C227.522 240.74 227.938 239.788 228.77 239.116C229.602 238.428 230.826 238.084 232.442 238.084H233.354C234.826 238.084 236.002 238.412 236.882 239.068C237.762 239.724 238.234 240.604 238.298 241.708H235.298C235.25 241.356 235.05 241.068 234.698 240.844C234.362 240.62 233.914 240.508 233.354 240.508H232.442C231.754 240.508 231.25 240.636 230.93 240.892C230.626 241.132 230.474 241.492 230.474 241.972C230.474 242.42 230.61 242.756 230.882 242.98C231.154 243.188 231.594 243.34 232.202 243.436L233.906 243.676C235.474 243.9 236.626 244.324 237.362 244.948C238.114 245.556 238.49 246.46 238.49 247.66C238.49 248.94 238.05 249.94 237.17 250.66C236.306 251.364 235.026 251.716 233.33 251.716H232.274ZM248.609 251.5C247.345 251.5 246.353 251.148 245.633 250.444C244.929 249.74 244.577 248.772 244.577 247.54V241.012H241.001V238.3H244.577V234.58H247.601V238.3H252.665V241.012H247.601V247.54C247.601 248.372 248.009 248.788 248.825 248.788H252.425V251.5H248.609ZM256.615 251.5V238.3H259.447V240.82H260.191L259.303 242.356C259.303 240.932 259.623 239.86 260.263 239.14C260.903 238.42 261.847 238.06 263.095 238.06C264.519 238.06 265.639 238.5 266.455 239.38C267.271 240.26 267.679 241.476 267.679 243.028V243.988H264.535V243.244C264.535 242.396 264.311 241.74 263.863 241.276C263.431 240.812 262.831 240.58 262.063 240.58C261.279 240.58 260.671 240.812 260.239 241.276C259.823 241.74 259.615 242.396 259.615 243.244V251.5H256.615ZM270.574 251.5V248.764H275.182V241.012H271.174V238.3H278.062V248.764H282.142V251.5H270.574ZM276.382 236.092C275.774 236.092 275.294 235.94 274.942 235.636C274.59 235.316 274.414 234.892 274.414 234.364C274.414 233.836 274.59 233.42 274.942 233.116C275.294 232.796 275.774 232.636 276.382 232.636C276.99 232.636 277.47 232.796 277.822 233.116C278.174 233.42 278.35 233.836 278.35 234.364C278.35 234.892 278.174 235.316 277.822 235.636C277.47 235.94 276.99 236.092 276.382 236.092ZM284.989 251.5V238.3H287.917V240.82H288.733L287.917 241.516C287.917 240.428 288.229 239.58 288.853 238.972C289.493 238.364 290.365 238.06 291.469 238.06C292.765 238.06 293.797 238.492 294.565 239.356C295.349 240.22 295.741 241.38 295.741 242.836V251.5H292.741V243.148C292.741 242.348 292.533 241.732 292.117 241.3C291.701 240.868 291.117 240.652 290.365 240.652C289.629 240.652 289.045 240.876 288.613 241.324C288.197 241.772 287.989 242.412 287.989 243.244V251.5H284.989ZM301.179 255.82V253.324H305.091C305.763 253.324 306.267 253.156 306.603 252.82C306.939 252.5 307.107 252.036 307.107 251.428V250.444L307.155 247.972H306.507L307.155 247.324C307.155 248.396 306.835 249.236 306.195 249.844C305.571 250.436 304.723 250.732 303.651 250.732C302.307 250.732 301.235 250.276 300.435 249.364C299.651 248.452 299.259 247.22 299.259 245.668V243.1C299.259 241.564 299.651 240.34 300.435 239.428C301.235 238.516 302.307 238.06 303.651 238.06C304.723 238.06 305.571 238.364 306.195 238.972C306.835 239.564 307.155 240.396 307.155 241.468L306.507 240.82H307.155L307.083 238.3H310.083V251.5C310.083 252.828 309.643 253.876 308.763 254.644C307.883 255.428 306.675 255.82 305.139 255.82H301.179ZM304.659 248.14C305.427 248.14 306.019 247.916 306.435 247.468C306.867 247.004 307.083 246.364 307.083 245.548V243.244C307.083 242.428 306.867 241.796 306.435 241.348C306.019 240.884 305.427 240.652 304.659 240.652C303.891 240.652 303.299 240.876 302.883 241.324C302.467 241.772 302.259 242.412 302.259 243.244V245.548C302.259 246.38 302.467 247.02 302.883 247.468C303.299 247.916 303.891 248.14 304.659 248.14ZM316.362 254.14V231.58H323.082V234.34H319.362V251.38H323.082V254.14H316.362ZM329.553 254.14V251.38H333.273V234.34H329.553V231.58H336.273V254.14H329.553ZM163.911 344.72C162.884 344.72 161.982 344.529 161.205 344.148C160.442 343.752 159.848 343.202 159.423 342.498C159.012 341.779 158.807 340.936 158.807 339.968V332.972C158.807 331.989 159.012 331.146 159.423 330.442C159.848 329.738 160.442 329.195 161.205 328.814C161.982 328.418 162.884 328.22 163.911 328.22C164.952 328.22 165.847 328.418 166.595 328.814C167.357 329.195 167.951 329.738 168.377 330.442C168.802 331.146 169.015 331.989 169.015 332.972H166.243C166.243 332.209 166.037 331.63 165.627 331.234C165.231 330.838 164.659 330.64 163.911 330.64C163.163 330.64 162.583 330.838 162.173 331.234C161.762 331.63 161.557 332.202 161.557 332.95V339.968C161.557 340.716 161.762 341.295 162.173 341.706C162.583 342.117 163.163 342.322 163.911 342.322C164.659 342.322 165.231 342.117 165.627 341.706C166.037 341.295 166.243 340.716 166.243 339.968V338.34H163.515V335.964H169.015V339.968C169.015 340.936 168.802 341.779 168.377 342.498C167.951 343.202 167.357 343.752 166.595 344.148C165.847 344.529 164.952 344.72 163.911 344.72ZM177.036 344.72C176.009 344.72 175.115 344.522 174.352 344.126C173.589 343.73 172.995 343.18 172.57 342.476C172.159 341.757 171.954 340.921 171.954 339.968V336.932C171.954 335.979 172.159 335.15 172.57 334.446C172.995 333.727 173.589 333.17 174.352 332.774C175.115 332.378 176.009 332.18 177.036 332.18C178.048 332.18 178.928 332.378 179.676 332.774C180.439 333.17 181.025 333.727 181.436 334.446C181.861 335.15 182.074 335.979 182.074 336.932V339.11H174.616V339.968C174.616 340.819 174.821 341.464 175.232 341.904C175.643 342.329 176.251 342.542 177.058 342.542C177.674 342.542 178.173 342.439 178.554 342.234C178.935 342.014 179.177 341.699 179.28 341.288H181.986C181.781 342.329 181.223 343.165 180.314 343.796C179.419 344.412 178.327 344.72 177.036 344.72ZM179.412 337.57V336.91C179.412 336.074 179.214 335.436 178.818 334.996C178.422 334.541 177.828 334.314 177.036 334.314C176.244 334.314 175.643 334.541 175.232 334.996C174.821 335.451 174.616 336.096 174.616 336.932V337.394L179.61 337.35L179.412 337.57ZM191.525 344.5C190.367 344.5 189.457 344.177 188.797 343.532C188.152 342.887 187.829 341.999 187.829 340.87V334.886H184.551V332.4H187.829V328.99H190.601V332.4H195.243V334.886H190.601V340.87C190.601 341.633 190.975 342.014 191.723 342.014H195.023V344.5H191.525ZM198.557 344.5V328.44H208.545V330.992H201.263V335.282H207.973V337.834H201.307V344.5H198.557ZM216.588 344.698C215.562 344.698 214.667 344.507 213.904 344.126C213.156 343.73 212.57 343.18 212.144 342.476C211.734 341.757 211.528 340.914 211.528 339.946V336.954C211.528 335.986 211.734 335.15 212.144 334.446C212.57 333.727 213.156 333.177 213.904 332.796C214.667 332.4 215.562 332.202 216.588 332.202C217.63 332.202 218.524 332.4 219.272 332.796C220.02 333.177 220.6 333.727 221.01 334.446C221.436 335.15 221.648 335.979 221.648 336.932V339.946C221.648 340.914 221.436 341.757 221.01 342.476C220.6 343.18 220.02 343.73 219.272 344.126C218.524 344.507 217.63 344.698 216.588 344.698ZM216.588 342.3C217.322 342.3 217.886 342.102 218.282 341.706C218.693 341.295 218.898 340.709 218.898 339.946V336.954C218.898 336.177 218.693 335.59 218.282 335.194C217.886 334.798 217.322 334.6 216.588 334.6C215.87 334.6 215.305 334.798 214.894 335.194C214.484 335.59 214.278 336.177 214.278 336.954V339.946C214.278 340.709 214.484 341.295 214.894 341.706C215.305 342.102 215.87 342.3 216.588 342.3ZM229.78 344.72C228.24 344.72 227.03 344.295 226.15 343.444C225.27 342.579 224.83 341.405 224.83 339.924V332.4H227.58V339.902C227.58 340.679 227.77 341.281 228.152 341.706C228.533 342.117 229.076 342.322 229.78 342.322C230.469 342.322 231.004 342.117 231.386 341.706C231.782 341.281 231.98 340.679 231.98 339.902V332.4H234.73V339.924C234.73 341.405 234.282 342.579 233.388 343.444C232.493 344.295 231.29 344.72 229.78 344.72ZM238.065 344.5V332.4H240.749V334.71H241.497L240.749 335.348C240.749 334.351 241.035 333.573 241.607 333.016C242.194 332.459 242.993 332.18 244.005 332.18C245.193 332.18 246.139 332.576 246.843 333.368C247.562 334.16 247.921 335.223 247.921 336.558V344.5H245.171V336.844C245.171 336.111 244.98 335.546 244.599 335.15C244.218 334.754 243.682 334.556 242.993 334.556C242.318 334.556 241.783 334.761 241.387 335.172C241.006 335.583 240.815 336.169 240.815 336.932V344.5H238.065ZM255.129 344.72C253.926 344.72 252.951 344.302 252.203 343.466C251.469 342.63 251.103 341.508 251.103 340.1V336.822C251.103 335.399 251.469 334.27 252.203 333.434C252.936 332.598 253.911 332.18 255.129 332.18C256.126 332.18 256.918 332.466 257.505 333.038C258.091 333.595 258.385 334.365 258.385 335.348L257.769 334.71H258.407L258.319 331.828V328.44H261.069V344.5H258.385V342.19H257.769L258.385 341.552C258.385 342.535 258.091 343.312 257.505 343.884C256.918 344.441 256.126 344.72 255.129 344.72ZM256.097 342.344C256.801 342.344 257.343 342.139 257.725 341.728C258.121 341.303 258.319 340.716 258.319 339.968V336.932C258.319 336.184 258.121 335.605 257.725 335.194C257.343 334.769 256.801 334.556 256.097 334.556C255.393 334.556 254.843 334.761 254.447 335.172C254.051 335.583 253.853 336.169 253.853 336.932V339.968C253.853 340.731 254.051 341.317 254.447 341.728C254.843 342.139 255.393 342.344 256.097 342.344ZM269.376 344.72C268.349 344.72 267.455 344.522 266.692 344.126C265.929 343.73 265.335 343.18 264.91 342.476C264.499 341.757 264.294 340.921 264.294 339.968V336.932C264.294 335.979 264.499 335.15 264.91 334.446C265.335 333.727 265.929 333.17 266.692 332.774C267.455 332.378 268.349 332.18 269.376 332.18C270.388 332.18 271.268 332.378 272.016 332.774C272.779 333.17 273.365 333.727 273.776 334.446C274.201 335.15 274.414 335.979 274.414 336.932V339.11H266.956V339.968C266.956 340.819 267.161 341.464 267.572 341.904C267.983 342.329 268.591 342.542 269.398 342.542C270.014 342.542 270.513 342.439 270.894 342.234C271.275 342.014 271.517 341.699 271.62 341.288H274.326C274.121 342.329 273.563 343.165 272.654 343.796C271.759 344.412 270.667 344.72 269.376 344.72ZM271.752 337.57V336.91C271.752 336.074 271.554 335.436 271.158 334.996C270.762 334.541 270.168 334.314 269.376 334.314C268.584 334.314 267.983 334.541 267.572 334.996C267.161 335.451 266.956 336.096 266.956 336.932V337.394L271.95 337.35L271.752 337.57ZM278.013 344.5V332.4H280.609V334.71H281.291L280.477 336.118C280.477 334.813 280.771 333.83 281.357 333.17C281.944 332.51 282.809 332.18 283.953 332.18C285.259 332.18 286.285 332.583 287.033 333.39C287.781 334.197 288.155 335.311 288.155 336.734V337.614H285.273V336.932C285.273 336.155 285.068 335.553 284.657 335.128C284.261 334.703 283.711 334.49 283.007 334.49C282.289 334.49 281.731 334.703 281.335 335.128C280.954 335.553 280.763 336.155 280.763 336.932V344.5H278.013ZM295.275 344.698C294.351 344.698 293.544 344.551 292.855 344.258C292.165 343.965 291.623 343.561 291.227 343.048C290.845 342.52 290.64 341.904 290.611 341.2H293.361C293.39 341.581 293.573 341.889 293.911 342.124C294.263 342.359 294.717 342.476 295.275 342.476H296.243C296.917 342.476 297.423 342.344 297.761 342.08C298.098 341.816 298.267 341.457 298.267 341.002C298.267 340.577 298.113 340.247 297.805 340.012C297.511 339.763 297.049 339.601 296.419 339.528L294.923 339.308C293.544 339.117 292.532 338.751 291.887 338.208C291.241 337.665 290.919 336.851 290.919 335.766C290.919 334.637 291.3 333.764 292.063 333.148C292.825 332.517 293.947 332.202 295.429 332.202H296.265C297.614 332.202 298.692 332.503 299.499 333.104C300.305 333.705 300.738 334.512 300.797 335.524H298.047C298.003 335.201 297.819 334.937 297.497 334.732C297.189 334.527 296.778 334.424 296.265 334.424H295.429C294.798 334.424 294.336 334.541 294.043 334.776C293.764 334.996 293.625 335.326 293.625 335.766C293.625 336.177 293.749 336.485 293.999 336.69C294.248 336.881 294.651 337.02 295.209 337.108L296.771 337.328C298.208 337.533 299.264 337.922 299.939 338.494C300.628 339.051 300.973 339.88 300.973 340.98C300.973 342.153 300.569 343.07 299.763 343.73C298.971 344.375 297.797 344.698 296.243 344.698H295.275ZM383.237 344.5V328.44H393.225V330.992H385.943V335.282H392.653V337.834H385.987V344.5H383.237ZM401.268 344.698C400.241 344.698 399.347 344.507 398.584 344.126C397.836 343.73 397.249 343.18 396.824 342.476C396.413 341.757 396.208 340.914 396.208 339.946V336.954C396.208 335.986 396.413 335.15 396.824 334.446C397.249 333.727 397.836 333.177 398.584 332.796C399.347 332.4 400.241 332.202 401.268 332.202C402.309 332.202 403.204 332.4 403.952 332.796C404.7 333.177 405.279 333.727 405.69 334.446C406.115 335.15 406.328 335.979 406.328 336.932V339.946C406.328 340.914 406.115 341.757 405.69 342.476C405.279 343.18 404.7 343.73 403.952 344.126C403.204 344.507 402.309 344.698 401.268 344.698ZM401.268 342.3C402.001 342.3 402.566 342.102 402.962 341.706C403.373 341.295 403.578 340.709 403.578 339.946V336.954C403.578 336.177 403.373 335.59 402.962 335.194C402.566 334.798 402.001 334.6 401.268 334.6C400.549 334.6 399.985 334.798 399.574 335.194C399.163 335.59 398.958 336.177 398.958 336.954V339.946C398.958 340.709 399.163 341.295 399.574 341.706C399.985 342.102 400.549 342.3 401.268 342.3ZM414.459 344.72C412.919 344.72 411.709 344.295 410.829 343.444C409.949 342.579 409.509 341.405 409.509 339.924V332.4H412.259V339.902C412.259 340.679 412.45 341.281 412.831 341.706C413.213 342.117 413.755 342.322 414.459 342.322C415.149 342.322 415.684 342.117 416.065 341.706C416.461 341.281 416.659 340.679 416.659 339.902V332.4H419.409V339.924C419.409 341.405 418.962 342.579 418.067 343.444C417.173 344.295 415.97 344.72 414.459 344.72ZM422.745 344.5V332.4H425.429V334.71H426.177L425.429 335.348C425.429 334.351 425.715 333.573 426.287 333.016C426.873 332.459 427.673 332.18 428.685 332.18C429.873 332.18 430.819 332.576 431.523 333.368C432.241 334.16 432.601 335.223 432.601 336.558V344.5H429.851V336.844C429.851 336.111 429.66 335.546 429.279 335.15C428.897 334.754 428.362 334.556 427.673 334.556C426.998 334.556 426.463 334.761 426.067 335.172C425.685 335.583 425.495 336.169 425.495 336.932V344.5H422.745ZM439.808 344.72C438.606 344.72 437.63 344.302 436.882 343.466C436.149 342.63 435.782 341.508 435.782 340.1V336.822C435.782 335.399 436.149 334.27 436.882 333.434C437.616 332.598 438.591 332.18 439.808 332.18C440.806 332.18 441.598 332.466 442.184 333.038C442.771 333.595 443.064 334.365 443.064 335.348L442.448 334.71H443.086L442.998 331.828V328.44H445.748V344.5H443.064V342.19H442.448L443.064 341.552C443.064 342.535 442.771 343.312 442.184 343.884C441.598 344.441 440.806 344.72 439.808 344.72ZM440.776 342.344C441.48 342.344 442.023 342.139 442.404 341.728C442.8 341.303 442.998 340.716 442.998 339.968V336.932C442.998 336.184 442.8 335.605 442.404 335.194C442.023 334.769 441.48 334.556 440.776 334.556C440.072 334.556 439.522 334.761 439.126 335.172C438.73 335.583 438.532 336.169 438.532 336.932V339.968C438.532 340.731 438.73 341.317 439.126 341.728C439.522 342.139 440.072 342.344 440.776 342.344ZM454.056 344.72C453.029 344.72 452.134 344.522 451.372 344.126C450.609 343.73 450.015 343.18 449.59 342.476C449.179 341.757 448.974 340.921 448.974 339.968V336.932C448.974 335.979 449.179 335.15 449.59 334.446C450.015 333.727 450.609 333.17 451.372 332.774C452.134 332.378 453.029 332.18 454.056 332.18C455.068 332.18 455.948 332.378 456.696 332.774C457.458 333.17 458.045 333.727 458.456 334.446C458.881 335.15 459.094 335.979 459.094 336.932V339.11H451.636V339.968C451.636 340.819 451.841 341.464 452.252 341.904C452.662 342.329 453.271 342.542 454.078 342.542C454.694 342.542 455.192 342.439 455.574 342.234C455.955 342.014 456.197 341.699 456.3 341.288H459.006C458.8 342.329 458.243 343.165 457.334 343.796C456.439 344.412 455.346 344.72 454.056 344.72ZM456.432 337.57V336.91C456.432 336.074 456.234 335.436 455.838 334.996C455.442 334.541 454.848 334.314 454.056 334.314C453.264 334.314 452.662 334.541 452.252 334.996C451.841 335.451 451.636 336.096 451.636 336.932V337.394L456.63 337.35L456.432 337.57ZM462.693 344.5V332.4H465.289V334.71H465.971L465.157 336.118C465.157 334.813 465.45 333.83 466.037 333.17C466.624 332.51 467.489 332.18 468.633 332.18C469.938 332.18 470.965 332.583 471.713 333.39C472.461 334.197 472.835 335.311 472.835 336.734V337.614H469.953V336.932C469.953 336.155 469.748 335.553 469.337 335.128C468.941 334.703 468.391 334.49 467.687 334.49C466.968 334.49 466.411 334.703 466.015 335.128C465.634 335.553 465.443 336.155 465.443 336.932V344.5H462.693ZM477.886 346.92V326.24H484.046V328.77H480.636V344.39H484.046V346.92H477.886ZM489.978 346.92V344.39H493.388V328.77H489.978V326.24H496.138V346.92H489.978Z" fill="#6E56CA"/>
</g>
<defs>
<clipPath id="clip0_652_147">
<rect width="541" height="514" fill="white"/>
</clipPath>
</defs>
</svg>
