<svg width="541" height="458" viewBox="0 0 541 458" fill="none" xmlns="http://www.w3.org/2000/svg">
<rect width="541" height="458" rx="10" fill="#F8F9FB"/>
<rect x="0.25" y="0.25" width="540.5" height="457.5" rx="9.75" stroke="black" stroke-opacity="0.3" stroke-width="0.5"/>
<path d="M39.796 143.74C38.74 143.74 37.812 143.54 37.012 143.14C36.228 142.74 35.62 142.164 35.188 141.412C34.756 140.644 34.54 139.74 34.54 138.7V135.1C34.54 134.044 34.756 133.14 35.188 132.388C35.62 131.636 36.228 131.06 37.012 130.66C37.812 130.26 38.74 130.06 39.796 130.06C41.316 130.06 42.54 130.468 43.468 131.284C44.396 132.1 44.884 133.212 44.932 134.62H42.772C42.724 133.772 42.436 133.124 41.908 132.676C41.396 132.212 40.692 131.98 39.796 131.98C38.852 131.98 38.1 132.252 37.54 132.796C36.98 133.324 36.7 134.084 36.7 135.076V138.7C36.7 139.692 36.98 140.46 37.54 141.004C38.1 141.548 38.852 141.82 39.796 141.82C40.692 141.82 41.396 141.588 41.908 141.124C42.436 140.66 42.724 140.012 42.772 139.18H44.932C44.884 140.588 44.396 141.7 43.468 142.516C42.54 143.332 41.316 143.74 39.796 143.74ZM55.8906 143.5C55.1226 143.5 54.4506 143.348 53.8746 143.044C53.2986 142.74 52.8506 142.308 52.5306 141.748C52.2106 141.188 52.0506 140.532 52.0506 139.78V127.948H47.6106V125.98H54.2106V139.78C54.2106 140.324 54.3626 140.756 54.6666 141.076C54.9706 141.38 55.3786 141.532 55.8906 141.532H60.0906V143.5H55.8906ZM67.3293 143.74C65.9373 143.74 64.8413 143.388 64.0413 142.684C63.2413 141.964 62.8413 140.996 62.8413 139.78C62.8413 138.548 63.2413 137.58 64.0413 136.876C64.8413 136.172 65.9213 135.82 67.2812 135.82H71.3613V134.5C71.3613 133.684 71.1133 133.06 70.6173 132.628C70.1373 132.18 69.4493 131.956 68.5533 131.956C67.7693 131.956 67.1133 132.124 66.5853 132.46C66.0573 132.78 65.7533 133.22 65.6733 133.78H63.5133C63.6573 132.644 64.1933 131.74 65.1213 131.068C66.0493 130.396 67.2093 130.06 68.6013 130.06C70.1213 130.06 71.3213 130.452 72.2013 131.236C73.0813 132.02 73.5213 133.084 73.5213 134.428V143.5H71.4093V140.98H71.0493L71.4093 140.62C71.4093 141.58 71.0333 142.34 70.2813 142.9C69.5453 143.46 68.5613 143.74 67.3293 143.74ZM67.8573 142.036C68.8813 142.036 69.7213 141.78 70.3773 141.268C71.0333 140.756 71.3613 140.1 71.3613 139.3V137.428H67.3293C66.6093 137.428 66.0413 137.628 65.6253 138.028C65.2093 138.428 65.0013 138.972 65.0013 139.66C65.0013 140.396 65.2493 140.98 65.7453 141.412C66.2573 141.828 66.9613 142.036 67.8573 142.036ZM82.4639 143.692C81.5679 143.692 80.7839 143.556 80.1119 143.284C79.4559 142.996 78.9279 142.596 78.5279 142.084C78.1439 141.572 77.9119 140.964 77.8319 140.26H79.9919C80.0879 140.724 80.3439 141.092 80.7599 141.364C81.1919 141.636 81.7599 141.772 82.4639 141.772H83.4719C84.3199 141.772 84.9519 141.604 85.3679 141.268C85.7839 140.916 85.9919 140.452 85.9919 139.876C85.9919 139.316 85.7999 138.876 85.4159 138.556C85.0479 138.22 84.4959 137.996 83.7599 137.884L81.9839 137.596C80.6879 137.372 79.7199 136.972 79.0799 136.396C78.4559 135.804 78.1439 134.948 78.1439 133.828C78.1439 132.644 78.5199 131.732 79.2719 131.092C80.0239 130.436 81.1519 130.108 82.6559 130.108H83.5679C84.8319 130.108 85.8479 130.404 86.6159 130.996C87.3839 131.588 87.8479 132.388 88.0079 133.396H85.8479C85.7519 132.98 85.5119 132.652 85.1279 132.412C84.7439 132.156 84.2239 132.028 83.5679 132.028H82.6559C81.8399 132.028 81.2399 132.18 80.8559 132.484C80.4879 132.788 80.3039 133.244 80.3039 133.852C80.3039 134.396 80.4639 134.796 80.7839 135.052C81.1039 135.308 81.6079 135.492 82.2959 135.604L84.0719 135.892C85.4959 136.116 86.5279 136.532 87.1679 137.14C87.8239 137.748 88.1519 138.628 88.1519 139.78C88.1519 140.996 87.7599 141.956 86.9759 142.66C86.2079 143.348 85.0399 143.692 83.4719 143.692H82.4639ZM96.8545 143.692C95.9585 143.692 95.1745 143.556 94.5025 143.284C93.8465 142.996 93.3185 142.596 92.9185 142.084C92.5345 141.572 92.3025 140.964 92.2225 140.26H94.3825C94.4785 140.724 94.7345 141.092 95.1505 141.364C95.5825 141.636 96.1505 141.772 96.8545 141.772H97.8625C98.7105 141.772 99.3425 141.604 99.7585 141.268C100.175 140.916 100.383 140.452 100.383 139.876C100.383 139.316 100.191 138.876 99.8065 138.556C99.4385 138.22 98.8865 137.996 98.1505 137.884L96.3745 137.596C95.0785 137.372 94.1105 136.972 93.4705 136.396C92.8465 135.804 92.5345 134.948 92.5345 133.828C92.5345 132.644 92.9105 131.732 93.6625 131.092C94.4145 130.436 95.5425 130.108 97.0465 130.108H97.9585C99.2225 130.108 100.239 130.404 101.007 130.996C101.775 131.588 102.239 132.388 102.398 133.396H100.239C100.143 132.98 99.9025 132.652 99.5185 132.412C99.1345 132.156 98.6145 132.028 97.9585 132.028H97.0465C96.2305 132.028 95.6305 132.18 95.2465 132.484C94.8785 132.788 94.6945 133.244 94.6945 133.852C94.6945 134.396 94.8545 134.796 95.1745 135.052C95.4945 135.308 95.9985 135.492 96.6865 135.604L98.4625 135.892C99.8865 136.116 100.919 136.532 101.559 137.14C102.215 137.748 102.543 138.628 102.543 139.78C102.543 140.996 102.151 141.956 101.367 142.66C100.599 143.348 99.4305 143.692 97.8625 143.692H96.8545ZM37.34 332.5V323.414H33.82V321.61H37.34V319.52C37.34 318.567 37.6407 317.819 38.242 317.276C38.8433 316.719 39.672 316.44 40.728 316.44H44.27V318.244H40.728C40.2733 318.244 39.9213 318.354 39.672 318.574C39.4373 318.779 39.32 319.095 39.32 319.52V321.61H44.27V323.414H39.32V332.5H37.34ZM52.2694 332.72C50.8761 332.72 49.7614 332.309 48.9254 331.488C48.0894 330.652 47.6714 329.523 47.6714 328.1V320.4H49.6514V328.1C49.6514 329.009 49.8861 329.721 50.3554 330.234C50.8247 330.733 51.4627 330.982 52.2694 330.982C53.0907 330.982 53.7361 330.733 54.2054 330.234C54.6894 329.721 54.9314 329.009 54.9314 328.1V320.4H56.9114V328.1C56.9114 329.523 56.4861 330.652 55.6354 331.488C54.7847 332.309 53.6627 332.72 52.2694 332.72ZM60.9068 332.5V320.4H62.8868V322.71H63.3048L62.8868 323.172C62.8868 322.219 63.1728 321.485 63.7448 320.972C64.3168 320.444 65.1088 320.18 66.1208 320.18C67.3381 320.18 68.3061 320.554 69.0248 321.302C69.7435 322.05 70.1028 323.069 70.1028 324.36V332.5H68.1228V324.58C68.1228 323.715 67.8881 323.055 67.4188 322.6C66.9641 322.131 66.3408 321.896 65.5488 321.896C64.7275 321.896 64.0748 322.145 63.5908 322.644C63.1215 323.143 62.8868 323.861 62.8868 324.8V332.5H60.9068ZM78.7622 332.72C77.7942 332.72 76.9436 332.537 76.2102 332.17C75.4916 331.803 74.9342 331.275 74.5382 330.586C74.1422 329.882 73.9442 329.053 73.9442 328.1V324.8C73.9442 323.832 74.1422 323.003 74.5382 322.314C74.9342 321.625 75.4916 321.097 76.2102 320.73C76.9436 320.363 77.7942 320.18 78.7622 320.18C80.1556 320.18 81.2776 320.554 82.1282 321.302C82.9789 322.05 83.4262 323.069 83.4702 324.36H81.4902C81.4462 323.583 81.1822 322.989 80.6982 322.578C80.2289 322.153 79.5836 321.94 78.7622 321.94C77.8969 321.94 77.2076 322.189 76.6942 322.688C76.1809 323.172 75.9242 323.869 75.9242 324.778V328.1C75.9242 329.009 76.1809 329.713 76.6942 330.212C77.2076 330.711 77.8969 330.96 78.7622 330.96C79.5836 330.96 80.2289 330.747 80.6982 330.322C81.1822 329.897 81.4462 329.303 81.4902 328.54H83.4702C83.4262 329.831 82.9789 330.85 82.1282 331.598C81.2776 332.346 80.1556 332.72 78.7622 332.72ZM93.1856 332.5C92.1443 332.5 91.3303 332.221 90.7436 331.664C90.1716 331.107 89.8856 330.322 89.8856 329.31V322.204H86.4756V320.4H89.8856V316.99H91.8656V320.4H96.7056V322.204H91.8656V329.31C91.8656 330.234 92.3056 330.696 93.1856 330.696H96.4856V332.5H93.1856ZM100.327 332.5V330.696H104.617V322.204H100.877V320.4H106.597V330.696H110.667V332.5H100.327ZM105.387 318.222C104.903 318.222 104.522 318.097 104.243 317.848C103.964 317.599 103.825 317.261 103.825 316.836C103.825 316.396 103.964 316.051 104.243 315.802C104.522 315.538 104.903 315.406 105.387 315.406C105.871 315.406 106.252 315.538 106.531 315.802C106.81 316.051 106.949 316.396 106.949 316.836C106.949 317.261 106.81 317.599 106.531 317.848C106.252 318.097 105.871 318.222 105.387 318.222ZM118.248 332.676C117.28 332.676 116.444 332.493 115.74 332.126C115.036 331.759 114.486 331.231 114.09 330.542C113.709 329.838 113.518 329.009 113.518 328.056V324.844C113.518 323.876 113.709 323.047 114.09 322.358C114.486 321.669 115.036 321.141 115.74 320.774C116.444 320.407 117.28 320.224 118.248 320.224C119.216 320.224 120.052 320.407 120.756 320.774C121.46 321.141 122.003 321.669 122.384 322.358C122.78 323.047 122.978 323.869 122.978 324.822V328.056C122.978 329.009 122.78 329.838 122.384 330.542C122.003 331.231 121.46 331.759 120.756 332.126C120.052 332.493 119.216 332.676 118.248 332.676ZM118.248 330.916C119.114 330.916 119.788 330.674 120.272 330.19C120.756 329.706 120.998 328.995 120.998 328.056V324.844C120.998 323.905 120.756 323.194 120.272 322.71C119.788 322.226 119.114 321.984 118.248 321.984C117.398 321.984 116.723 322.226 116.224 322.71C115.74 323.194 115.498 323.905 115.498 324.844V328.056C115.498 328.995 115.74 329.706 116.224 330.19C116.723 330.674 117.398 330.916 118.248 330.916ZM126.864 332.5V320.4H128.844V322.71H129.262L128.844 323.172C128.844 322.219 129.13 321.485 129.702 320.972C130.274 320.444 131.066 320.18 132.078 320.18C133.295 320.18 134.263 320.554 134.982 321.302C135.701 322.05 136.06 323.069 136.06 324.36V332.5H134.08V324.58C134.08 323.715 133.845 323.055 133.376 322.6C132.921 322.131 132.298 321.896 131.506 321.896C130.685 321.896 130.032 322.145 129.548 322.644C129.079 323.143 128.844 323.861 128.844 324.8V332.5H126.864ZM353.23 318.75H355.562L360.644 325.24L355.54 331.73H353.23L357.41 326.472C357.454 326.413 357.498 326.355 357.542 326.296C357.6 326.237 357.652 326.179 357.696 326.12H337.764V324.36H357.696C357.637 324.287 357.578 324.213 357.52 324.14C357.461 324.067 357.395 323.993 357.322 323.92L353.23 318.75Z" fill="#C04780"/>
<path d="M288.421 146.14C287.477 146.14 286.661 145.98 285.973 145.66C285.301 145.356 284.789 144.9 284.437 144.292C284.085 143.7 283.933 142.988 283.981 142.156L284.221 138.22C284.269 137.372 284.141 136.764 283.837 136.396C283.533 136.012 282.861 135.82 281.821 135.82H279.181V133.9H281.821C282.861 133.9 283.533 133.716 283.837 133.348C284.141 132.964 284.269 132.348 284.221 131.5L283.981 127.564C283.933 126.716 284.085 125.996 284.437 125.404C284.789 124.812 285.301 124.364 285.973 124.06C286.661 123.74 287.477 123.58 288.421 123.58H289.501V125.5H288.421C287.669 125.5 287.093 125.676 286.693 126.028C286.293 126.364 286.109 126.876 286.141 127.564L286.381 131.5C286.445 132.54 286.197 133.372 285.637 133.996C285.077 134.604 284.285 134.908 283.261 134.908V134.788C284.269 134.788 285.053 135.1 285.613 135.724C286.189 136.348 286.445 137.18 286.381 138.22L286.141 142.156C286.109 142.844 286.293 143.356 286.693 143.692C287.093 144.044 287.669 144.22 288.421 144.22H289.501V146.14H288.421ZM63.4893 175.5V162.3H65.6493V164.82H66.1053L65.6493 165.324C65.6493 164.284 65.9613 163.484 66.5853 162.924C67.2093 162.348 68.0733 162.06 69.1773 162.06C70.5053 162.06 71.5613 162.468 72.3453 163.284C73.1293 164.1 73.5213 165.212 73.5213 166.62V175.5H71.3613V166.86C71.3613 165.916 71.1053 165.196 70.5933 164.7C70.0973 164.188 69.4173 163.932 68.5533 163.932C67.6573 163.932 66.9453 164.204 66.4173 164.748C65.9053 165.292 65.6493 166.076 65.6493 167.1V175.5H63.4893ZM81.7199 175.74C80.3279 175.74 79.2319 175.388 78.4319 174.684C77.6319 173.964 77.2319 172.996 77.2319 171.78C77.2319 170.548 77.6319 169.58 78.4319 168.876C79.2319 168.172 80.3119 167.82 81.6719 167.82H85.7519V166.5C85.7519 165.684 85.5039 165.06 85.0079 164.628C84.5279 164.18 83.8399 163.956 82.9439 163.956C82.1599 163.956 81.5039 164.124 80.9759 164.46C80.4479 164.78 80.1439 165.22 80.0639 165.78H77.9039C78.0479 164.644 78.5839 163.74 79.5119 163.068C80.4399 162.396 81.5999 162.06 82.9919 162.06C84.5119 162.06 85.7119 162.452 86.5919 163.236C87.4719 164.02 87.9119 165.084 87.9119 166.428V175.5H85.7999V172.98H85.4399L85.7999 172.62C85.7999 173.58 85.4239 174.34 84.6719 174.9C83.9359 175.46 82.9519 175.74 81.7199 175.74ZM82.2479 174.036C83.2719 174.036 84.1119 173.78 84.7679 173.268C85.4239 172.756 85.7519 172.1 85.7519 171.3V169.428H81.7199C80.9999 169.428 80.4319 169.628 80.0159 170.028C79.5999 170.428 79.3919 170.972 79.3919 171.66C79.3919 172.396 79.6399 172.98 80.1359 173.412C80.6479 173.828 81.3519 174.036 82.2479 174.036ZM91.6465 175.5V162.3H93.5425V163.884H93.9745L93.6385 164.46C93.6385 163.724 93.8305 163.14 94.2145 162.708C94.6145 162.276 95.1505 162.06 95.8225 162.06C96.5585 162.06 97.1265 162.332 97.5265 162.876C97.9265 163.42 98.1265 164.188 98.1265 165.18L97.4785 163.884H98.4865L98.0305 164.46C98.0305 163.724 98.2305 163.14 98.6305 162.708C99.0465 162.276 99.5905 162.06 100.263 162.06C101.095 162.06 101.735 162.372 102.182 162.996C102.647 163.62 102.879 164.444 102.879 165.468V175.5H100.887V165.444C100.887 164.9 100.767 164.476 100.527 164.172C100.303 163.868 99.9665 163.716 99.5185 163.716C99.0865 163.716 98.7425 163.868 98.4865 164.172C98.2465 164.46 98.1265 164.876 98.1265 165.42V175.5H96.3985V165.444C96.3985 164.884 96.2705 164.46 96.0145 164.172C95.7745 163.868 95.4305 163.716 94.9825 163.716C94.5345 163.716 94.1985 163.868 93.9745 164.172C93.7505 164.46 93.6385 164.876 93.6385 165.42V175.5H91.6465ZM111.653 175.74C110.613 175.74 109.701 175.532 108.917 175.116C108.149 174.7 107.549 174.116 107.117 173.364C106.701 172.596 106.493 171.708 106.493 170.7V167.1C106.493 166.076 106.701 165.188 107.117 164.436C107.549 163.684 108.149 163.1 108.917 162.684C109.701 162.268 110.613 162.06 111.653 162.06C112.693 162.06 113.597 162.268 114.365 162.684C115.149 163.1 115.749 163.684 116.165 164.436C116.597 165.188 116.813 166.076 116.813 167.1V169.428H108.605V170.7C108.605 171.74 108.869 172.54 109.397 173.1C109.925 173.644 110.677 173.916 111.653 173.916C112.485 173.916 113.157 173.772 113.669 173.484C114.181 173.18 114.493 172.732 114.605 172.14H116.765C116.621 173.244 116.077 174.124 115.133 174.78C114.205 175.42 113.045 175.74 111.653 175.74ZM114.701 167.988V167.1C114.701 166.06 114.437 165.26 113.909 164.7C113.397 164.14 112.645 163.86 111.653 163.86C110.677 163.86 109.925 164.14 109.397 164.7C108.869 165.26 108.605 166.06 108.605 167.1V167.796H114.869L114.701 167.988ZM63.4893 211.82V194.3H65.6493V196.82H66.0813L65.6493 197.324C65.6493 196.316 65.9773 195.524 66.6333 194.948C67.3053 194.356 68.1853 194.06 69.2733 194.06C70.6013 194.06 71.6573 194.5 72.4413 195.38C73.2413 196.244 73.6413 197.436 73.6413 198.956V202.82C73.6413 203.828 73.4573 204.7 73.0893 205.436C72.7373 206.172 72.2333 206.74 71.5773 207.14C70.9373 207.54 70.1693 207.74 69.2733 207.74C68.2013 207.74 67.3293 207.444 66.6573 206.852C65.9853 206.26 65.6493 205.468 65.6493 204.476L66.0813 204.98H65.6013L65.6493 207.98V211.82H63.4893ZM68.5533 205.868C69.4653 205.868 70.1773 205.596 70.6893 205.052C71.2173 204.508 71.4813 203.724 71.4813 202.7V199.1C71.4813 198.076 71.2173 197.292 70.6893 196.748C70.1773 196.204 69.4653 195.932 68.5533 195.932C67.6733 195.932 66.9693 196.212 66.4413 196.772C65.9133 197.332 65.6493 198.108 65.6493 199.1V202.7C65.6493 203.692 65.9133 204.468 66.4413 205.028C66.9693 205.588 67.6733 205.868 68.5533 205.868ZM79.9439 211.82L81.8879 206.684L76.9919 194.3H79.3919L82.4639 202.46C82.5759 202.732 82.6799 203.06 82.7759 203.444C82.8719 203.812 82.9519 204.124 83.0159 204.38C83.0799 204.124 83.1599 203.812 83.2559 203.444C83.3519 203.06 83.4479 202.732 83.5439 202.46L86.4239 194.3H88.7519L82.2479 211.82H79.9439ZM91.5025 209.9V208.1H103.023V209.9H91.5025ZM113.093 207.5C111.957 207.5 111.069 207.196 110.429 206.588C109.805 205.98 109.493 205.124 109.493 204.02V196.268H105.773V194.3H109.493V190.58H111.653V194.3H116.933V196.268H111.653V204.02C111.653 205.028 112.133 205.532 113.093 205.532H116.693V207.5H113.093ZM126.044 207.692C124.988 207.692 124.076 207.492 123.308 207.092C122.54 206.692 121.94 206.116 121.508 205.364C121.092 204.596 120.884 203.692 120.884 202.652V199.148C120.884 198.092 121.092 197.188 121.508 196.436C121.94 195.684 122.54 195.108 123.308 194.708C124.076 194.308 124.988 194.108 126.044 194.108C127.1 194.108 128.012 194.308 128.78 194.708C129.548 195.108 130.14 195.684 130.556 196.436C130.988 197.188 131.204 198.084 131.204 199.124V202.652C131.204 203.692 130.988 204.596 130.556 205.364C130.14 206.116 129.548 206.692 128.78 207.092C128.012 207.492 127.1 207.692 126.044 207.692ZM126.044 205.772C126.988 205.772 127.724 205.508 128.252 204.98C128.78 204.452 129.044 203.676 129.044 202.652V199.148C129.044 198.124 128.78 197.348 128.252 196.82C127.724 196.292 126.988 196.028 126.044 196.028C125.116 196.028 124.38 196.292 123.836 196.82C123.308 197.348 123.044 198.124 123.044 199.148V202.652C123.044 203.676 123.308 204.452 123.836 204.98C124.38 205.508 125.116 205.772 126.044 205.772ZM134.674 209.9V208.1H146.194V209.9H134.674ZM150.289 207.5V194.3H152.401V196.82H152.905L152.209 198.38C152.209 196.956 152.513 195.884 153.121 195.164C153.745 194.428 154.665 194.06 155.881 194.06C157.273 194.06 158.377 194.5 159.193 195.38C160.025 196.244 160.441 197.42 160.441 198.908V199.7H158.281V199.1C158.281 198.06 158.025 197.268 157.513 196.724C157.017 196.164 156.305 195.884 155.377 195.884C154.465 195.884 153.745 196.164 153.217 196.724C152.705 197.284 152.449 198.076 152.449 199.1V207.5H150.289ZM169.192 207.74C167.672 207.74 166.456 207.292 165.544 206.396C164.632 205.484 164.176 204.252 164.176 202.7V194.3H166.336V202.7C166.336 203.692 166.592 204.468 167.104 205.028C167.616 205.572 168.312 205.844 169.192 205.844C170.088 205.844 170.792 205.572 171.304 205.028C171.832 204.468 172.096 203.692 172.096 202.7V194.3H174.256V202.7C174.256 204.252 173.792 205.484 172.864 206.396C171.936 207.292 170.712 207.74 169.192 207.74ZM183.198 207.692C182.302 207.692 181.518 207.556 180.846 207.284C180.19 206.996 179.662 206.596 179.262 206.084C178.878 205.572 178.646 204.964 178.566 204.26H180.726C180.822 204.724 181.078 205.092 181.494 205.364C181.926 205.636 182.494 205.772 183.198 205.772H184.206C185.054 205.772 185.686 205.604 186.102 205.268C186.518 204.916 186.726 204.452 186.726 203.876C186.726 203.316 186.534 202.876 186.15 202.556C185.782 202.22 185.23 201.996 184.494 201.884L182.718 201.596C181.422 201.372 180.454 200.972 179.814 200.396C179.19 199.804 178.878 198.948 178.878 197.828C178.878 196.644 179.254 195.732 180.006 195.092C180.758 194.436 181.886 194.108 183.39 194.108H184.302C185.566 194.108 186.582 194.404 187.35 194.996C188.118 195.588 188.582 196.388 188.742 197.396H186.582C186.486 196.98 186.246 196.652 185.862 196.412C185.478 196.156 184.958 196.028 184.302 196.028H183.39C182.574 196.028 181.974 196.18 181.59 196.484C181.222 196.788 181.038 197.244 181.038 197.852C181.038 198.396 181.198 198.796 181.518 199.052C181.838 199.308 182.342 199.492 183.03 199.604L184.806 199.892C186.23 200.116 187.262 200.532 187.902 201.14C188.558 201.748 188.886 202.628 188.886 203.78C188.886 204.996 188.494 205.956 187.71 206.66C186.942 207.348 185.774 207.692 184.206 207.692H183.198ZM199.437 207.5C198.301 207.5 197.413 207.196 196.773 206.588C196.149 205.98 195.837 205.124 195.837 204.02V196.268H192.117V194.3H195.837V190.58H197.997V194.3H203.277V196.268H197.997V204.02C197.997 205.028 198.477 205.532 199.437 205.532H203.037V207.5H199.437ZM206.628 209.9V208.1H218.148V209.9H206.628ZM222.242 207.5V194.3H224.354V196.82H224.858L224.162 198.38C224.162 196.956 224.466 195.884 225.074 195.164C225.698 194.428 226.618 194.06 227.834 194.06C229.226 194.06 230.33 194.5 231.146 195.38C231.978 196.244 232.394 197.42 232.394 198.908V199.7H230.234V199.1C230.234 198.06 229.978 197.268 229.466 196.724C228.97 196.164 228.258 195.884 227.33 195.884C226.418 195.884 225.698 196.164 225.17 196.724C224.658 197.284 224.402 198.076 224.402 199.1V207.5H222.242ZM240.017 207.74C238.625 207.74 237.529 207.388 236.729 206.684C235.929 205.964 235.529 204.996 235.529 203.78C235.529 202.548 235.929 201.58 236.729 200.876C237.529 200.172 238.609 199.82 239.969 199.82H244.049V198.5C244.049 197.684 243.801 197.06 243.305 196.628C242.825 196.18 242.137 195.956 241.241 195.956C240.457 195.956 239.801 196.124 239.273 196.46C238.745 196.78 238.441 197.22 238.361 197.78H236.201C236.345 196.644 236.881 195.74 237.809 195.068C238.737 194.396 239.897 194.06 241.289 194.06C242.809 194.06 244.009 194.452 244.889 195.236C245.769 196.02 246.209 197.084 246.209 198.428V207.5H244.097V204.98H243.737L244.097 204.62C244.097 205.58 243.721 206.34 242.969 206.9C242.233 207.46 241.249 207.74 240.017 207.74ZM240.545 206.036C241.569 206.036 242.409 205.78 243.065 205.268C243.721 204.756 244.049 204.1 244.049 203.3V201.428H240.017C239.297 201.428 238.729 201.628 238.313 202.028C237.897 202.428 237.689 202.972 237.689 203.66C237.689 204.396 237.937 204.98 238.433 205.412C238.945 205.828 239.649 206.036 240.545 206.036ZM256.999 207.5C255.863 207.5 254.975 207.196 254.335 206.588C253.711 205.98 253.399 205.124 253.399 204.02V196.268H249.679V194.3H253.399V190.58H255.559V194.3H260.839V196.268H255.559V204.02C255.559 205.028 256.039 205.532 256.999 205.532H260.599V207.5H256.999ZM264.79 207.5V205.532H269.47V196.268H265.39V194.3H271.63V205.532H276.07V207.5H264.79ZM270.31 191.924C269.782 191.924 269.366 191.788 269.062 191.516C268.758 191.244 268.606 190.876 268.606 190.412C268.606 189.932 268.758 189.556 269.062 189.284C269.366 188.996 269.782 188.852 270.31 188.852C270.838 188.852 271.254 188.996 271.558 189.284C271.862 189.556 272.014 189.932 272.014 190.412C272.014 190.876 271.862 191.244 271.558 191.516C271.254 191.788 270.838 191.924 270.31 191.924ZM284.341 207.692C283.285 207.692 282.373 207.492 281.605 207.092C280.837 206.692 280.237 206.116 279.805 205.364C279.389 204.596 279.181 203.692 279.181 202.652V199.148C279.181 198.092 279.389 197.188 279.805 196.436C280.237 195.684 280.837 195.108 281.605 194.708C282.373 194.308 283.285 194.108 284.341 194.108C285.397 194.108 286.309 194.308 287.077 194.708C287.845 195.108 288.437 195.684 288.853 196.436C289.285 197.188 289.501 198.084 289.501 199.124V202.652C289.501 203.692 289.285 204.596 288.853 205.364C288.437 206.116 287.845 206.692 287.077 207.092C286.309 207.492 285.397 207.692 284.341 207.692ZM284.341 205.772C285.285 205.772 286.021 205.508 286.549 204.98C287.077 204.452 287.341 203.676 287.341 202.652V199.148C287.341 198.124 287.077 197.348 286.549 196.82C286.021 196.292 285.285 196.028 284.341 196.028C283.413 196.028 282.677 196.292 282.133 196.82C281.605 197.348 281.341 198.124 281.341 199.148V202.652C281.341 203.676 281.605 204.452 282.133 204.98C282.677 205.508 283.413 205.772 284.341 205.772ZM68.0733 239.692C67.1773 239.692 66.3933 239.556 65.7213 239.284C65.0653 238.996 64.5373 238.596 64.1373 238.084C63.7533 237.572 63.5213 236.964 63.4413 236.26H65.6013C65.6973 236.724 65.9533 237.092 66.3693 237.364C66.8013 237.636 67.3693 237.772 68.0733 237.772H69.0813C69.9293 237.772 70.5613 237.604 70.9773 237.268C71.3933 236.916 71.6013 236.452 71.6013 235.876C71.6013 235.316 71.4093 234.876 71.0253 234.556C70.6573 234.22 70.1053 233.996 69.3693 233.884L67.5933 233.596C66.2973 233.372 65.3293 232.972 64.6893 232.396C64.0653 231.804 63.7533 230.948 63.7533 229.828C63.7533 228.644 64.1293 227.732 64.8813 227.092C65.6333 226.436 66.7613 226.108 68.2653 226.108H69.1773C70.4413 226.108 71.4573 226.404 72.2253 226.996C72.9933 227.588 73.4573 228.388 73.6172 229.396H71.4573C71.3613 228.98 71.1213 228.652 70.7373 228.412C70.3533 228.156 69.8333 228.028 69.1773 228.028H68.2653C67.4493 228.028 66.8493 228.18 66.4653 228.484C66.0973 228.788 65.9133 229.244 65.9133 229.852C65.9133 230.396 66.0733 230.796 66.3933 231.052C66.7133 231.308 67.2173 231.492 67.9053 231.604L69.6813 231.892C71.1053 232.116 72.1373 232.532 72.7773 233.14C73.4333 233.748 73.7613 234.628 73.7613 235.78C73.7613 236.996 73.3693 237.956 72.5853 238.66C71.8173 239.348 70.6493 239.692 69.0813 239.692H68.0733ZM84.3119 239.5C83.1759 239.5 82.2879 239.196 81.6479 238.588C81.0239 237.98 80.7119 237.124 80.7119 236.02V228.268H76.9919V226.3H80.7119V222.58H82.8719V226.3H88.1519V228.268H82.8719V236.02C82.8719 237.028 83.3519 237.532 84.3119 237.532H87.9119V239.5H84.3119ZM96.1105 239.74C94.7185 239.74 93.6225 239.388 92.8225 238.684C92.0225 237.964 91.6225 236.996 91.6225 235.78C91.6225 234.548 92.0225 233.58 92.8225 232.876C93.6225 232.172 94.7025 231.82 96.0625 231.82H100.143V230.5C100.143 229.684 99.8945 229.06 99.3985 228.628C98.9185 228.18 98.2305 227.956 97.3345 227.956C96.5505 227.956 95.8945 228.124 95.3665 228.46C94.8385 228.78 94.5345 229.22 94.4545 229.78H92.2945C92.4385 228.644 92.9745 227.74 93.9025 227.068C94.8305 226.396 95.9905 226.06 97.3825 226.06C98.9025 226.06 100.103 226.452 100.983 227.236C101.863 228.02 102.303 229.084 102.303 230.428V239.5H100.191V236.98H99.8305L100.191 236.62C100.191 237.58 99.8145 238.34 99.0625 238.9C98.3265 239.46 97.3425 239.74 96.1105 239.74ZM96.6385 238.036C97.6625 238.036 98.5025 237.78 99.1585 237.268C99.8145 236.756 100.143 236.1 100.143 235.3V233.428H96.1105C95.3905 233.428 94.8225 233.628 94.4065 234.028C93.9905 234.428 93.7825 234.972 93.7825 235.66C93.7825 236.396 94.0305 236.98 94.5265 237.412C95.0385 237.828 95.7425 238.036 96.6385 238.036ZM106.661 239.5V226.3H108.821V228.82H109.277L108.821 229.324C108.821 228.284 109.133 227.484 109.757 226.924C110.381 226.348 111.245 226.06 112.349 226.06C113.677 226.06 114.733 226.468 115.517 227.284C116.301 228.1 116.693 229.212 116.693 230.62V239.5H114.533V230.86C114.533 229.916 114.277 229.196 113.765 228.7C113.269 228.188 112.589 227.932 111.725 227.932C110.829 227.932 110.117 228.204 109.589 228.748C109.077 229.292 108.821 230.076 108.821 231.1V239.5H106.661ZM125.276 239.74C123.964 239.74 122.9 239.3 122.084 238.42C121.284 237.54 120.884 236.348 120.884 234.844V230.98C120.884 229.46 121.284 228.26 122.084 227.38C122.884 226.5 123.948 226.06 125.276 226.06C126.364 226.06 127.236 226.356 127.892 226.948C128.548 227.54 128.876 228.332 128.876 229.324L128.444 228.82H128.924L128.876 225.82V221.98H131.036V239.5H128.876V236.98H128.444L128.876 236.476C128.876 237.484 128.548 238.284 127.892 238.876C127.236 239.452 126.364 239.74 125.276 239.74ZM125.996 237.868C126.892 237.868 127.596 237.588 128.108 237.028C128.62 236.468 128.876 235.692 128.876 234.7V231.1C128.876 230.108 128.62 229.332 128.108 228.772C127.596 228.212 126.892 227.932 125.996 227.932C125.084 227.932 124.364 228.204 123.836 228.748C123.308 229.292 123.044 230.076 123.044 231.1V234.7C123.044 235.724 123.308 236.508 123.836 237.052C124.364 237.596 125.084 237.868 125.996 237.868ZM140.026 239.692C139.13 239.692 138.346 239.556 137.674 239.284C137.018 238.996 136.49 238.596 136.09 238.084C135.706 237.572 135.474 236.964 135.394 236.26H137.554C137.65 236.724 137.906 237.092 138.322 237.364C138.754 237.636 139.322 237.772 140.026 237.772H141.034C141.882 237.772 142.514 237.604 142.93 237.268C143.346 236.916 143.554 236.452 143.554 235.876C143.554 235.316 143.362 234.876 142.978 234.556C142.61 234.22 142.058 233.996 141.322 233.884L139.546 233.596C138.25 233.372 137.282 232.972 136.642 232.396C136.018 231.804 135.706 230.948 135.706 229.828C135.706 228.644 136.082 227.732 136.834 227.092C137.586 226.436 138.714 226.108 140.218 226.108H141.13C142.394 226.108 143.41 226.404 144.178 226.996C144.946 227.588 145.41 228.388 145.57 229.396H143.41C143.314 228.98 143.074 228.652 142.69 228.412C142.306 228.156 141.786 228.028 141.13 228.028H140.218C139.402 228.028 138.802 228.18 138.418 228.484C138.05 228.788 137.866 229.244 137.866 229.852C137.866 230.396 138.026 230.796 138.346 231.052C138.666 231.308 139.17 231.492 139.858 231.604L141.634 231.892C143.058 232.116 144.09 232.532 144.73 233.14C145.386 233.748 145.714 234.628 145.714 235.78C145.714 236.996 145.322 237.956 144.538 238.66C143.77 239.348 142.602 239.692 141.034 239.692H140.026ZM149.065 241.9V240.1H160.585V241.9H149.065ZM167.296 239.5V229.588H163.456V227.62H167.296V225.34C167.296 224.3 167.624 223.484 168.28 222.892C168.936 222.284 169.84 221.98 170.992 221.98H174.856V223.948H170.992C170.496 223.948 170.112 224.068 169.84 224.308C169.584 224.532 169.456 224.876 169.456 225.34V227.62H174.856V229.588H169.456V239.5H167.296ZM183.606 239.692C182.55 239.692 181.638 239.492 180.87 239.092C180.102 238.692 179.502 238.116 179.07 237.364C178.654 236.596 178.446 235.692 178.446 234.652V231.148C178.446 230.092 178.654 229.188 179.07 228.436C179.502 227.684 180.102 227.108 180.87 226.708C181.638 226.308 182.55 226.108 183.606 226.108C184.662 226.108 185.574 226.308 186.342 226.708C187.11 227.108 187.702 227.684 188.118 228.436C188.55 229.188 188.766 230.084 188.766 231.124V234.652C188.766 235.692 188.55 236.596 188.118 237.364C187.702 238.116 187.11 238.692 186.342 239.092C185.574 239.492 184.662 239.692 183.606 239.692ZM183.606 237.772C184.55 237.772 185.286 237.508 185.814 236.98C186.342 236.452 186.606 235.676 186.606 234.652V231.148C186.606 230.124 186.342 229.348 185.814 228.82C185.286 228.292 184.55 228.028 183.606 228.028C182.678 228.028 181.942 228.292 181.398 228.82C180.87 229.348 180.606 230.124 180.606 231.148V234.652C180.606 235.676 180.87 236.452 181.398 236.98C181.942 237.508 182.678 237.772 183.606 237.772ZM193.461 239.5V226.3H195.573V228.82H196.077L195.381 230.38C195.381 228.956 195.685 227.884 196.293 227.164C196.917 226.428 197.837 226.06 199.053 226.06C200.445 226.06 201.549 226.5 202.365 227.38C203.197 228.244 203.613 229.42 203.613 230.908V231.7H201.453V231.1C201.453 230.06 201.197 229.268 200.685 228.724C200.189 228.164 199.477 227.884 198.549 227.884C197.637 227.884 196.917 228.164 196.389 228.724C195.877 229.284 195.621 230.076 195.621 231.1V239.5H193.461ZM34.54 274.14V272.22H35.62C36.372 272.22 36.948 272.044 37.348 271.692C37.748 271.356 37.932 270.844 37.9 270.156L37.66 266.22C37.596 265.18 37.844 264.348 38.404 263.724C38.98 263.1 39.772 262.788 40.78 262.788V262.908C39.756 262.908 38.964 262.604 38.404 261.996C37.844 261.372 37.596 260.54 37.66 259.5L37.9 255.564C37.932 254.876 37.748 254.364 37.348 254.028C36.948 253.676 36.372 253.5 35.62 253.5H34.54V251.58H35.62C36.564 251.58 37.372 251.74 38.044 252.06C38.732 252.364 39.252 252.812 39.604 253.404C39.956 253.996 40.108 254.716 40.06 255.564L39.82 259.5C39.772 260.348 39.9 260.964 40.204 261.348C40.508 261.716 41.18 261.9 42.22 261.9H44.86V263.82H42.22C41.196 263.82 40.524 264.012 40.204 264.396C39.9 264.764 39.772 265.372 39.82 266.22L40.06 270.156C40.108 270.988 39.956 271.7 39.604 272.292C39.252 272.9 38.732 273.356 38.044 273.66C37.372 273.98 36.564 274.14 35.62 274.14H34.54ZM306.998 335.14C304.915 334.627 303.295 333.615 302.136 332.104C300.977 330.593 300.398 328.745 300.398 326.56V322.6C300.398 321.163 300.662 319.865 301.19 318.706C301.733 317.533 302.495 316.543 303.478 315.736C304.475 314.929 305.649 314.357 306.998 314.02V315.89C306.059 316.11 305.245 316.535 304.556 317.166C303.867 317.782 303.331 318.552 302.95 319.476C302.569 320.4 302.378 321.441 302.378 322.6V326.56C302.378 327.689 302.561 328.716 302.928 329.64C303.309 330.564 303.845 331.334 304.534 331.95C305.238 332.551 306.059 332.962 306.998 333.182V335.14ZM312.05 335.14V333.182C313.003 332.962 313.824 332.551 314.514 331.95C315.203 331.334 315.731 330.564 316.098 329.64C316.479 328.716 316.67 327.689 316.67 326.56V322.6C316.67 321.441 316.479 320.4 316.098 319.476C315.716 318.552 315.181 317.782 314.492 317.166C313.802 316.535 312.988 316.11 312.05 315.89V314.02C313.414 314.357 314.587 314.929 315.57 315.736C316.552 316.543 317.308 317.533 317.836 318.706C318.378 319.865 318.65 321.163 318.65 322.6V326.56C318.65 328.745 318.07 330.593 316.912 332.104C315.753 333.615 314.132 334.627 312.05 335.14Z" fill="#5D5D5D"/>
<path d="M120.668 143.5V125.98H126.212C127.38 125.98 128.388 126.196 129.236 126.628C130.1 127.06 130.772 127.668 131.252 128.452C131.732 129.22 131.972 130.132 131.972 131.188C131.972 132.34 131.676 133.356 131.084 134.236C130.508 135.116 129.724 135.74 128.732 136.108L132.212 143.5H128.852L125.804 136.54H123.668V143.5H120.668ZM123.668 133.9H126.212C127.06 133.9 127.724 133.668 128.204 133.204C128.684 132.74 128.924 132.1 128.924 131.284C128.924 130.452 128.684 129.804 128.204 129.34C127.724 128.86 127.06 128.62 126.212 128.62H123.668V133.9ZM140.458 143.74C139.338 143.74 138.362 143.524 137.53 143.092C136.698 142.66 136.05 142.06 135.586 141.292C135.138 140.508 134.914 139.596 134.914 138.556V135.244C134.914 134.204 135.138 133.3 135.586 132.532C136.05 131.748 136.698 131.14 137.53 130.708C138.362 130.276 139.338 130.06 140.458 130.06C141.562 130.06 142.522 130.276 143.338 130.708C144.17 131.14 144.81 131.748 145.258 132.532C145.722 133.3 145.954 134.204 145.954 135.244V137.62H137.818V138.556C137.818 139.484 138.042 140.188 138.49 140.668C138.938 141.132 139.602 141.364 140.482 141.364C141.154 141.364 141.698 141.252 142.114 141.028C142.53 140.788 142.794 140.444 142.906 139.996H145.858C145.634 141.132 145.026 142.044 144.034 142.732C143.058 143.404 141.866 143.74 140.458 143.74ZM143.05 135.94V135.22C143.05 134.308 142.834 133.612 142.402 133.132C141.97 132.636 141.322 132.388 140.458 132.388C139.594 132.388 138.938 132.636 138.49 133.132C138.042 133.628 137.818 134.332 137.818 135.244V135.748L143.266 135.7L143.05 135.94ZM149.473 147.82V130.3H152.401V132.82H153.073L152.401 133.516C152.401 132.444 152.721 131.604 153.361 130.996C154.001 130.372 154.865 130.06 155.953 130.06C157.281 130.06 158.345 130.516 159.145 131.428C159.945 132.34 160.345 133.564 160.345 135.1V138.676C160.345 139.7 160.161 140.596 159.793 141.364C159.441 142.116 158.937 142.7 158.281 143.116C157.625 143.532 156.849 143.74 155.953 143.74C154.865 143.74 154.001 143.436 153.361 142.828C152.721 142.204 152.401 141.356 152.401 140.284L153.073 140.98H152.377L152.473 144.124V147.82H149.473ZM154.897 141.148C155.665 141.148 156.265 140.924 156.697 140.476C157.129 140.028 157.345 139.388 157.345 138.556V135.244C157.345 134.412 157.129 133.772 156.697 133.324C156.265 132.876 155.665 132.652 154.897 132.652C154.145 132.652 153.553 132.884 153.121 133.348C152.689 133.796 152.473 134.428 152.473 135.244V138.556C152.473 139.372 152.689 140.012 153.121 140.476C153.553 140.924 154.145 141.148 154.897 141.148ZM169.216 143.716C168.096 143.716 167.12 143.508 166.288 143.092C165.472 142.66 164.832 142.06 164.368 141.292C163.92 140.508 163.696 139.588 163.696 138.532V135.268C163.696 134.212 163.92 133.3 164.368 132.532C164.832 131.748 165.472 131.148 166.288 130.732C167.12 130.3 168.096 130.084 169.216 130.084C170.352 130.084 171.328 130.3 172.144 130.732C172.96 131.148 173.592 131.748 174.04 132.532C174.504 133.3 174.736 134.204 174.736 135.244V138.532C174.736 139.588 174.504 140.508 174.04 141.292C173.592 142.06 172.96 142.66 172.144 143.092C171.328 143.508 170.352 143.716 169.216 143.716ZM169.216 141.1C170.016 141.1 170.632 140.884 171.064 140.452C171.512 140.004 171.736 139.364 171.736 138.532V135.268C171.736 134.42 171.512 133.78 171.064 133.348C170.632 132.916 170.016 132.7 169.216 132.7C168.432 132.7 167.816 132.916 167.368 133.348C166.92 133.78 166.696 134.42 166.696 135.268V138.532C166.696 139.364 166.92 140.004 167.368 140.452C167.816 140.884 168.432 141.1 169.216 141.1ZM183.102 143.716C182.094 143.716 181.214 143.556 180.462 143.236C179.71 142.916 179.118 142.476 178.686 141.916C178.27 141.34 178.046 140.668 178.014 139.9H181.014C181.046 140.316 181.246 140.652 181.614 140.908C181.998 141.164 182.494 141.292 183.102 141.292H184.158C184.894 141.292 185.446 141.148 185.814 140.86C186.182 140.572 186.366 140.18 186.366 139.684C186.366 139.22 186.198 138.86 185.862 138.604C185.542 138.332 185.038 138.156 184.35 138.076L182.718 137.836C181.214 137.628 180.11 137.228 179.406 136.636C178.702 136.044 178.35 135.156 178.35 133.972C178.35 132.74 178.766 131.788 179.598 131.116C180.43 130.428 181.654 130.084 183.27 130.084H184.182C185.654 130.084 186.83 130.412 187.71 131.068C188.59 131.724 189.062 132.604 189.126 133.708H186.126C186.078 133.356 185.878 133.068 185.526 132.844C185.19 132.62 184.742 132.508 184.182 132.508H183.27C182.582 132.508 182.078 132.636 181.758 132.892C181.454 133.132 181.302 133.492 181.302 133.972C181.302 134.42 181.438 134.756 181.71 134.98C181.982 135.188 182.422 135.34 183.03 135.436L184.734 135.676C186.302 135.9 187.454 136.324 188.19 136.948C188.942 137.556 189.318 138.46 189.318 139.66C189.318 140.94 188.878 141.94 187.998 142.66C187.134 143.364 185.854 143.716 184.158 143.716H183.102ZM192.621 143.5V140.764H197.229V133.012H193.221V130.3H200.109V140.764H204.189V143.5H192.621ZM198.429 128.092C197.821 128.092 197.341 127.94 196.989 127.636C196.637 127.316 196.461 126.892 196.461 126.364C196.461 125.836 196.637 125.42 196.989 125.116C197.341 124.796 197.821 124.636 198.429 124.636C199.037 124.636 199.517 124.796 199.869 125.116C200.221 125.42 200.397 125.836 200.397 126.364C200.397 126.892 200.221 127.316 199.869 127.636C199.517 127.94 199.037 128.092 198.429 128.092ZM213.828 143.5C212.564 143.5 211.572 143.148 210.852 142.444C210.148 141.74 209.796 140.772 209.796 139.54V133.012H206.22V130.3H209.796V126.58H212.82V130.3H217.884V133.012H212.82V139.54C212.82 140.372 213.228 140.788 214.044 140.788H217.644V143.5H213.828ZM226.778 143.716C225.658 143.716 224.682 143.508 223.85 143.092C223.034 142.66 222.394 142.06 221.93 141.292C221.482 140.508 221.258 139.588 221.258 138.532V135.268C221.258 134.212 221.482 133.3 221.93 132.532C222.394 131.748 223.034 131.148 223.85 130.732C224.682 130.3 225.658 130.084 226.778 130.084C227.914 130.084 228.89 130.3 229.706 130.732C230.522 131.148 231.154 131.748 231.602 132.532C232.066 133.3 232.298 134.204 232.298 135.244V138.532C232.298 139.588 232.066 140.508 231.602 141.292C231.154 142.06 230.522 142.66 229.706 143.092C228.89 143.508 227.914 143.716 226.778 143.716ZM226.778 141.1C227.578 141.1 228.194 140.884 228.626 140.452C229.074 140.004 229.298 139.364 229.298 138.532V135.268C229.298 134.42 229.074 133.78 228.626 133.348C228.194 132.916 227.578 132.7 226.778 132.7C225.994 132.7 225.378 132.916 224.93 133.348C224.482 133.78 224.258 134.42 224.258 135.268V138.532C224.258 139.364 224.482 140.004 224.93 140.452C225.378 140.884 225.994 141.1 226.778 141.1ZM236.225 143.5V130.3H239.057V132.82H239.801L238.913 134.356C238.913 132.932 239.233 131.86 239.873 131.14C240.513 130.42 241.457 130.06 242.705 130.06C244.129 130.06 245.249 130.5 246.065 131.38C246.881 132.26 247.289 133.476 247.289 135.028V135.988H244.145V135.244C244.145 134.396 243.921 133.74 243.473 133.276C243.041 132.812 242.441 132.58 241.673 132.58C240.889 132.58 240.281 132.812 239.849 133.276C239.433 133.74 239.225 134.396 239.225 135.244V143.5H236.225ZM252.343 147.82L254.191 142.78L249.271 130.3H252.559L255.007 137.044C255.135 137.412 255.263 137.86 255.391 138.388C255.519 138.9 255.615 139.324 255.679 139.66C255.759 139.324 255.863 138.9 255.991 138.388C256.119 137.86 256.247 137.412 256.375 137.044L258.679 130.3H261.847L255.487 147.82H252.343ZM139.93 175.716C138.922 175.716 138.042 175.556 137.29 175.236C136.538 174.916 135.946 174.476 135.514 173.916C135.098 173.34 134.874 172.668 134.842 171.9H137.842C137.874 172.316 138.074 172.652 138.442 172.908C138.826 173.164 139.322 173.292 139.93 173.292H140.986C141.722 173.292 142.274 173.148 142.642 172.86C143.01 172.572 143.194 172.18 143.194 171.684C143.194 171.22 143.026 170.86 142.69 170.604C142.37 170.332 141.866 170.156 141.178 170.076L139.546 169.836C138.042 169.628 136.938 169.228 136.234 168.636C135.53 168.044 135.178 167.156 135.178 165.972C135.178 164.74 135.594 163.788 136.426 163.116C137.258 162.428 138.482 162.084 140.098 162.084H141.01C142.482 162.084 143.658 162.412 144.538 163.068C145.418 163.724 145.89 164.604 145.954 165.708H142.954C142.906 165.356 142.706 165.068 142.354 164.844C142.018 164.62 141.57 164.508 141.01 164.508H140.098C139.41 164.508 138.906 164.636 138.586 164.892C138.282 165.132 138.13 165.492 138.13 165.972C138.13 166.42 138.266 166.756 138.538 166.98C138.81 167.188 139.25 167.34 139.858 167.436L141.562 167.676C143.13 167.9 144.282 168.324 145.018 168.948C145.77 169.556 146.146 170.46 146.146 171.66C146.146 172.94 145.706 173.94 144.826 174.66C143.962 175.364 142.682 175.716 140.986 175.716H139.93ZM156.265 175.5C155.001 175.5 154.009 175.148 153.289 174.444C152.585 173.74 152.233 172.772 152.233 171.54V165.012H148.657V162.3H152.233V158.58H155.257V162.3H160.321V165.012H155.257V171.54C155.257 172.372 155.665 172.788 156.481 172.788H160.081V175.5H156.265ZM164.272 175.5V162.3H167.104V164.82H167.848L166.96 166.356C166.96 164.932 167.28 163.86 167.92 163.14C168.56 162.42 169.504 162.06 170.752 162.06C172.176 162.06 173.296 162.5 174.112 163.38C174.928 164.26 175.336 165.476 175.336 167.028V167.988H172.192V167.244C172.192 166.396 171.968 165.74 171.52 165.276C171.088 164.812 170.488 164.58 169.72 164.58C168.936 164.58 168.328 164.812 167.896 165.276C167.48 165.74 167.272 166.396 167.272 167.244V175.5H164.272ZM178.23 175.5V172.764H182.838V165.012H178.83V162.3H185.718V172.764H189.798V175.5H178.23ZM184.038 160.092C183.43 160.092 182.95 159.94 182.598 159.636C182.246 159.316 182.07 158.892 182.07 158.364C182.07 157.836 182.246 157.42 182.598 157.116C182.95 156.796 183.43 156.636 184.038 156.636C184.646 156.636 185.126 156.796 185.478 157.116C185.83 157.42 186.006 157.836 186.006 158.364C186.006 158.892 185.83 159.316 185.478 159.636C185.126 159.94 184.646 160.092 184.038 160.092ZM192.645 175.5V162.3H195.573V164.82H196.389L195.573 165.516C195.573 164.428 195.885 163.58 196.509 162.972C197.149 162.364 198.021 162.06 199.125 162.06C200.421 162.06 201.453 162.492 202.221 163.356C203.005 164.22 203.397 165.38 203.397 166.836V175.5H200.397V167.148C200.397 166.348 200.189 165.732 199.773 165.3C199.357 164.868 198.773 164.652 198.021 164.652C197.285 164.652 196.701 164.876 196.269 165.324C195.853 165.772 195.645 166.412 195.645 167.244V175.5H192.645ZM208.836 179.82V177.324H212.748C213.42 177.324 213.924 177.156 214.26 176.82C214.596 176.5 214.764 176.036 214.764 175.428V174.444L214.812 171.972H214.164L214.812 171.324C214.812 172.396 214.492 173.236 213.852 173.844C213.228 174.436 212.38 174.732 211.308 174.732C209.964 174.732 208.892 174.276 208.092 173.364C207.308 172.452 206.916 171.22 206.916 169.668V167.1C206.916 165.564 207.308 164.34 208.092 163.428C208.892 162.516 209.964 162.06 211.308 162.06C212.38 162.06 213.228 162.364 213.852 162.972C214.492 163.564 214.812 164.396 214.812 165.468L214.164 164.82H214.812L214.74 162.3H217.74V175.5C217.74 176.828 217.3 177.876 216.42 178.644C215.54 179.428 214.332 179.82 212.796 179.82H208.836ZM212.316 172.14C213.084 172.14 213.676 171.916 214.092 171.468C214.524 171.004 214.74 170.364 214.74 169.548V167.244C214.74 166.428 214.524 165.796 214.092 165.348C213.676 164.884 213.084 164.652 212.316 164.652C211.548 164.652 210.956 164.876 210.54 165.324C210.124 165.772 209.916 166.412 209.916 167.244V169.548C209.916 170.38 210.124 171.02 210.54 171.468C210.956 171.916 211.548 172.14 212.316 172.14ZM310.842 207.5V198.476H307.218V195.764H310.842V193.772C310.842 192.62 311.226 191.7 311.994 191.012C312.762 190.324 313.778 189.98 315.042 189.98H318.906V192.62H315.114C314.73 192.62 314.418 192.732 314.178 192.956C313.954 193.164 313.842 193.452 313.842 193.82V195.764H318.906V198.476H313.842V207.5H310.842ZM329.529 207.5C328.665 207.5 327.905 207.324 327.249 206.972C326.609 206.62 326.105 206.124 325.737 205.484C325.369 204.828 325.185 204.076 325.185 203.228V192.692H320.961V189.98H328.185V203.228C328.185 203.708 328.321 204.092 328.593 204.38C328.881 204.652 329.265 204.788 329.745 204.788H333.729V207.5H329.529ZM341.903 207.716C340.783 207.716 339.807 207.508 338.975 207.092C338.159 206.66 337.519 206.06 337.055 205.292C336.607 204.508 336.383 203.588 336.383 202.532V199.268C336.383 198.212 336.607 197.3 337.055 196.532C337.519 195.748 338.159 195.148 338.975 194.732C339.807 194.3 340.783 194.084 341.903 194.084C343.039 194.084 344.015 194.3 344.831 194.732C345.647 195.148 346.279 195.748 346.727 196.532C347.191 197.3 347.423 198.204 347.423 199.244V202.532C347.423 203.588 347.191 204.508 346.727 205.292C346.279 206.06 345.647 206.66 344.831 207.092C344.015 207.508 343.039 207.716 341.903 207.716ZM341.903 205.1C342.703 205.1 343.319 204.884 343.751 204.452C344.199 204.004 344.423 203.364 344.423 202.532V199.268C344.423 198.42 344.199 197.78 343.751 197.348C343.319 196.916 342.703 196.7 341.903 196.7C341.119 196.7 340.503 196.916 340.055 197.348C339.607 197.78 339.383 198.42 339.383 199.268V202.532C339.383 203.364 339.607 204.004 340.055 204.452C340.503 204.884 341.119 205.1 341.903 205.1ZM354.83 207.74C353.47 207.74 352.398 207.38 351.614 206.66C350.83 205.94 350.438 204.972 350.438 203.756C350.438 202.46 350.87 201.46 351.734 200.756C352.598 200.052 353.822 199.7 355.406 199.7H358.694V198.572C358.694 197.932 358.486 197.436 358.07 197.084C357.654 196.716 357.086 196.532 356.366 196.532C355.71 196.532 355.166 196.676 354.734 196.964C354.302 197.252 354.046 197.644 353.966 198.14H351.038C351.182 196.892 351.742 195.9 352.718 195.164C353.694 194.428 354.942 194.06 356.462 194.06C358.078 194.06 359.35 194.468 360.278 195.284C361.222 196.084 361.694 197.172 361.694 198.548V207.5H358.79V205.196H358.31L358.79 204.548C358.79 205.524 358.43 206.3 357.71 206.876C356.99 207.452 356.03 207.74 354.83 207.74ZM355.814 205.484C356.662 205.484 357.35 205.268 357.878 204.836C358.422 204.404 358.694 203.844 358.694 203.156V201.548H355.454C354.846 201.548 354.358 201.724 353.99 202.076C353.622 202.428 353.438 202.892 353.438 203.468C353.438 204.092 353.646 204.588 354.062 204.956C354.494 205.308 355.078 205.484 355.814 205.484ZM372.124 207.5C370.86 207.5 369.868 207.148 369.148 206.444C368.444 205.74 368.092 204.772 368.092 203.54V197.012H364.516V194.3H368.092V190.58H371.116V194.3H376.18V197.012H371.116V203.54C371.116 204.372 371.524 204.788 372.34 204.788H375.94V207.5H372.124ZM226.274 239.716C225.266 239.716 224.386 239.556 223.634 239.236C222.882 238.916 222.29 238.476 221.858 237.916C221.442 237.34 221.218 236.668 221.186 235.9H224.186C224.218 236.316 224.418 236.652 224.786 236.908C225.17 237.164 225.666 237.292 226.274 237.292H227.33C228.066 237.292 228.618 237.148 228.986 236.86C229.354 236.572 229.538 236.18 229.538 235.684C229.538 235.22 229.37 234.86 229.034 234.604C228.714 234.332 228.21 234.156 227.522 234.076L225.89 233.836C224.386 233.628 223.282 233.228 222.578 232.636C221.874 232.044 221.522 231.156 221.522 229.972C221.522 228.74 221.938 227.788 222.77 227.116C223.602 226.428 224.826 226.084 226.442 226.084H227.354C228.826 226.084 230.002 226.412 230.882 227.068C231.762 227.724 232.234 228.604 232.298 229.708H229.298C229.25 229.356 229.05 229.068 228.698 228.844C228.362 228.62 227.914 228.508 227.354 228.508H226.442C225.754 228.508 225.25 228.636 224.93 228.892C224.626 229.132 224.474 229.492 224.474 229.972C224.474 230.42 224.61 230.756 224.882 230.98C225.154 231.188 225.594 231.34 226.202 231.436L227.906 231.676C229.474 231.9 230.626 232.324 231.362 232.948C232.114 233.556 232.49 234.46 232.49 235.66C232.49 236.94 232.05 237.94 231.17 238.66C230.306 239.364 229.026 239.716 227.33 239.716H226.274ZM242.609 239.5C241.345 239.5 240.353 239.148 239.633 238.444C238.929 237.74 238.577 236.772 238.577 235.54V229.012H235.001V226.3H238.577V222.58H241.601V226.3H246.665V229.012H241.601V235.54C241.601 236.372 242.009 236.788 242.825 236.788H246.425V239.5H242.609ZM250.615 239.5V226.3H253.447V228.82H254.191L253.303 230.356C253.303 228.932 253.623 227.86 254.263 227.14C254.903 226.42 255.847 226.06 257.095 226.06C258.519 226.06 259.639 226.5 260.455 227.38C261.271 228.26 261.679 229.476 261.679 231.028V231.988H258.535V231.244C258.535 230.396 258.311 229.74 257.863 229.276C257.431 228.812 256.831 228.58 256.063 228.58C255.279 228.58 254.671 228.812 254.239 229.276C253.823 229.74 253.615 230.396 253.615 231.244V239.5H250.615ZM264.574 239.5V236.764H269.182V229.012H265.174V226.3H272.062V236.764H276.142V239.5H264.574ZM270.382 224.092C269.774 224.092 269.294 223.94 268.942 223.636C268.59 223.316 268.414 222.892 268.414 222.364C268.414 221.836 268.59 221.42 268.942 221.116C269.294 220.796 269.774 220.636 270.382 220.636C270.99 220.636 271.47 220.796 271.822 221.116C272.174 221.42 272.35 221.836 272.35 222.364C272.35 222.892 272.174 223.316 271.822 223.636C271.47 223.94 270.99 224.092 270.382 224.092ZM278.989 239.5V226.3H281.917V228.82H282.733L281.917 229.516C281.917 228.428 282.229 227.58 282.853 226.972C283.493 226.364 284.365 226.06 285.469 226.06C286.765 226.06 287.797 226.492 288.565 227.356C289.349 228.22 289.741 229.38 289.741 230.836V239.5H286.741V231.148C286.741 230.348 286.533 229.732 286.117 229.3C285.701 228.868 285.117 228.652 284.365 228.652C283.629 228.652 283.045 228.876 282.613 229.324C282.197 229.772 281.989 230.412 281.989 231.244V239.5H278.989ZM295.179 243.82V241.324H299.091C299.763 241.324 300.267 241.156 300.603 240.82C300.939 240.5 301.107 240.036 301.107 239.428V238.444L301.155 235.972H300.507L301.155 235.324C301.155 236.396 300.835 237.236 300.195 237.844C299.571 238.436 298.723 238.732 297.651 238.732C296.307 238.732 295.235 238.276 294.435 237.364C293.651 236.452 293.259 235.22 293.259 233.668V231.1C293.259 229.564 293.651 228.34 294.435 227.428C295.235 226.516 296.307 226.06 297.651 226.06C298.723 226.06 299.571 226.364 300.195 226.972C300.835 227.564 301.155 228.396 301.155 229.468L300.507 228.82H301.155L301.083 226.3H304.083V239.5C304.083 240.828 303.643 241.876 302.763 242.644C301.883 243.428 300.675 243.82 299.139 243.82H295.179ZM298.659 236.14C299.427 236.14 300.019 235.916 300.435 235.468C300.867 235.004 301.083 234.364 301.083 233.548V231.244C301.083 230.428 300.867 229.796 300.435 229.348C300.019 228.884 299.427 228.652 298.659 228.652C297.891 228.652 297.299 228.876 296.883 229.324C296.467 229.772 296.259 230.412 296.259 231.244V233.548C296.259 234.38 296.467 235.02 296.883 235.468C297.299 235.916 297.891 236.14 298.659 236.14ZM151.993 332.5L156.041 316.44H159.583L163.653 332.5H160.837L159.957 328.606H155.689L154.809 332.5H151.993ZM156.195 326.362H159.451L158.483 322.05C158.321 321.331 158.182 320.686 158.065 320.114C157.947 319.527 157.867 319.102 157.823 318.838C157.779 319.102 157.698 319.527 157.581 320.114C157.478 320.686 157.339 321.324 157.163 322.028L156.195 326.362ZM166.108 332.5V320.4H168.792V322.71H169.54L168.792 323.348C168.792 322.351 169.078 321.573 169.65 321.016C170.237 320.459 171.036 320.18 172.048 320.18C173.236 320.18 174.182 320.576 174.886 321.368C175.605 322.16 175.964 323.223 175.964 324.558V332.5H173.214V324.844C173.214 324.111 173.023 323.546 172.642 323.15C172.261 322.754 171.725 322.556 171.036 322.556C170.361 322.556 169.826 322.761 169.43 323.172C169.049 323.583 168.858 324.169 168.858 324.932V332.5H166.108ZM182.863 332.72C181.617 332.72 180.634 332.39 179.915 331.73C179.197 331.07 178.837 330.183 178.837 329.068C178.837 327.88 179.233 326.963 180.025 326.318C180.817 325.673 181.939 325.35 183.391 325.35H186.405V324.316C186.405 323.729 186.215 323.275 185.833 322.952C185.452 322.615 184.931 322.446 184.271 322.446C183.67 322.446 183.171 322.578 182.775 322.842C182.379 323.106 182.145 323.465 182.071 323.92H179.387C179.519 322.776 180.033 321.867 180.927 321.192C181.822 320.517 182.966 320.18 184.359 320.18C185.841 320.18 187.007 320.554 187.857 321.302C188.723 322.035 189.155 323.033 189.155 324.294V332.5H186.493V330.388H186.053L186.493 329.794C186.493 330.689 186.163 331.4 185.503 331.928C184.843 332.456 183.963 332.72 182.863 332.72ZM183.765 330.652C184.543 330.652 185.173 330.454 185.657 330.058C186.156 329.662 186.405 329.149 186.405 328.518V327.044H183.435C182.878 327.044 182.431 327.205 182.093 327.528C181.756 327.851 181.587 328.276 181.587 328.804C181.587 329.376 181.778 329.831 182.159 330.168C182.555 330.491 183.091 330.652 183.765 330.652ZM199.245 332.5C198.453 332.5 197.756 332.339 197.155 332.016C196.568 331.693 196.106 331.239 195.769 330.652C195.432 330.051 195.263 329.361 195.263 328.584V318.926H191.391V316.44H198.013V328.584C198.013 329.024 198.138 329.376 198.387 329.64C198.651 329.889 199.003 330.014 199.443 330.014H203.095V332.5H199.245ZM207.64 336.46L209.334 331.84L204.824 320.4H207.838L210.082 326.582C210.2 326.919 210.317 327.33 210.434 327.814C210.552 328.283 210.64 328.672 210.698 328.98C210.772 328.672 210.867 328.283 210.984 327.814C211.102 327.33 211.219 326.919 211.336 326.582L213.448 320.4H216.352L210.522 336.46H207.64ZM218.896 332.5V330.014L225.21 322.82H219.094V320.4H228.422V322.886L222.042 330.08H228.664V332.5H218.896ZM236.993 332.72C235.966 332.72 235.072 332.522 234.309 332.126C233.546 331.73 232.952 331.18 232.527 330.476C232.116 329.757 231.911 328.921 231.911 327.968V324.932C231.911 323.979 232.116 323.15 232.527 322.446C232.952 321.727 233.546 321.17 234.309 320.774C235.072 320.378 235.966 320.18 236.993 320.18C238.005 320.18 238.885 320.378 239.633 320.774C240.396 321.17 240.982 321.727 241.393 322.446C241.818 323.15 242.031 323.979 242.031 324.932V327.11H234.573V327.968C234.573 328.819 234.778 329.464 235.189 329.904C235.6 330.329 236.208 330.542 237.015 330.542C237.631 330.542 238.13 330.439 238.511 330.234C238.892 330.014 239.134 329.699 239.237 329.288H241.943C241.738 330.329 241.18 331.165 240.271 331.796C239.376 332.412 238.284 332.72 236.993 332.72ZM239.369 325.57V324.91C239.369 324.074 239.171 323.436 238.775 322.996C238.379 322.541 237.785 322.314 236.993 322.314C236.201 322.314 235.6 322.541 235.189 322.996C234.778 323.451 234.573 324.096 234.573 324.932V325.394L239.567 325.35L239.369 325.57ZM245.235 332.5V316.44H250.317C251.387 316.44 252.311 316.638 253.089 317.034C253.881 317.43 254.497 317.987 254.937 318.706C255.377 319.41 255.597 320.246 255.597 321.214C255.597 322.27 255.325 323.201 254.783 324.008C254.255 324.815 253.536 325.387 252.627 325.724L255.817 332.5H252.737L249.943 326.12H247.985V332.5H245.235ZM247.985 323.7H250.317C251.094 323.7 251.703 323.487 252.143 323.062C252.583 322.637 252.803 322.05 252.803 321.302C252.803 320.539 252.583 319.945 252.143 319.52C251.703 319.08 251.094 318.86 250.317 318.86H247.985V323.7ZM263.376 332.72C262.349 332.72 261.455 332.522 260.692 332.126C259.929 331.73 259.335 331.18 258.91 330.476C258.499 329.757 258.294 328.921 258.294 327.968V324.932C258.294 323.979 258.499 323.15 258.91 322.446C259.335 321.727 259.929 321.17 260.692 320.774C261.455 320.378 262.349 320.18 263.376 320.18C264.388 320.18 265.268 320.378 266.016 320.774C266.779 321.17 267.365 321.727 267.776 322.446C268.201 323.15 268.414 323.979 268.414 324.932V327.11H260.956V327.968C260.956 328.819 261.161 329.464 261.572 329.904C261.983 330.329 262.591 330.542 263.398 330.542C264.014 330.542 264.513 330.439 264.894 330.234C265.275 330.014 265.517 329.699 265.62 329.288H268.326C268.121 330.329 267.563 331.165 266.654 331.796C265.759 332.412 264.667 332.72 263.376 332.72ZM265.752 325.57V324.91C265.752 324.074 265.554 323.436 265.158 322.996C264.762 322.541 264.168 322.314 263.376 322.314C262.584 322.314 261.983 322.541 261.572 322.996C261.161 323.451 260.956 324.096 260.956 324.932V325.394L265.95 325.35L265.752 325.57ZM271.639 336.46V320.4H274.323V322.71H274.939L274.323 323.348C274.323 322.365 274.617 321.595 275.203 321.038C275.79 320.466 276.582 320.18 277.579 320.18C278.797 320.18 279.772 320.598 280.505 321.434C281.239 322.27 281.605 323.392 281.605 324.8V328.078C281.605 329.017 281.437 329.838 281.099 330.542C280.777 331.231 280.315 331.767 279.713 332.148C279.112 332.529 278.401 332.72 277.579 332.72C276.582 332.72 275.79 332.441 275.203 331.884C274.617 331.312 274.323 330.535 274.323 329.552L274.939 330.19H274.301L274.389 333.072V336.46H271.639ZM276.611 330.344C277.315 330.344 277.865 330.139 278.261 329.728C278.657 329.317 278.855 328.731 278.855 327.968V324.932C278.855 324.169 278.657 323.583 278.261 323.172C277.865 322.761 277.315 322.556 276.611 322.556C275.922 322.556 275.379 322.769 274.983 323.194C274.587 323.605 274.389 324.184 274.389 324.932V327.968C274.389 328.716 274.587 329.303 274.983 329.728C275.379 330.139 275.922 330.344 276.611 330.344ZM289.737 332.698C288.71 332.698 287.815 332.507 287.053 332.126C286.305 331.73 285.718 331.18 285.293 330.476C284.882 329.757 284.677 328.914 284.677 327.946V324.954C284.677 323.986 284.882 323.15 285.293 322.446C285.718 321.727 286.305 321.177 287.053 320.796C287.815 320.4 288.71 320.202 289.737 320.202C290.778 320.202 291.673 320.4 292.421 320.796C293.169 321.177 293.748 321.727 294.159 322.446C294.584 323.15 294.797 323.979 294.797 324.932V327.946C294.797 328.914 294.584 329.757 294.159 330.476C293.748 331.18 293.169 331.73 292.421 332.126C291.673 332.507 290.778 332.698 289.737 332.698ZM289.737 330.3C290.47 330.3 291.035 330.102 291.431 329.706C291.841 329.295 292.047 328.709 292.047 327.946V324.954C292.047 324.177 291.841 323.59 291.431 323.194C291.035 322.798 290.47 322.6 289.737 322.6C289.018 322.6 288.453 322.798 288.043 323.194C287.632 323.59 287.427 324.177 287.427 324.954V327.946C287.427 328.709 287.632 329.295 288.043 329.706C288.453 330.102 289.018 330.3 289.737 330.3ZM377.149 332.5V316.44H382.231C383.301 316.44 384.225 316.638 385.003 317.034C385.795 317.43 386.411 317.987 386.851 318.706C387.291 319.41 387.511 320.246 387.511 321.214C387.511 322.27 387.239 323.201 386.697 324.008C386.169 324.815 385.45 325.387 384.541 325.724L387.731 332.5H384.651L381.857 326.12H379.899V332.5H377.149ZM379.899 323.7H382.231C383.008 323.7 383.617 323.487 384.057 323.062C384.497 322.637 384.717 322.05 384.717 321.302C384.717 320.539 384.497 319.945 384.057 319.52C383.617 319.08 383.008 318.86 382.231 318.86H379.899V323.7ZM395.29 332.72C394.263 332.72 393.369 332.522 392.606 332.126C391.843 331.73 391.249 331.18 390.824 330.476C390.413 329.757 390.208 328.921 390.208 327.968V324.932C390.208 323.979 390.413 323.15 390.824 322.446C391.249 321.727 391.843 321.17 392.606 320.774C393.369 320.378 394.263 320.18 395.29 320.18C396.302 320.18 397.182 320.378 397.93 320.774C398.693 321.17 399.279 321.727 399.69 322.446C400.115 323.15 400.328 323.979 400.328 324.932V327.11H392.87V327.968C392.87 328.819 393.075 329.464 393.486 329.904C393.897 330.329 394.505 330.542 395.312 330.542C395.928 330.542 396.427 330.439 396.808 330.234C397.189 330.014 397.431 329.699 397.534 329.288H400.24C400.035 330.329 399.477 331.165 398.568 331.796C397.673 332.412 396.581 332.72 395.29 332.72ZM397.666 325.57V324.91C397.666 324.074 397.468 323.436 397.072 322.996C396.676 322.541 396.082 322.314 395.29 322.314C394.498 322.314 393.897 322.541 393.486 322.996C393.075 323.451 392.87 324.096 392.87 324.932V325.394L397.864 325.35L397.666 325.57ZM403.553 336.46V320.4H406.237V322.71H406.853L406.237 323.348C406.237 322.365 406.531 321.595 407.117 321.038C407.704 320.466 408.496 320.18 409.493 320.18C410.711 320.18 411.686 320.598 412.419 321.434C413.153 322.27 413.519 323.392 413.519 324.8V328.078C413.519 329.017 413.351 329.838 413.013 330.542C412.691 331.231 412.229 331.767 411.627 332.148C411.026 332.529 410.315 332.72 409.493 332.72C408.496 332.72 407.704 332.441 407.117 331.884C406.531 331.312 406.237 330.535 406.237 329.552L406.853 330.19H406.215L406.303 333.072V336.46H403.553ZM408.525 330.344C409.229 330.344 409.779 330.139 410.175 329.728C410.571 329.317 410.769 328.731 410.769 327.968V324.932C410.769 324.169 410.571 323.583 410.175 323.172C409.779 322.761 409.229 322.556 408.525 322.556C407.836 322.556 407.293 322.769 406.897 323.194C406.501 323.605 406.303 324.184 406.303 324.932V327.968C406.303 328.716 406.501 329.303 406.897 329.728C407.293 330.139 407.836 330.344 408.525 330.344ZM421.651 332.698C420.624 332.698 419.729 332.507 418.967 332.126C418.219 331.73 417.632 331.18 417.207 330.476C416.796 329.757 416.591 328.914 416.591 327.946V324.954C416.591 323.986 416.796 323.15 417.207 322.446C417.632 321.727 418.219 321.177 418.967 320.796C419.729 320.4 420.624 320.202 421.651 320.202C422.692 320.202 423.587 320.4 424.335 320.796C425.083 321.177 425.662 321.727 426.073 322.446C426.498 323.15 426.711 323.979 426.711 324.932V327.946C426.711 328.914 426.498 329.757 426.073 330.476C425.662 331.18 425.083 331.73 424.335 332.126C423.587 332.507 422.692 332.698 421.651 332.698ZM421.651 330.3C422.384 330.3 422.949 330.102 423.345 329.706C423.755 329.295 423.961 328.709 423.961 327.946V324.954C423.961 324.177 423.755 323.59 423.345 323.194C422.949 322.798 422.384 322.6 421.651 322.6C420.932 322.6 420.367 322.798 419.957 323.194C419.546 323.59 419.341 324.177 419.341 324.954V327.946C419.341 328.709 419.546 329.295 419.957 329.706C420.367 330.102 420.932 330.3 421.651 330.3ZM434.38 332.698C433.456 332.698 432.65 332.551 431.96 332.258C431.271 331.965 430.728 331.561 430.332 331.048C429.951 330.52 429.746 329.904 429.716 329.2H432.466C432.496 329.581 432.679 329.889 433.016 330.124C433.368 330.359 433.823 330.476 434.38 330.476H435.348C436.023 330.476 436.529 330.344 436.866 330.08C437.204 329.816 437.372 329.457 437.372 329.002C437.372 328.577 437.218 328.247 436.91 328.012C436.617 327.763 436.155 327.601 435.524 327.528L434.028 327.308C432.65 327.117 431.638 326.751 430.992 326.208C430.347 325.665 430.024 324.851 430.024 323.766C430.024 322.637 430.406 321.764 431.168 321.148C431.931 320.517 433.053 320.202 434.534 320.202H435.37C436.72 320.202 437.798 320.503 438.604 321.104C439.411 321.705 439.844 322.512 439.902 323.524H437.152C437.108 323.201 436.925 322.937 436.602 322.732C436.294 322.527 435.884 322.424 435.37 322.424H434.534C433.904 322.424 433.442 322.541 433.148 322.776C432.87 322.996 432.73 323.326 432.73 323.766C432.73 324.177 432.855 324.485 433.104 324.69C433.354 324.881 433.757 325.02 434.314 325.108L435.876 325.328C437.314 325.533 438.37 325.922 439.044 326.494C439.734 327.051 440.078 327.88 440.078 328.98C440.078 330.153 439.675 331.07 438.868 331.73C438.076 332.375 436.903 332.698 435.348 332.698H434.38ZM443.106 332.5V329.992H447.33V322.886H443.656V320.4H449.97V329.992H453.71V332.5H443.106ZM448.43 318.376C447.872 318.376 447.432 318.237 447.11 317.958C446.787 317.665 446.626 317.276 446.626 316.792C446.626 316.308 446.787 315.927 447.11 315.648C447.432 315.355 447.872 315.208 448.43 315.208C448.987 315.208 449.427 315.355 449.75 315.648C450.072 315.927 450.234 316.308 450.234 316.792C450.234 317.276 450.072 317.665 449.75 317.958C449.427 318.237 448.987 318.376 448.43 318.376ZM462.545 332.5C461.386 332.5 460.477 332.177 459.817 331.532C459.172 330.887 458.849 329.999 458.849 328.87V322.886H455.571V320.4H458.849V316.99H461.621V320.4H466.263V322.886H461.621V328.87C461.621 329.633 461.995 330.014 462.743 330.014H466.043V332.5H462.545ZM474.416 332.698C473.39 332.698 472.495 332.507 471.732 332.126C470.984 331.73 470.398 331.18 469.972 330.476C469.562 329.757 469.356 328.914 469.356 327.946V324.954C469.356 323.986 469.562 323.15 469.972 322.446C470.398 321.727 470.984 321.177 471.732 320.796C472.495 320.4 473.39 320.202 474.416 320.202C475.458 320.202 476.352 320.4 477.1 320.796C477.848 321.177 478.428 321.727 478.838 322.446C479.264 323.15 479.476 323.979 479.476 324.932V327.946C479.476 328.914 479.264 329.757 478.838 330.476C478.428 331.18 477.848 331.73 477.1 332.126C476.352 332.507 475.458 332.698 474.416 332.698ZM474.416 330.3C475.15 330.3 475.714 330.102 476.11 329.706C476.521 329.295 476.726 328.709 476.726 327.946V324.954C476.726 324.177 476.521 323.59 476.11 323.194C475.714 322.798 475.15 322.6 474.416 322.6C473.698 322.6 473.133 322.798 472.722 323.194C472.312 323.59 472.106 324.177 472.106 324.954V327.946C472.106 328.709 472.312 329.295 472.722 329.706C473.133 330.102 473.698 330.3 474.416 330.3ZM483.076 332.5V320.4H485.672V322.71H486.354L485.54 324.118C485.54 322.813 485.833 321.83 486.42 321.17C487.006 320.51 487.872 320.18 489.016 320.18C490.321 320.18 491.348 320.583 492.096 321.39C492.844 322.197 493.218 323.311 493.218 324.734V325.614H490.336V324.932C490.336 324.155 490.13 323.553 489.72 323.128C489.324 322.703 488.774 322.49 488.07 322.49C487.351 322.49 486.794 322.703 486.398 323.128C486.016 323.553 485.826 324.155 485.826 324.932V332.5H483.076ZM497.851 336.46L499.545 331.84L495.035 320.4H498.049L500.293 326.582C500.411 326.919 500.528 327.33 500.645 327.814C500.763 328.283 500.851 328.672 500.909 328.98C500.983 328.672 501.078 328.283 501.195 327.814C501.313 327.33 501.43 326.919 501.547 326.582L503.659 320.4H506.563L500.733 336.46H497.851Z" fill="#6E56CA"/>
</svg>
