<svg width="484" height="458" viewBox="0 0 484 458" fill="none" xmlns="http://www.w3.org/2000/svg">
<rect width="484" height="458" rx="10" fill="#F8F9FB"/>
<rect x="0.25" y="0.25" width="483.5" height="457.5" rx="9.75" stroke="black" stroke-opacity="0.3" stroke-width="0.5"/>
<path d="M57.296 62.24C56.144 62.24 55.152 62.048 54.32 61.664C53.504 61.28 52.872 60.728 52.424 60.008C51.976 59.288 51.744 58.432 51.728 57.44H53.888C53.888 58.32 54.184 59.016 54.776 59.528C55.384 60.04 56.224 60.296 57.296 60.296C58.304 60.296 59.088 60.048 59.648 59.552C60.224 59.056 60.512 58.368 60.512 57.488C60.512 56.784 60.32 56.168 59.936 55.64C59.568 55.112 59.032 54.744 58.328 54.536L55.952 53.792C54.752 53.424 53.824 52.808 53.168 51.944C52.528 51.08 52.208 50.064 52.208 48.896C52.208 47.952 52.416 47.136 52.832 46.448C53.264 45.744 53.864 45.2 54.632 44.816C55.4 44.416 56.304 44.216 57.344 44.216C58.88 44.216 60.112 44.648 61.04 45.512C61.968 46.36 62.44 47.496 62.456 48.92H60.296C60.296 48.056 60.032 47.384 59.504 46.904C58.992 46.408 58.264 46.16 57.32 46.16C56.392 46.16 55.664 46.384 55.136 46.832C54.624 47.28 54.368 47.904 54.368 48.704C54.368 49.424 54.56 50.048 54.944 50.576C55.328 51.104 55.88 51.48 56.6 51.704L59 52.472C60.168 52.84 61.072 53.464 61.712 54.344C62.352 55.224 62.672 56.256 62.672 57.44C62.672 58.4 62.448 59.24 62 59.96C61.552 60.68 60.92 61.24 60.104 61.64C59.304 62.04 58.368 62.24 57.296 62.24ZM71.5666 62.24C70.0466 62.24 68.8306 61.792 67.9186 60.896C67.0066 59.984 66.5506 58.752 66.5506 57.2V48.8H68.7106V57.2C68.7106 58.192 68.9666 58.968 69.4786 59.528C69.9906 60.072 70.6866 60.344 71.5666 60.344C72.4626 60.344 73.1666 60.072 73.6786 59.528C74.2066 58.968 74.4706 58.192 74.4706 57.2V48.8H76.6306V57.2C76.6306 58.752 76.1666 59.984 75.2386 60.896C74.3106 61.792 73.0866 62.24 71.5666 62.24ZM81.4453 62V48.8H83.5573V51.32H84.0613L83.3653 52.88C83.3653 51.456 83.6693 50.384 84.2773 49.664C84.9013 48.928 85.8213 48.56 87.0373 48.56C88.4293 48.56 89.5333 49 90.3493 49.88C91.1813 50.744 91.5973 51.92 91.5973 53.408V54.2H89.4373V53.6C89.4373 52.56 89.1813 51.768 88.6693 51.224C88.1733 50.664 87.4613 50.384 86.5333 50.384C85.6213 50.384 84.9013 50.664 84.3733 51.224C83.8613 51.784 83.6053 52.576 83.6053 53.6V62H81.4453ZM100.372 62.24C99.3319 62.24 98.4199 62.032 97.6359 61.616C96.8679 61.2 96.2679 60.616 95.8359 59.864C95.4199 59.096 95.2119 58.208 95.2119 57.2V53.6C95.2119 52.576 95.4199 51.688 95.8359 50.936C96.2679 50.184 96.8679 49.6 97.6359 49.184C98.4199 48.768 99.3319 48.56 100.372 48.56C101.412 48.56 102.316 48.768 103.084 49.184C103.868 49.6 104.468 50.184 104.884 50.936C105.316 51.688 105.532 52.576 105.532 53.6V55.928H97.3239V57.2C97.3239 58.24 97.5879 59.04 98.1159 59.6C98.6439 60.144 99.3959 60.416 100.372 60.416C101.204 60.416 101.876 60.272 102.388 59.984C102.9 59.68 103.212 59.232 103.324 58.64H105.484C105.34 59.744 104.796 60.624 103.852 61.28C102.924 61.92 101.764 62.24 100.372 62.24ZM103.42 54.488V53.6C103.42 52.56 103.156 51.76 102.628 51.2C102.116 50.64 101.364 50.36 100.372 50.36C99.3959 50.36 98.6439 50.64 98.1159 51.2C97.5879 51.76 97.3239 52.56 97.3239 53.6V54.296H103.588L103.42 54.488ZM113.995 56.84L113.491 47.36V44.48H116.035V47.36L115.531 56.84H113.995ZM114.403 62.12C113.987 62.12 113.643 61.984 113.371 61.712C113.099 61.44 112.963 61.096 112.963 60.68C112.963 60.264 113.099 59.92 113.371 59.648C113.643 59.376 113.987 59.24 114.403 59.24H115.123C115.587 59.24 115.939 59.376 116.179 59.648C116.435 59.904 116.563 60.24 116.563 60.656C116.563 61.072 116.427 61.424 116.155 61.712C115.883 61.984 115.539 62.12 115.123 62.12H114.403ZM138.576 62V44.48H140.736V51.968H146.352V44.48H148.512V62H146.352V53.936H140.736V62H138.576ZM157.934 62.24C156.894 62.24 155.982 62.032 155.198 61.616C154.43 61.2 153.83 60.616 153.398 59.864C152.982 59.096 152.774 58.208 152.774 57.2V53.6C152.774 52.576 152.982 51.688 153.398 50.936C153.83 50.184 154.43 49.6 155.198 49.184C155.982 48.768 156.894 48.56 157.934 48.56C158.974 48.56 159.878 48.768 160.646 49.184C161.43 49.6 162.03 50.184 162.446 50.936C162.878 51.688 163.094 52.576 163.094 53.6V55.928H154.886V57.2C154.886 58.24 155.15 59.04 155.678 59.6C156.206 60.144 156.958 60.416 157.934 60.416C158.766 60.416 159.438 60.272 159.95 59.984C160.462 59.68 160.774 59.232 160.886 58.64H163.046C162.902 59.744 162.358 60.624 161.414 61.28C160.486 61.92 159.326 62.24 157.934 62.24ZM160.982 54.488V53.6C160.982 52.56 160.718 51.76 160.19 51.2C159.678 50.64 158.926 50.36 157.934 50.36C156.958 50.36 156.206 50.64 155.678 51.2C155.15 51.76 154.886 52.56 154.886 53.6V54.296H161.15L160.982 54.488ZM167.789 62V48.8H169.901V51.32H170.405L169.709 52.88C169.709 51.456 170.013 50.384 170.621 49.664C171.245 48.928 172.165 48.56 173.381 48.56C174.773 48.56 175.877 49 176.693 49.88C177.525 50.744 177.941 51.92 177.941 53.408V54.2H175.781V53.6C175.781 52.56 175.525 51.768 175.013 51.224C174.517 50.664 173.805 50.384 172.877 50.384C171.965 50.384 171.245 50.664 170.717 51.224C170.205 51.784 169.949 52.576 169.949 53.6V62H167.789ZM186.716 62.24C185.676 62.24 184.764 62.032 183.98 61.616C183.212 61.2 182.612 60.616 182.18 59.864C181.764 59.096 181.556 58.208 181.556 57.2V53.6C181.556 52.576 181.764 51.688 182.18 50.936C182.612 50.184 183.212 49.6 183.98 49.184C184.764 48.768 185.676 48.56 186.716 48.56C187.756 48.56 188.66 48.768 189.428 49.184C190.212 49.6 190.812 50.184 191.228 50.936C191.66 51.688 191.876 52.576 191.876 53.6V55.928H183.668V57.2C183.668 58.24 183.932 59.04 184.46 59.6C184.988 60.144 185.74 60.416 186.716 60.416C187.548 60.416 188.22 60.272 188.732 59.984C189.244 59.68 189.556 59.232 189.668 58.64H191.828C191.684 59.744 191.14 60.624 190.196 61.28C189.268 61.92 188.108 62.24 186.716 62.24ZM189.764 54.488V53.6C189.764 52.56 189.5 51.76 188.972 51.2C188.46 50.64 187.708 50.36 186.716 50.36C185.74 50.36 184.988 50.64 184.46 51.2C183.932 51.76 183.668 52.56 183.668 53.6V54.296H189.932L189.764 54.488ZM197.746 50.84L199.666 43.376H202.786L199.666 50.84H197.746ZM215.089 62.192C214.193 62.192 213.409 62.056 212.737 61.784C212.081 61.496 211.553 61.096 211.153 60.584C210.769 60.072 210.537 59.464 210.457 58.76H212.617C212.713 59.224 212.969 59.592 213.385 59.864C213.817 60.136 214.385 60.272 215.089 60.272H216.097C216.945 60.272 217.577 60.104 217.993 59.768C218.409 59.416 218.617 58.952 218.617 58.376C218.617 57.816 218.425 57.376 218.041 57.056C217.673 56.72 217.121 56.496 216.385 56.384L214.609 56.096C213.313 55.872 212.345 55.472 211.705 54.896C211.081 54.304 210.769 53.448 210.769 52.328C210.769 51.144 211.145 50.232 211.897 49.592C212.649 48.936 213.777 48.608 215.281 48.608H216.193C217.457 48.608 218.473 48.904 219.241 49.496C220.009 50.088 220.473 50.888 220.633 51.896H218.473C218.377 51.48 218.137 51.152 217.753 50.912C217.369 50.656 216.849 50.528 216.193 50.528H215.281C214.465 50.528 213.865 50.68 213.481 50.984C213.113 51.288 212.929 51.744 212.929 52.352C212.929 52.896 213.089 53.296 213.409 53.552C213.729 53.808 214.233 53.992 214.921 54.104L216.697 54.392C218.121 54.616 219.153 55.032 219.793 55.64C220.449 56.248 220.777 57.128 220.777 58.28C220.777 59.496 220.385 60.456 219.601 61.16C218.833 61.848 217.665 62.192 216.097 62.192H215.089ZM245.718 62C244.582 62 243.694 61.696 243.054 61.088C242.43 60.48 242.118 59.624 242.118 58.52V50.768H238.398V48.8H242.118V45.08H244.278V48.8H249.558V50.768H244.278V58.52C244.278 59.528 244.758 60.032 245.718 60.032H249.318V62H245.718ZM253.677 62V44.48H255.837V48.8V51.32H256.293L255.837 51.824C255.837 50.784 256.149 49.984 256.773 49.424C257.397 48.848 258.261 48.56 259.365 48.56C260.693 48.56 261.749 48.968 262.533 49.784C263.317 50.6 263.709 51.712 263.709 53.12V62H261.549V53.36C261.549 52.416 261.293 51.688 260.781 51.176C260.285 50.648 259.605 50.384 258.741 50.384C257.845 50.384 257.133 50.664 256.605 51.224C256.093 51.784 255.837 52.576 255.837 53.6V62H253.677ZM273.059 62.24C272.019 62.24 271.107 62.032 270.323 61.616C269.555 61.2 268.955 60.616 268.523 59.864C268.107 59.096 267.899 58.208 267.899 57.2V53.6C267.899 52.576 268.107 51.688 268.523 50.936C268.955 50.184 269.555 49.6 270.323 49.184C271.107 48.768 272.019 48.56 273.059 48.56C274.099 48.56 275.003 48.768 275.771 49.184C276.555 49.6 277.155 50.184 277.571 50.936C278.003 51.688 278.219 52.576 278.219 53.6V55.928H270.011V57.2C270.011 58.24 270.275 59.04 270.803 59.6C271.331 60.144 272.083 60.416 273.059 60.416C273.891 60.416 274.563 60.272 275.075 59.984C275.587 59.68 275.899 59.232 276.011 58.64H278.171C278.027 59.744 277.483 60.624 276.539 61.28C275.611 61.92 274.451 62.24 273.059 62.24ZM276.107 54.488V53.6C276.107 52.56 275.843 51.76 275.315 51.2C274.803 50.64 274.051 50.36 273.059 50.36C272.083 50.36 271.331 50.64 270.803 51.2C270.275 51.76 270.011 52.56 270.011 53.6V54.296H276.275L276.107 54.488ZM300.689 62.24C299.297 62.24 298.201 61.888 297.401 61.184C296.601 60.464 296.201 59.496 296.201 58.28C296.201 57.048 296.601 56.08 297.401 55.376C298.201 54.672 299.281 54.32 300.641 54.32H304.721V53C304.721 52.184 304.473 51.56 303.977 51.128C303.497 50.68 302.809 50.456 301.913 50.456C301.129 50.456 300.473 50.624 299.945 50.96C299.417 51.28 299.113 51.72 299.033 52.28H296.873C297.017 51.144 297.553 50.24 298.481 49.568C299.409 48.896 300.569 48.56 301.961 48.56C303.481 48.56 304.681 48.952 305.561 49.736C306.441 50.52 306.881 51.584 306.881 52.928V62H304.769V59.48H304.409L304.769 59.12C304.769 60.08 304.393 60.84 303.641 61.4C302.905 61.96 301.921 62.24 300.689 62.24ZM301.217 60.536C302.241 60.536 303.081 60.28 303.737 59.768C304.393 59.256 304.721 58.6 304.721 57.8V55.928H300.689C299.969 55.928 299.401 56.128 298.985 56.528C298.569 56.928 298.361 57.472 298.361 58.16C298.361 58.896 298.609 59.48 299.105 59.912C299.617 60.328 300.321 60.536 301.217 60.536ZM311.239 62V48.8H313.399V51.32H313.855L313.399 51.824C313.399 50.784 313.711 49.984 314.335 49.424C314.959 48.848 315.823 48.56 316.927 48.56C318.255 48.56 319.311 48.968 320.095 49.784C320.879 50.6 321.271 51.712 321.271 53.12V62H319.111V53.36C319.111 52.416 318.855 51.696 318.343 51.2C317.847 50.688 317.167 50.432 316.303 50.432C315.407 50.432 314.695 50.704 314.167 51.248C313.655 51.792 313.399 52.576 313.399 53.6V62H311.239ZM330.214 62.192C329.318 62.192 328.534 62.056 327.862 61.784C327.206 61.496 326.678 61.096 326.278 60.584C325.894 60.072 325.662 59.464 325.582 58.76H327.742C327.838 59.224 328.094 59.592 328.51 59.864C328.942 60.136 329.51 60.272 330.214 60.272H331.222C332.07 60.272 332.702 60.104 333.118 59.768C333.534 59.416 333.742 58.952 333.742 58.376C333.742 57.816 333.55 57.376 333.166 57.056C332.798 56.72 332.246 56.496 331.51 56.384L329.734 56.096C328.438 55.872 327.47 55.472 326.83 54.896C326.206 54.304 325.894 53.448 325.894 52.328C325.894 51.144 326.27 50.232 327.022 49.592C327.774 48.936 328.902 48.608 330.406 48.608H331.318C332.582 48.608 333.598 48.904 334.366 49.496C335.134 50.088 335.598 50.888 335.758 51.896H333.598C333.502 51.48 333.262 51.152 332.878 50.912C332.494 50.656 331.974 50.528 331.318 50.528H330.406C329.59 50.528 328.99 50.68 328.606 50.984C328.238 51.288 328.054 51.744 328.054 52.352C328.054 52.896 328.214 53.296 328.534 53.552C328.854 53.808 329.358 53.992 330.046 54.104L331.822 54.392C333.246 54.616 334.278 55.032 334.918 55.64C335.574 56.248 335.902 57.128 335.902 58.28C335.902 59.496 335.51 60.456 334.726 61.16C333.958 61.848 332.79 62.192 331.222 62.192H330.214ZM340.765 62L338.653 48.8H340.573L341.893 58.16C341.941 58.512 341.989 58.896 342.037 59.312C342.101 59.712 342.149 60.048 342.181 60.32C342.213 60.048 342.261 59.712 342.325 59.312C342.405 58.896 342.469 58.512 342.517 58.16L343.98 48.8H346.045L347.509 58.16C347.557 58.512 347.613 58.896 347.677 59.312C347.757 59.712 347.813 60.048 347.845 60.32C347.877 60.048 347.925 59.712 347.989 59.312C348.069 58.896 348.133 58.512 348.181 58.16L349.549 48.8H351.372L349.165 62H346.789L345.373 52.88C345.309 52.432 345.237 51.984 345.157 51.536C345.077 51.088 345.021 50.736 344.989 50.48C344.957 50.736 344.909 51.088 344.845 51.536C344.781 51.984 344.709 52.432 344.629 52.88L343.141 62H340.765ZM359.403 62.24C358.363 62.24 357.451 62.032 356.667 61.616C355.899 61.2 355.299 60.616 354.867 59.864C354.451 59.096 354.243 58.208 354.243 57.2V53.6C354.243 52.576 354.451 51.688 354.867 50.936C355.299 50.184 355.899 49.6 356.667 49.184C357.451 48.768 358.363 48.56 359.403 48.56C360.443 48.56 361.347 48.768 362.115 49.184C362.899 49.6 363.499 50.184 363.915 50.936C364.347 51.688 364.563 52.576 364.563 53.6V55.928H356.355V57.2C356.355 58.24 356.619 59.04 357.147 59.6C357.675 60.144 358.427 60.416 359.403 60.416C360.235 60.416 360.907 60.272 361.419 59.984C361.931 59.68 362.243 59.232 362.355 58.64H364.515C364.371 59.744 363.827 60.624 362.883 61.28C361.955 61.92 360.795 62.24 359.403 62.24ZM362.451 54.488V53.6C362.451 52.56 362.187 51.76 361.659 51.2C361.147 50.64 360.395 50.36 359.403 50.36C358.427 50.36 357.675 50.64 357.147 51.2C356.619 51.76 356.355 52.56 356.355 53.6V54.296H362.619L362.451 54.488ZM369.258 62V48.8H371.37V51.32H371.874L371.178 52.88C371.178 51.456 371.482 50.384 372.09 49.664C372.714 48.928 373.634 48.56 374.85 48.56C376.242 48.56 377.346 49 378.162 49.88C378.994 50.744 379.41 51.92 379.41 53.408V54.2H377.25V53.6C377.25 52.56 376.994 51.768 376.482 51.224C375.986 50.664 375.274 50.384 374.346 50.384C373.434 50.384 372.714 50.664 372.186 51.224C371.674 51.784 371.418 52.576 371.418 53.6V62H369.258ZM58.64 94C57.504 94 56.616 93.696 55.976 93.088C55.352 92.48 55.04 91.624 55.04 90.52V82.768H51.32V80.8H55.04V77.08H57.2V80.8H62.48V82.768H57.2V90.52C57.2 91.528 57.68 92.032 58.64 92.032H62.24V94H58.64ZM66.5986 94V76.48H68.7586V80.8V83.32H69.2146L68.7586 83.824C68.7586 82.784 69.0706 81.984 69.6946 81.424C70.3186 80.848 71.1826 80.56 72.2866 80.56C73.6146 80.56 74.6706 80.968 75.4546 81.784C76.2386 82.6 76.6306 83.712 76.6306 85.12V94H74.4706V85.36C74.4706 84.416 74.2146 83.688 73.7026 83.176C73.2066 82.648 72.5266 82.384 71.6626 82.384C70.7666 82.384 70.0546 82.664 69.5266 83.224C69.0146 83.784 68.7586 84.576 68.7586 85.6V94H66.5986ZM84.8293 94.24C83.4373 94.24 82.3413 93.888 81.5413 93.184C80.7413 92.464 80.3413 91.496 80.3413 90.28C80.3413 89.048 80.7413 88.08 81.5413 87.376C82.3413 86.672 83.4213 86.32 84.7812 86.32H88.8613V85C88.8613 84.184 88.6133 83.56 88.1173 83.128C87.6373 82.68 86.9493 82.456 86.0533 82.456C85.2693 82.456 84.6133 82.624 84.0853 82.96C83.5573 83.28 83.2533 83.72 83.1733 84.28H81.0133C81.1573 83.144 81.6933 82.24 82.6213 81.568C83.5493 80.896 84.7093 80.56 86.1013 80.56C87.6213 80.56 88.8213 80.952 89.7013 81.736C90.5813 82.52 91.0213 83.584 91.0213 84.928V94H88.9093V91.48H88.5493L88.9093 91.12C88.9093 92.08 88.5333 92.84 87.7813 93.4C87.0453 93.96 86.0613 94.24 84.8293 94.24ZM85.3573 92.536C86.3813 92.536 87.2213 92.28 87.8773 91.768C88.5333 91.256 88.8613 90.6 88.8613 89.8V87.928H84.8293C84.1093 87.928 83.5413 88.128 83.1253 88.528C82.7093 88.928 82.5013 89.472 82.5013 90.16C82.5013 90.896 82.7493 91.48 83.2453 91.912C83.7573 92.328 84.4613 92.536 85.3573 92.536ZM101.812 94C100.676 94 99.7879 93.696 99.1479 93.088C98.5239 92.48 98.2119 91.624 98.2119 90.52V82.768H94.4919V80.8H98.2119V77.08H100.372V80.8H105.652V82.768H100.372V90.52C100.372 91.528 100.852 92.032 101.812 92.032H105.412V94H101.812ZM126.225 98.32L128.169 93.184L123.273 80.8H125.673L128.745 88.96C128.857 89.232 128.961 89.56 129.057 89.944C129.153 90.312 129.233 90.624 129.297 90.88C129.361 90.624 129.441 90.312 129.537 89.944C129.633 89.56 129.729 89.232 129.825 88.96L132.705 80.8H135.033L128.529 98.32H126.225ZM143.544 94.192C142.488 94.192 141.576 93.992 140.808 93.592C140.04 93.192 139.44 92.616 139.008 91.864C138.592 91.096 138.384 90.192 138.384 89.152V85.648C138.384 84.592 138.592 83.688 139.008 82.936C139.44 82.184 140.04 81.608 140.808 81.208C141.576 80.808 142.488 80.608 143.544 80.608C144.6 80.608 145.512 80.808 146.28 81.208C147.048 81.608 147.64 82.184 148.056 82.936C148.488 83.688 148.704 84.584 148.704 85.624V89.152C148.704 90.192 148.488 91.096 148.056 91.864C147.64 92.616 147.048 93.192 146.28 93.592C145.512 93.992 144.6 94.192 143.544 94.192ZM143.544 92.272C144.488 92.272 145.224 92.008 145.752 91.48C146.28 90.952 146.544 90.176 146.544 89.152V85.648C146.544 84.624 146.28 83.848 145.752 83.32C145.224 82.792 144.488 82.528 143.544 82.528C142.616 82.528 141.88 82.792 141.336 83.32C140.808 83.848 140.544 84.624 140.544 85.648V89.152C140.544 90.176 140.808 90.952 141.336 91.48C141.88 92.008 142.616 92.272 143.544 92.272ZM157.91 94.24C156.39 94.24 155.174 93.792 154.262 92.896C153.35 91.984 152.894 90.752 152.894 89.2V80.8H155.054V89.2C155.054 90.192 155.31 90.968 155.822 91.528C156.334 92.072 157.03 92.344 157.91 92.344C158.806 92.344 159.51 92.072 160.022 91.528C160.55 90.968 160.814 90.192 160.814 89.2V80.8H162.974V89.2C162.974 90.752 162.51 91.984 161.582 92.896C160.654 93.792 159.43 94.24 157.91 94.24ZM185.564 94.24C184.172 94.24 183.076 93.888 182.276 93.184C181.476 92.464 181.076 91.496 181.076 90.28C181.076 89.048 181.476 88.08 182.276 87.376C183.076 86.672 184.156 86.32 185.516 86.32H189.596V85C189.596 84.184 189.348 83.56 188.852 83.128C188.372 82.68 187.684 82.456 186.788 82.456C186.004 82.456 185.348 82.624 184.82 82.96C184.292 83.28 183.988 83.72 183.908 84.28H181.748C181.892 83.144 182.428 82.24 183.356 81.568C184.284 80.896 185.444 80.56 186.836 80.56C188.356 80.56 189.556 80.952 190.436 81.736C191.316 82.52 191.756 83.584 191.756 84.928V94H189.644V91.48H189.284L189.644 91.12C189.644 92.08 189.268 92.84 188.516 93.4C187.78 93.96 186.796 94.24 185.564 94.24ZM186.092 92.536C187.116 92.536 187.956 92.28 188.612 91.768C189.268 91.256 189.596 90.6 189.596 89.8V87.928H185.564C184.844 87.928 184.276 88.128 183.86 88.528C183.444 88.928 183.236 89.472 183.236 90.16C183.236 90.896 183.484 91.48 183.98 91.912C184.492 92.328 185.196 92.536 186.092 92.536ZM200.698 94.192C199.802 94.192 199.018 94.056 198.346 93.784C197.69 93.496 197.162 93.096 196.762 92.584C196.378 92.072 196.146 91.464 196.066 90.76H198.226C198.322 91.224 198.578 91.592 198.994 91.864C199.426 92.136 199.994 92.272 200.698 92.272H201.706C202.554 92.272 203.186 92.104 203.602 91.768C204.018 91.416 204.226 90.952 204.226 90.376C204.226 89.816 204.034 89.376 203.65 89.056C203.282 88.72 202.73 88.496 201.994 88.384L200.218 88.096C198.922 87.872 197.954 87.472 197.314 86.896C196.69 86.304 196.378 85.448 196.378 84.328C196.378 83.144 196.754 82.232 197.506 81.592C198.258 80.936 199.386 80.608 200.89 80.608H201.802C203.066 80.608 204.082 80.904 204.85 81.496C205.618 82.088 206.082 82.888 206.242 83.896H204.082C203.986 83.48 203.746 83.152 203.362 82.912C202.978 82.656 202.458 82.528 201.802 82.528H200.89C200.074 82.528 199.474 82.68 199.09 82.984C198.722 83.288 198.538 83.744 198.538 84.352C198.538 84.896 198.698 85.296 199.018 85.552C199.338 85.808 199.842 85.992 200.53 86.104L202.306 86.392C203.73 86.616 204.762 87.032 205.402 87.64C206.058 88.248 206.386 89.128 206.386 90.28C206.386 91.496 205.994 92.456 205.21 93.16C204.442 93.848 203.274 94.192 201.706 94.192H200.698ZM210.577 94V76.48H212.737V86.248H215.281L219.121 80.8H221.593L217.153 87.088L221.665 94H219.145L215.305 88.12H212.737V94H210.577ZM229.888 94.24C228.848 94.24 227.936 94.032 227.152 93.616C226.384 93.2 225.784 92.616 225.352 91.864C224.936 91.096 224.728 90.208 224.728 89.2V85.6C224.728 84.576 224.936 83.688 225.352 82.936C225.784 82.184 226.384 81.6 227.152 81.184C227.936 80.768 228.848 80.56 229.888 80.56C230.928 80.56 231.832 80.768 232.6 81.184C233.384 81.6 233.984 82.184 234.4 82.936C234.832 83.688 235.048 84.576 235.048 85.6V87.928H226.84V89.2C226.84 90.24 227.104 91.04 227.632 91.6C228.16 92.144 228.912 92.416 229.888 92.416C230.72 92.416 231.392 92.272 231.904 91.984C232.416 91.68 232.728 91.232 232.84 90.64H235C234.856 91.744 234.312 92.624 233.368 93.28C232.44 93.92 231.28 94.24 229.888 94.24ZM232.936 86.488V85.6C232.936 84.56 232.672 83.76 232.144 83.2C231.632 82.64 230.88 82.36 229.888 82.36C228.912 82.36 228.16 82.64 227.632 83.2C227.104 83.76 226.84 84.56 226.84 85.6V86.296H233.104L232.936 86.488ZM243.51 94.24C242.198 94.24 241.134 93.8 240.318 92.92C239.518 92.04 239.118 90.848 239.118 89.344V85.48C239.118 83.96 239.518 82.76 240.318 81.88C241.118 81 242.182 80.56 243.51 80.56C244.598 80.56 245.47 80.856 246.126 81.448C246.782 82.04 247.11 82.832 247.11 83.824L246.678 83.32H247.158L247.11 80.32V76.48H249.27V94H247.11V91.48H246.678L247.11 90.976C247.11 91.984 246.782 92.784 246.126 93.376C245.47 93.952 244.598 94.24 243.51 94.24ZM244.23 92.368C245.126 92.368 245.83 92.088 246.342 91.528C246.854 90.968 247.11 90.192 247.11 89.2V85.6C247.11 84.608 246.854 83.832 246.342 83.272C245.83 82.712 245.126 82.432 244.23 82.432C243.318 82.432 242.598 82.704 242.07 83.248C241.542 83.792 241.278 84.576 241.278 85.6V89.2C241.278 90.224 241.542 91.008 242.07 91.552C242.598 92.096 243.318 92.368 244.23 92.368ZM271.139 94V84.088H267.299V82.12H271.139V79.84C271.139 78.8 271.467 77.984 272.123 77.392C272.779 76.784 273.683 76.48 274.835 76.48H278.699V78.448H274.835C274.339 78.448 273.955 78.568 273.683 78.808C273.427 79.032 273.299 79.376 273.299 79.84V82.12H278.699V84.088H273.299V94H271.139ZM287.45 94.192C286.394 94.192 285.482 93.992 284.714 93.592C283.946 93.192 283.346 92.616 282.914 91.864C282.498 91.096 282.29 90.192 282.29 89.152V85.648C282.29 84.592 282.498 83.688 282.914 82.936C283.346 82.184 283.946 81.608 284.714 81.208C285.482 80.808 286.394 80.608 287.45 80.608C288.506 80.608 289.418 80.808 290.186 81.208C290.954 81.608 291.546 82.184 291.962 82.936C292.394 83.688 292.61 84.584 292.61 85.624V89.152C292.61 90.192 292.394 91.096 291.962 91.864C291.546 92.616 290.954 93.192 290.186 93.592C289.418 93.992 288.506 94.192 287.45 94.192ZM287.45 92.272C288.394 92.272 289.13 92.008 289.658 91.48C290.186 90.952 290.45 90.176 290.45 89.152V85.648C290.45 84.624 290.186 83.848 289.658 83.32C289.13 82.792 288.394 82.528 287.45 82.528C286.522 82.528 285.786 82.792 285.242 83.32C284.714 83.848 284.45 84.624 284.45 85.648V89.152C284.45 90.176 284.714 90.952 285.242 91.48C285.786 92.008 286.522 92.272 287.45 92.272ZM297.305 94V80.8H299.417V83.32H299.921L299.225 84.88C299.225 83.456 299.529 82.384 300.137 81.664C300.761 80.928 301.681 80.56 302.897 80.56C304.289 80.56 305.393 81 306.209 81.88C307.041 82.744 307.457 83.92 307.457 85.408V86.2H305.297V85.6C305.297 84.56 305.041 83.768 304.529 83.224C304.033 82.664 303.321 82.384 302.393 82.384C301.481 82.384 300.761 82.664 300.233 83.224C299.721 83.784 299.465 84.576 299.465 85.6V94H297.305ZM316.231 84.16C315.639 84.16 315.159 84 314.791 83.68C314.423 83.344 314.239 82.904 314.239 82.36C314.239 81.816 314.423 81.384 314.791 81.064C315.159 80.728 315.639 80.56 316.231 80.56C316.839 80.56 317.319 80.728 317.671 81.064C318.039 81.384 318.223 81.816 318.223 82.36C318.223 82.904 318.039 83.344 317.671 83.68C317.319 84 316.839 84.16 316.231 84.16ZM316.231 94.24C315.639 94.24 315.159 94.08 314.791 93.76C314.423 93.424 314.239 92.984 314.239 92.44C314.239 91.896 314.423 91.464 314.791 91.144C315.159 90.808 315.639 90.64 316.231 90.64C316.839 90.64 317.319 90.808 317.671 91.144C318.039 91.464 318.223 91.896 318.223 92.44C318.223 92.984 318.039 93.424 317.671 93.76C317.319 94.08 316.839 94.24 316.231 94.24ZM57.128 138.56L54.368 135.2H56.768L59.408 138.56H57.128ZM71.5186 138.56L68.7586 135.2H71.1586L73.7986 138.56H71.5186ZM85.9093 138.56L83.1493 135.2H85.5493L88.1893 138.56H85.9093ZM95.2119 162.32V160.328H98.3079C99.2999 160.328 100.068 160.056 100.612 159.512C101.172 158.984 101.452 158.232 101.452 157.256V146.768H95.9319V144.8H103.612V157.256C103.612 158.808 103.132 160.04 102.172 160.952C101.212 161.864 99.9239 162.32 98.3079 162.32H95.2119ZM102.412 142.424C101.884 142.424 101.468 142.288 101.164 142.016C100.86 141.744 100.708 141.376 100.708 140.912C100.708 140.432 100.86 140.056 101.164 139.784C101.468 139.496 101.884 139.352 102.412 139.352C102.94 139.352 103.356 139.496 103.66 139.784C103.964 140.056 104.116 140.432 104.116 140.912C104.116 141.376 103.964 141.744 103.66 142.016C103.356 142.288 102.94 142.424 102.412 142.424ZM114.355 158.192C113.459 158.192 112.675 158.056 112.003 157.784C111.347 157.496 110.819 157.096 110.419 156.584C110.035 156.072 109.803 155.464 109.723 154.76H111.883C111.979 155.224 112.235 155.592 112.651 155.864C113.083 156.136 113.651 156.272 114.355 156.272H115.363C116.211 156.272 116.843 156.104 117.259 155.768C117.675 155.416 117.883 154.952 117.883 154.376C117.883 153.816 117.691 153.376 117.307 153.056C116.939 152.72 116.387 152.496 115.651 152.384L113.875 152.096C112.579 151.872 111.611 151.472 110.971 150.896C110.347 150.304 110.035 149.448 110.035 148.328C110.035 147.144 110.411 146.232 111.163 145.592C111.915 144.936 113.043 144.608 114.547 144.608H115.459C116.723 144.608 117.739 144.904 118.507 145.496C119.275 146.088 119.739 146.888 119.898 147.896H117.739C117.643 147.48 117.403 147.152 117.019 146.912C116.635 146.656 116.115 146.528 115.459 146.528H114.547C113.731 146.528 113.131 146.68 112.747 146.984C112.379 147.288 112.195 147.744 112.195 148.352C112.195 148.896 112.355 149.296 112.675 149.552C112.995 149.808 113.499 149.992 114.187 150.104L115.963 150.392C117.387 150.616 118.419 151.032 119.059 151.64C119.715 152.248 120.043 153.128 120.043 154.28C120.043 155.496 119.651 156.456 118.867 157.16C118.099 157.848 116.931 158.192 115.363 158.192H114.355ZM129.153 158.192C128.097 158.192 127.185 157.992 126.417 157.592C125.649 157.192 125.049 156.616 124.617 155.864C124.201 155.096 123.993 154.192 123.993 153.152V149.648C123.993 148.592 124.201 147.688 124.617 146.936C125.049 146.184 125.649 145.608 126.417 145.208C127.185 144.808 128.097 144.608 129.153 144.608C130.209 144.608 131.121 144.808 131.889 145.208C132.657 145.608 133.249 146.184 133.665 146.936C134.097 147.688 134.313 148.584 134.313 149.624V153.152C134.313 154.192 134.097 155.096 133.665 155.864C133.249 156.616 132.657 157.192 131.889 157.592C131.121 157.992 130.209 158.192 129.153 158.192ZM129.153 156.272C130.097 156.272 130.833 156.008 131.361 155.48C131.889 154.952 132.153 154.176 132.153 153.152V149.648C132.153 148.624 131.889 147.848 131.361 147.32C130.833 146.792 130.097 146.528 129.153 146.528C128.225 146.528 127.489 146.792 126.945 147.32C126.417 147.848 126.153 148.624 126.153 149.648V153.152C126.153 154.176 126.417 154.952 126.945 155.48C127.489 156.008 128.225 156.272 129.153 156.272ZM138.552 158V144.8H140.712V147.32H141.168L140.712 147.824C140.712 146.784 141.024 145.984 141.648 145.424C142.272 144.848 143.136 144.56 144.24 144.56C145.568 144.56 146.624 144.968 147.408 145.784C148.192 146.6 148.584 147.712 148.584 149.12V158H146.424V149.36C146.424 148.416 146.168 147.696 145.656 147.2C145.16 146.688 144.48 146.432 143.616 146.432C142.72 146.432 142.008 146.704 141.48 147.248C140.968 147.792 140.712 148.576 140.712 149.6V158H138.552ZM61.28 192.64C60.336 192.64 59.52 192.48 58.832 192.16C58.16 191.856 57.648 191.4 57.296 190.792C56.944 190.2 56.792 189.488 56.84 188.656L57.08 184.72C57.128 183.872 57 183.264 56.696 182.896C56.392 182.512 55.72 182.32 54.68 182.32H52.04V180.4H54.68C55.72 180.4 56.392 180.216 56.696 179.848C57 179.464 57.128 178.848 57.08 178L56.84 174.064C56.792 173.216 56.944 172.496 57.296 171.904C57.648 171.312 58.16 170.864 58.832 170.56C59.52 170.24 60.336 170.08 61.28 170.08H62.36V172H61.28C60.528 172 59.952 172.176 59.552 172.528C59.152 172.864 58.968 173.376 59 174.064L59.24 178C59.304 179.04 59.056 179.872 58.496 180.496C57.936 181.104 57.144 181.408 56.12 181.408V181.288C57.128 181.288 57.912 181.6 58.472 182.224C59.048 182.848 59.304 183.68 59.24 184.72L59 188.656C58.968 189.344 59.152 189.856 59.552 190.192C59.952 190.544 60.528 190.72 61.28 190.72H62.36V192.64H61.28ZM87.5413 211.68L87.2533 206.64V204.48H89.5813V206.64L89.3173 211.68H87.5413ZM82.6693 211.68L82.3813 206.64V204.48H84.7093V206.64L84.4453 211.68H82.6693ZM95.3799 222V208.8H97.5399V211.32H97.9959L97.5399 211.824C97.5399 210.784 97.8519 209.984 98.4759 209.424C99.0999 208.848 99.9639 208.56 101.068 208.56C102.396 208.56 103.452 208.968 104.236 209.784C105.02 210.6 105.412 211.712 105.412 213.12V222H103.252V213.36C103.252 212.416 102.996 211.696 102.484 211.2C101.988 210.688 101.308 210.432 100.444 210.432C99.5479 210.432 98.8359 210.704 98.3079 211.248C97.7959 211.792 97.5399 212.576 97.5399 213.6V222H95.3799ZM113.611 222.24C112.219 222.24 111.123 221.888 110.323 221.184C109.523 220.464 109.123 219.496 109.123 218.28C109.123 217.048 109.523 216.08 110.323 215.376C111.123 214.672 112.203 214.32 113.562 214.32H117.643V213C117.643 212.184 117.395 211.56 116.899 211.128C116.419 210.68 115.731 210.456 114.835 210.456C114.051 210.456 113.395 210.624 112.867 210.96C112.339 211.28 112.035 211.72 111.955 212.28H109.795C109.939 211.144 110.475 210.24 111.403 209.568C112.331 208.896 113.491 208.56 114.883 208.56C116.403 208.56 117.603 208.952 118.483 209.736C119.363 210.52 119.803 211.584 119.803 212.928V222H117.691V219.48H117.331L117.691 219.12C117.691 220.08 117.315 220.84 116.563 221.4C115.827 221.96 114.843 222.24 113.611 222.24ZM114.139 220.536C115.163 220.536 116.003 220.28 116.659 219.768C117.315 219.256 117.643 218.6 117.643 217.8V215.928H113.611C112.891 215.928 112.323 216.128 111.907 216.528C111.491 216.928 111.283 217.472 111.283 218.16C111.283 218.896 111.531 219.48 112.027 219.912C112.539 220.328 113.243 220.536 114.139 220.536ZM123.537 222V208.8H125.433V210.384H125.865L125.529 210.96C125.529 210.224 125.721 209.64 126.105 209.208C126.505 208.776 127.041 208.56 127.713 208.56C128.449 208.56 129.017 208.832 129.417 209.376C129.817 209.92 130.017 210.688 130.017 211.68L129.369 210.384H130.377L129.921 210.96C129.921 210.224 130.121 209.64 130.521 209.208C130.937 208.776 131.481 208.56 132.153 208.56C132.985 208.56 133.625 208.872 134.073 209.496C134.537 210.12 134.769 210.944 134.769 211.968V222H132.777V211.944C132.777 211.4 132.657 210.976 132.417 210.672C132.193 210.368 131.857 210.216 131.409 210.216C130.977 210.216 130.633 210.368 130.377 210.672C130.137 210.96 130.017 211.376 130.017 211.92V222H128.289V211.944C128.289 211.384 128.161 210.96 127.905 210.672C127.665 210.368 127.321 210.216 126.873 210.216C126.425 210.216 126.089 210.368 125.865 210.672C125.641 210.96 125.529 211.376 125.529 211.92V222H123.537ZM143.544 222.24C142.504 222.24 141.592 222.032 140.808 221.616C140.04 221.2 139.44 220.616 139.008 219.864C138.592 219.096 138.384 218.208 138.384 217.2V213.6C138.384 212.576 138.592 211.688 139.008 210.936C139.44 210.184 140.04 209.6 140.808 209.184C141.592 208.768 142.504 208.56 143.544 208.56C144.584 208.56 145.488 208.768 146.256 209.184C147.04 209.6 147.64 210.184 148.056 210.936C148.488 211.688 148.704 212.576 148.704 213.6V215.928H140.496V217.2C140.496 218.24 140.76 219.04 141.288 219.6C141.816 220.144 142.568 220.416 143.544 220.416C144.376 220.416 145.048 220.272 145.56 219.984C146.072 219.68 146.384 219.232 146.496 218.64H148.656C148.512 219.744 147.968 220.624 147.024 221.28C146.096 221.92 144.936 222.24 143.544 222.24ZM146.592 214.488V213.6C146.592 212.56 146.328 211.76 145.8 211.2C145.288 210.64 144.536 210.36 143.544 210.36C142.568 210.36 141.816 210.64 141.288 211.2C140.76 211.76 140.496 212.56 140.496 213.6V214.296H146.76L146.592 214.488ZM159.494 211.68L159.206 206.64V204.48H161.534V206.64L161.27 211.68H159.494ZM154.622 211.68L154.334 206.64V204.48H156.662V206.64L156.398 211.68H154.622ZM172.325 212.16C171.733 212.16 171.253 212 170.885 211.68C170.517 211.344 170.333 210.904 170.333 210.36C170.333 209.816 170.517 209.384 170.885 209.064C171.253 208.728 171.733 208.56 172.325 208.56C172.933 208.56 173.413 208.728 173.765 209.064C174.133 209.384 174.317 209.816 174.317 210.36C174.317 210.904 174.133 211.344 173.765 211.68C173.413 212 172.933 212.16 172.325 212.16ZM172.325 222.24C171.733 222.24 171.253 222.08 170.885 221.76C170.517 221.424 170.333 220.984 170.333 220.44C170.333 219.896 170.517 219.464 170.885 219.144C171.253 218.808 171.733 218.64 172.325 218.64C172.933 218.64 173.413 218.808 173.765 219.144C174.133 219.464 174.317 219.896 174.317 220.44C174.317 220.984 174.133 221.424 173.765 221.76C173.413 222.08 172.933 222.24 172.325 222.24ZM202.666 211.68L202.378 206.64V204.48H204.706V206.64L204.442 211.68H202.666ZM197.794 211.68L197.506 206.64V204.48H199.834V206.64L199.57 211.68H197.794ZM216.265 222.24C215.177 222.24 214.305 221.952 213.649 221.376C212.993 220.784 212.665 219.984 212.665 218.976L213.097 219.48H212.665V222H210.505V204.48H212.665V208.32L212.617 211.32H213.097L212.665 211.824C212.665 210.832 212.993 210.04 213.649 209.448C214.321 208.856 215.193 208.56 216.265 208.56C217.593 208.56 218.657 209 219.457 209.88C220.257 210.76 220.657 211.96 220.657 213.48V217.344C220.657 218.848 220.257 220.04 219.457 220.92C218.657 221.8 217.593 222.24 216.265 222.24ZM215.545 220.368C216.457 220.368 217.177 220.096 217.705 219.552C218.233 219.008 218.497 218.224 218.497 217.2V213.6C218.497 212.576 218.233 211.792 217.705 211.248C217.177 210.704 216.457 210.432 215.545 210.432C214.665 210.432 213.961 210.712 213.433 211.272C212.921 211.832 212.665 212.608 212.665 213.6V217.2C212.665 218.192 212.921 218.968 213.433 219.528C213.961 220.088 214.665 220.368 215.545 220.368ZM229.888 222.192C228.832 222.192 227.92 221.992 227.152 221.592C226.384 221.192 225.784 220.616 225.352 219.864C224.936 219.096 224.728 218.192 224.728 217.152V213.648C224.728 212.592 224.936 211.688 225.352 210.936C225.784 210.184 226.384 209.608 227.152 209.208C227.92 208.808 228.832 208.608 229.888 208.608C230.944 208.608 231.856 208.808 232.624 209.208C233.392 209.608 233.984 210.184 234.4 210.936C234.832 211.688 235.048 212.584 235.048 213.624V217.152C235.048 218.192 234.832 219.096 234.4 219.864C233.984 220.616 233.392 221.192 232.624 221.592C231.856 221.992 230.944 222.192 229.888 222.192ZM229.888 220.272C230.832 220.272 231.568 220.008 232.096 219.48C232.624 218.952 232.888 218.176 232.888 217.152V213.648C232.888 212.624 232.624 211.848 232.096 211.32C231.568 210.792 230.832 210.528 229.888 210.528C228.96 210.528 228.224 210.792 227.68 211.32C227.152 211.848 226.888 212.624 226.888 213.648V217.152C226.888 218.176 227.152 218.952 227.68 219.48C228.224 220.008 228.96 220.272 229.888 220.272ZM244.254 222.24C242.734 222.24 241.518 221.792 240.606 220.896C239.694 219.984 239.238 218.752 239.238 217.2V208.8H241.398V217.2C241.398 218.192 241.654 218.968 242.166 219.528C242.678 220.072 243.374 220.344 244.254 220.344C245.15 220.344 245.854 220.072 246.366 219.528C246.894 218.968 247.158 218.192 247.158 217.2V208.8H249.318V217.2C249.318 218.752 248.854 219.984 247.926 220.896C246.998 221.792 245.774 222.24 244.254 222.24ZM253.677 222V208.8H255.837V211.32H256.293L255.837 211.824C255.837 210.784 256.149 209.984 256.773 209.424C257.397 208.848 258.261 208.56 259.365 208.56C260.693 208.56 261.749 208.968 262.533 209.784C263.317 210.6 263.709 211.712 263.709 213.12V222H261.549V213.36C261.549 212.416 261.293 211.696 260.781 211.2C260.285 210.688 259.605 210.432 258.741 210.432C257.845 210.432 257.133 210.704 256.605 211.248C256.093 211.792 255.837 212.576 255.837 213.6V222H253.677ZM272.291 222.24C270.979 222.24 269.915 221.8 269.099 220.92C268.299 220.04 267.899 218.848 267.899 217.344V213.48C267.899 211.96 268.299 210.76 269.099 209.88C269.899 209 270.963 208.56 272.291 208.56C273.379 208.56 274.251 208.856 274.907 209.448C275.563 210.04 275.891 210.832 275.891 211.824L275.459 211.32H275.939L275.891 208.32V204.48H278.051V222H275.891V219.48H275.459L275.891 218.976C275.891 219.984 275.563 220.784 274.907 221.376C274.251 221.952 273.379 222.24 272.291 222.24ZM273.011 220.368C273.907 220.368 274.611 220.088 275.123 219.528C275.635 218.968 275.891 218.192 275.891 217.2V213.6C275.891 212.608 275.635 211.832 275.123 211.272C274.611 210.712 273.907 210.432 273.011 210.432C272.099 210.432 271.379 210.704 270.851 211.248C270.323 211.792 270.059 212.576 270.059 213.6V217.2C270.059 218.224 270.323 219.008 270.851 219.552C271.379 220.096 272.099 220.368 273.011 220.368ZM286.298 222.24C284.906 222.24 283.81 221.888 283.01 221.184C282.21 220.464 281.81 219.496 281.81 218.28C281.81 217.048 282.21 216.08 283.01 215.376C283.81 214.672 284.89 214.32 286.25 214.32H290.33V213C290.33 212.184 290.082 211.56 289.586 211.128C289.106 210.68 288.418 210.456 287.522 210.456C286.738 210.456 286.082 210.624 285.554 210.96C285.026 211.28 284.722 211.72 284.642 212.28H282.482C282.626 211.144 283.162 210.24 284.09 209.568C285.018 208.896 286.178 208.56 287.57 208.56C289.09 208.56 290.29 208.952 291.17 209.736C292.05 210.52 292.49 211.584 292.49 212.928V222H290.378V219.48H290.018L290.378 219.12C290.378 220.08 290.002 220.84 289.25 221.4C288.514 221.96 287.53 222.24 286.298 222.24ZM286.826 220.536C287.85 220.536 288.69 220.28 289.346 219.768C290.002 219.256 290.33 218.6 290.33 217.8V215.928H286.298C285.578 215.928 285.01 216.128 284.594 216.528C284.178 216.928 283.97 217.472 283.97 218.16C283.97 218.896 284.218 219.48 284.714 219.912C285.226 220.328 285.93 220.536 286.826 220.536ZM297.305 222V208.8H299.417V211.32H299.921L299.225 212.88C299.225 211.456 299.529 210.384 300.137 209.664C300.761 208.928 301.681 208.56 302.897 208.56C304.289 208.56 305.393 209 306.209 209.88C307.041 210.744 307.457 211.92 307.457 213.408V214.2H305.297V213.6C305.297 212.56 305.041 211.768 304.529 211.224C304.033 210.664 303.321 210.384 302.393 210.384C301.481 210.384 300.761 210.664 300.233 211.224C299.721 211.784 299.465 212.576 299.465 213.6V222H297.305ZM313.303 226.32L315.247 221.184L310.351 208.8H312.751L315.823 216.96C315.935 217.232 316.039 217.56 316.135 217.944C316.231 218.312 316.311 218.624 316.375 218.88C316.439 218.624 316.519 218.312 316.615 217.944C316.711 217.56 316.807 217.232 316.903 216.96L319.783 208.8H322.111L315.607 226.32H313.303ZM325.006 222V208.8H326.902V210.384H327.334L326.998 210.96C326.998 210.224 327.19 209.64 327.574 209.208C327.974 208.776 328.51 208.56 329.182 208.56C329.918 208.56 330.486 208.832 330.886 209.376C331.286 209.92 331.486 210.688 331.486 211.68L330.838 210.384H331.846L331.39 210.96C331.39 210.224 331.59 209.64 331.99 209.208C332.406 208.776 332.95 208.56 333.622 208.56C334.454 208.56 335.094 208.872 335.542 209.496C336.006 210.12 336.238 210.944 336.238 211.968V222H334.246V211.944C334.246 211.4 334.126 210.976 333.886 210.672C333.662 210.368 333.326 210.216 332.878 210.216C332.446 210.216 332.102 210.368 331.846 210.672C331.606 210.96 331.486 211.376 331.486 211.92V222H329.758V211.944C329.758 211.384 329.63 210.96 329.374 210.672C329.134 210.368 328.79 210.216 328.342 210.216C327.894 210.216 327.558 210.368 327.334 210.672C327.11 210.96 326.998 211.376 326.998 211.92V222H325.006ZM346.813 222C346.045 222 345.373 221.848 344.797 221.544C344.221 221.24 343.773 220.808 343.453 220.248C343.133 219.688 342.973 219.032 342.973 218.28V206.448H338.533V204.48H345.133V218.28C345.133 218.824 345.285 219.256 345.589 219.576C345.893 219.88 346.301 220.032 346.813 220.032H351.013V222H346.813ZM360.963 211.68L360.675 206.64V204.48H363.003V206.64L362.739 211.68H360.963ZM356.091 211.68L355.803 206.64V204.48H358.131V206.64L357.867 211.68H356.091ZM370.554 225.84L372.474 218.376H375.594L372.474 225.84H370.554ZM87.5413 243.68L87.2533 238.64V236.48H89.5813V238.64L89.3173 243.68H87.5413ZM82.6693 243.68L82.3813 238.64V236.48H84.7093V238.64L84.4453 243.68H82.6693ZM95.3799 258.32V240.8H97.5399V243.32H97.9719L97.5399 243.824C97.5399 242.816 97.8679 242.024 98.5239 241.448C99.1959 240.856 100.076 240.56 101.164 240.56C102.492 240.56 103.548 241 104.332 241.88C105.132 242.744 105.532 243.936 105.532 245.456V249.32C105.532 250.328 105.348 251.2 104.98 251.936C104.628 252.672 104.124 253.24 103.468 253.64C102.828 254.04 102.06 254.24 101.164 254.24C100.092 254.24 99.2199 253.944 98.5479 253.352C97.8759 252.76 97.5399 251.968 97.5399 250.976L97.9719 251.48H97.4919L97.5399 254.48V258.32H95.3799ZM100.444 252.368C101.356 252.368 102.068 252.096 102.58 251.552C103.108 251.008 103.372 250.224 103.372 249.2V245.6C103.372 244.576 103.108 243.792 102.58 243.248C102.068 242.704 101.356 242.432 100.444 242.432C99.5639 242.432 98.8599 242.712 98.3319 243.272C97.8039 243.832 97.5399 244.608 97.5399 245.6V249.2C97.5399 250.192 97.8039 250.968 98.3319 251.528C98.8599 252.088 99.5639 252.368 100.444 252.368ZM110.227 254V240.8H112.339V243.32H112.843L112.147 244.88C112.147 243.456 112.451 242.384 113.059 241.664C113.683 240.928 114.603 240.56 115.819 240.56C117.211 240.56 118.315 241 119.131 241.88C119.963 242.744 120.379 243.92 120.379 245.408V246.2H118.219V245.6C118.219 244.56 117.963 243.768 117.451 243.224C116.955 242.664 116.243 242.384 115.315 242.384C114.403 242.384 113.683 242.664 113.155 243.224C112.643 243.784 112.387 244.576 112.387 245.6V254H110.227ZM129.153 254.192C128.097 254.192 127.185 253.992 126.417 253.592C125.649 253.192 125.049 252.616 124.617 251.864C124.201 251.096 123.993 250.192 123.993 249.152V245.648C123.993 244.592 124.201 243.688 124.617 242.936C125.049 242.184 125.649 241.608 126.417 241.208C127.185 240.808 128.097 240.608 129.153 240.608C130.209 240.608 131.121 240.808 131.889 241.208C132.657 241.608 133.249 242.184 133.665 242.936C134.097 243.688 134.313 244.584 134.313 245.624V249.152C134.313 250.192 134.097 251.096 133.665 251.864C133.249 252.616 132.657 253.192 131.889 253.592C131.121 253.992 130.209 254.192 129.153 254.192ZM129.153 252.272C130.097 252.272 130.833 252.008 131.361 251.48C131.889 250.952 132.153 250.176 132.153 249.152V245.648C132.153 244.624 131.889 243.848 131.361 243.32C130.833 242.792 130.097 242.528 129.153 242.528C128.225 242.528 127.489 242.792 126.945 243.32C126.417 243.848 126.153 244.624 126.153 245.648V249.152C126.153 250.176 126.417 250.952 126.945 251.48C127.489 252.008 128.225 252.272 129.153 252.272ZM142.776 254.24C141.464 254.24 140.4 253.8 139.584 252.92C138.784 252.04 138.384 250.848 138.384 249.344V245.48C138.384 243.96 138.784 242.76 139.584 241.88C140.384 241 141.448 240.56 142.776 240.56C143.864 240.56 144.736 240.856 145.392 241.448C146.048 242.04 146.376 242.832 146.376 243.824L145.944 243.32H146.424L146.376 240.32V236.48H148.536V254H146.376V251.48H145.944L146.376 250.976C146.376 251.984 146.048 252.784 145.392 253.376C144.736 253.952 143.864 254.24 142.776 254.24ZM143.496 252.368C144.392 252.368 145.096 252.088 145.608 251.528C146.12 250.968 146.376 250.192 146.376 249.2V245.6C146.376 244.608 146.12 243.832 145.608 243.272C145.096 242.712 144.392 242.432 143.496 242.432C142.584 242.432 141.864 242.704 141.336 243.248C140.808 243.792 140.544 244.576 140.544 245.6V249.2C140.544 250.224 140.808 251.008 141.336 251.552C141.864 252.096 142.584 252.368 143.496 252.368ZM157.91 254.24C156.39 254.24 155.174 253.792 154.262 252.896C153.35 251.984 152.894 250.752 152.894 249.2V240.8H155.054V249.2C155.054 250.192 155.31 250.968 155.822 251.528C156.334 252.072 157.03 252.344 157.91 252.344C158.806 252.344 159.51 252.072 160.022 251.528C160.55 250.968 160.814 250.192 160.814 249.2V240.8H162.974V249.2C162.974 250.752 162.51 251.984 161.582 252.896C160.654 253.792 159.43 254.24 157.91 254.24ZM172.421 254.24C171.365 254.24 170.437 254.04 169.637 253.64C168.853 253.24 168.245 252.664 167.813 251.912C167.381 251.144 167.165 250.24 167.165 249.2V245.6C167.165 244.544 167.381 243.64 167.813 242.888C168.245 242.136 168.853 241.56 169.637 241.16C170.437 240.76 171.365 240.56 172.421 240.56C173.941 240.56 175.165 240.968 176.093 241.784C177.021 242.6 177.509 243.712 177.557 245.12H175.397C175.349 244.272 175.061 243.624 174.533 243.176C174.021 242.712 173.317 242.48 172.421 242.48C171.477 242.48 170.725 242.752 170.165 243.296C169.605 243.824 169.325 244.584 169.325 245.576V249.2C169.325 250.192 169.605 250.96 170.165 251.504C170.725 252.048 171.477 252.32 172.421 252.32C173.317 252.32 174.021 252.088 174.533 251.624C175.061 251.16 175.349 250.512 175.397 249.68H177.557C177.509 251.088 177.021 252.2 176.093 253.016C175.165 253.832 173.941 254.24 172.421 254.24ZM188.156 254C187.02 254 186.132 253.696 185.492 253.088C184.868 252.48 184.556 251.624 184.556 250.52V242.768H180.836V240.8H184.556V237.08H186.716V240.8H191.996V242.768H186.716V250.52C186.716 251.528 187.196 252.032 188.156 252.032H191.756V254H188.156ZM202.666 243.68L202.378 238.64V236.48H204.706V238.64L204.442 243.68H202.666ZM197.794 243.68L197.506 238.64V236.48H199.834V238.64L199.57 243.68H197.794ZM215.497 244.16C214.905 244.16 214.425 244 214.057 243.68C213.689 243.344 213.505 242.904 213.505 242.36C213.505 241.816 213.689 241.384 214.057 241.064C214.425 240.728 214.905 240.56 215.497 240.56C216.105 240.56 216.585 240.728 216.937 241.064C217.305 241.384 217.489 241.816 217.489 242.36C217.489 242.904 217.305 243.344 216.937 243.68C216.585 244 216.105 244.16 215.497 244.16ZM215.497 254.24C214.905 254.24 214.425 254.08 214.057 253.76C213.689 253.424 213.505 252.984 213.505 252.44C213.505 251.896 213.689 251.464 214.057 251.144C214.425 250.808 214.905 250.64 215.497 250.64C216.105 250.64 216.585 250.808 216.937 251.144C217.305 251.464 217.489 251.896 217.489 252.44C217.489 252.984 217.305 253.424 216.937 253.76C216.585 254.08 216.105 254.24 215.497 254.24ZM245.838 243.68L245.55 238.64V236.48H247.878V238.64L247.614 243.68H245.838ZM240.966 243.68L240.678 238.64V236.48H243.006V238.64L242.742 243.68H240.966ZM259.437 254.24C258.349 254.24 257.477 253.952 256.821 253.376C256.165 252.784 255.837 251.984 255.837 250.976L256.269 251.48H255.837V254H253.677V236.48H255.837V240.32L255.789 243.32H256.269L255.837 243.824C255.837 242.832 256.165 242.04 256.821 241.448C257.493 240.856 258.365 240.56 259.437 240.56C260.765 240.56 261.829 241 262.629 241.88C263.429 242.76 263.829 243.96 263.829 245.48V249.344C263.829 250.848 263.429 252.04 262.629 252.92C261.829 253.8 260.765 254.24 259.437 254.24ZM258.717 252.368C259.629 252.368 260.349 252.096 260.877 251.552C261.405 251.008 261.669 250.224 261.669 249.2V245.6C261.669 244.576 261.405 243.792 260.877 243.248C260.349 242.704 259.629 242.432 258.717 242.432C257.837 242.432 257.133 242.712 256.605 243.272C256.093 243.832 255.837 244.608 255.837 245.6V249.2C255.837 250.192 256.093 250.968 256.605 251.528C257.133 252.088 257.837 252.368 258.717 252.368ZM271.907 254.24C270.515 254.24 269.419 253.888 268.619 253.184C267.819 252.464 267.419 251.496 267.419 250.28C267.419 249.048 267.819 248.08 268.619 247.376C269.419 246.672 270.499 246.32 271.859 246.32H275.939V245C275.939 244.184 275.691 243.56 275.195 243.128C274.715 242.68 274.027 242.456 273.131 242.456C272.347 242.456 271.691 242.624 271.163 242.96C270.635 243.28 270.331 243.72 270.251 244.28H268.091C268.235 243.144 268.771 242.24 269.699 241.568C270.627 240.896 271.787 240.56 273.179 240.56C274.699 240.56 275.899 240.952 276.779 241.736C277.659 242.52 278.099 243.584 278.099 244.928V254H275.987V251.48H275.627L275.987 251.12C275.987 252.08 275.611 252.84 274.859 253.4C274.123 253.96 273.139 254.24 271.907 254.24ZM272.435 252.536C273.459 252.536 274.299 252.28 274.955 251.768C275.611 251.256 275.939 250.6 275.939 249.8V247.928H271.907C271.187 247.928 270.619 248.128 270.203 248.528C269.787 248.928 269.579 249.472 269.579 250.16C269.579 250.896 269.827 251.48 270.323 251.912C270.835 252.328 271.539 252.536 272.435 252.536ZM281.834 254V240.8H283.73V242.384H284.162L283.826 242.96C283.826 242.224 284.018 241.64 284.402 241.208C284.802 240.776 285.338 240.56 286.01 240.56C286.746 240.56 287.314 240.832 287.714 241.376C288.114 241.92 288.314 242.688 288.314 243.68L287.666 242.384H288.674L288.218 242.96C288.218 242.224 288.418 241.64 288.818 241.208C289.234 240.776 289.778 240.56 290.45 240.56C291.282 240.56 291.922 240.872 292.37 241.496C292.834 242.12 293.066 242.944 293.066 243.968V254H291.074V243.944C291.074 243.4 290.954 242.976 290.714 242.672C290.49 242.368 290.154 242.216 289.706 242.216C289.274 242.216 288.93 242.368 288.674 242.672C288.434 242.96 288.314 243.376 288.314 243.92V254H286.586V243.944C286.586 243.384 286.458 242.96 286.202 242.672C285.962 242.368 285.618 242.216 285.17 242.216C284.722 242.216 284.386 242.368 284.162 242.672C283.938 242.96 283.826 243.376 283.826 243.92V254H281.834ZM303.641 254C302.873 254 302.201 253.848 301.625 253.544C301.049 253.24 300.601 252.808 300.281 252.248C299.961 251.688 299.801 251.032 299.801 250.28V238.448H295.361V236.48H301.961V250.28C301.961 250.824 302.113 251.256 302.417 251.576C302.721 251.88 303.129 252.032 303.641 252.032H307.841V254H303.641ZM317.791 243.68L317.503 238.64V236.48H319.831V238.64L319.567 243.68H317.791ZM312.919 243.68L312.631 238.64V236.48H314.959V238.64L314.695 243.68H312.919ZM327.382 257.84L329.302 250.376H332.422L329.302 257.84H327.382ZM87.5413 275.68L87.2533 270.64V268.48H89.5813V270.64L89.3173 275.68H87.5413ZM82.6693 275.68L82.3813 270.64V268.48H84.7093V270.64L84.4453 275.68H82.6693ZM102.172 286C101.404 286 100.732 285.848 100.156 285.544C99.5799 285.24 99.1319 284.808 98.8119 284.248C98.4919 283.688 98.3319 283.032 98.3319 282.28V270.448H93.8919V268.48H100.492V282.28C100.492 282.824 100.644 283.256 100.948 283.576C101.252 283.88 101.66 284.032 102.172 284.032H106.372V286H102.172ZM113.611 286.24C112.219 286.24 111.123 285.888 110.323 285.184C109.523 284.464 109.123 283.496 109.123 282.28C109.123 281.048 109.523 280.08 110.323 279.376C111.123 278.672 112.203 278.32 113.562 278.32H117.643V277C117.643 276.184 117.395 275.56 116.899 275.128C116.419 274.68 115.731 274.456 114.835 274.456C114.051 274.456 113.395 274.624 112.867 274.96C112.339 275.28 112.035 275.72 111.955 276.28H109.795C109.939 275.144 110.475 274.24 111.403 273.568C112.331 272.896 113.491 272.56 114.883 272.56C116.403 272.56 117.603 272.952 118.483 273.736C119.363 274.52 119.803 275.584 119.803 276.928V286H117.691V283.48H117.331L117.691 283.12C117.691 284.08 117.315 284.84 116.563 285.4C115.827 285.96 114.843 286.24 113.611 286.24ZM114.139 284.536C115.163 284.536 116.003 284.28 116.659 283.768C117.315 283.256 117.643 282.6 117.643 281.8V279.928H113.611C112.891 279.928 112.323 280.128 111.907 280.528C111.491 280.928 111.283 281.472 111.283 282.16C111.283 282.896 111.531 283.48 112.027 283.912C112.539 284.328 113.243 284.536 114.139 284.536ZM124.161 286V272.8H126.321V275.32H126.777L126.321 275.824C126.321 274.784 126.633 273.984 127.257 273.424C127.881 272.848 128.745 272.56 129.849 272.56C131.177 272.56 132.233 272.968 133.017 273.784C133.801 274.6 134.193 275.712 134.193 277.12V286H132.033V277.36C132.033 276.416 131.777 275.696 131.265 275.2C130.769 274.688 130.089 274.432 129.225 274.432C128.329 274.432 127.617 274.704 127.089 275.248C126.577 275.792 126.321 276.576 126.321 277.6V286H124.161ZM140.208 290.32V288.352H144.408C145.08 288.352 145.568 288.2 145.872 287.896C146.192 287.592 146.352 287.12 146.352 286.48V284.8L146.4 282.4H145.968L146.376 282.04C146.376 283 146.056 283.76 145.416 284.32C144.776 284.88 143.92 285.16 142.848 285.16C141.488 285.16 140.416 284.72 139.632 283.84C138.848 282.944 138.456 281.744 138.456 280.24V277.456C138.456 275.952 138.848 274.76 139.632 273.88C140.416 273 141.488 272.56 142.848 272.56C143.92 272.56 144.776 272.84 145.416 273.4C146.056 273.96 146.376 274.72 146.376 275.68L145.968 275.32H146.376V272.8H148.512V286.48C148.512 287.664 148.144 288.6 147.408 289.288C146.688 289.976 145.68 290.32 144.384 290.32H140.208ZM143.496 283.288C144.392 283.288 145.096 283.008 145.608 282.448C146.12 281.888 146.376 281.112 146.376 280.12V277.6C146.376 276.608 146.12 275.832 145.608 275.272C145.096 274.712 144.392 274.432 143.496 274.432C142.584 274.432 141.872 274.704 141.36 275.248C140.864 275.792 140.616 276.576 140.616 277.6V280.12C140.616 281.144 140.864 281.928 141.36 282.472C141.872 283.016 142.584 283.288 143.496 283.288ZM157.91 286.24C156.39 286.24 155.174 285.792 154.262 284.896C153.35 283.984 152.894 282.752 152.894 281.2V272.8H155.054V281.2C155.054 282.192 155.31 282.968 155.822 283.528C156.334 284.072 157.03 284.344 157.91 284.344C158.806 284.344 159.51 284.072 160.022 283.528C160.55 282.968 160.814 282.192 160.814 281.2V272.8H162.974V281.2C162.974 282.752 162.51 283.984 161.582 284.896C160.654 285.792 159.43 286.24 157.91 286.24ZM171.173 286.24C169.781 286.24 168.685 285.888 167.885 285.184C167.085 284.464 166.685 283.496 166.685 282.28C166.685 281.048 167.085 280.08 167.885 279.376C168.685 278.672 169.765 278.32 171.125 278.32H175.205V277C175.205 276.184 174.957 275.56 174.461 275.128C173.981 274.68 173.293 274.456 172.397 274.456C171.613 274.456 170.957 274.624 170.429 274.96C169.901 275.28 169.597 275.72 169.517 276.28H167.357C167.501 275.144 168.037 274.24 168.965 273.568C169.893 272.896 171.053 272.56 172.445 272.56C173.965 272.56 175.165 272.952 176.045 273.736C176.925 274.52 177.365 275.584 177.365 276.928V286H175.253V283.48H174.893L175.253 283.12C175.253 284.08 174.877 284.84 174.125 285.4C173.389 285.96 172.405 286.24 171.173 286.24ZM171.701 284.536C172.725 284.536 173.565 284.28 174.221 283.768C174.877 283.256 175.205 282.6 175.205 281.8V279.928H171.173C170.453 279.928 169.885 280.128 169.469 280.528C169.053 280.928 168.845 281.472 168.845 282.16C168.845 282.896 169.093 283.48 169.589 283.912C170.101 284.328 170.805 284.536 171.701 284.536ZM183.38 290.32V288.352H187.58C188.252 288.352 188.74 288.2 189.044 287.896C189.364 287.592 189.524 287.12 189.524 286.48V284.8L189.572 282.4H189.14L189.548 282.04C189.548 283 189.228 283.76 188.588 284.32C187.948 284.88 187.092 285.16 186.02 285.16C184.66 285.16 183.588 284.72 182.804 283.84C182.02 282.944 181.628 281.744 181.628 280.24V277.456C181.628 275.952 182.02 274.76 182.804 273.88C183.588 273 184.66 272.56 186.02 272.56C187.092 272.56 187.948 272.84 188.588 273.4C189.228 273.96 189.548 274.72 189.548 275.68L189.14 275.32H189.548V272.8H191.684V286.48C191.684 287.664 191.316 288.6 190.58 289.288C189.86 289.976 188.852 290.32 187.556 290.32H183.38ZM186.668 283.288C187.564 283.288 188.268 283.008 188.78 282.448C189.292 281.888 189.548 281.112 189.548 280.12V277.6C189.548 276.608 189.292 275.832 188.78 275.272C188.268 274.712 187.564 274.432 186.668 274.432C185.756 274.432 185.044 274.704 184.532 275.248C184.036 275.792 183.788 276.576 183.788 277.6V280.12C183.788 281.144 184.036 281.928 184.532 282.472C185.044 283.016 185.756 283.288 186.668 283.288ZM201.106 286.24C200.066 286.24 199.154 286.032 198.37 285.616C197.602 285.2 197.002 284.616 196.57 283.864C196.154 283.096 195.946 282.208 195.946 281.2V277.6C195.946 276.576 196.154 275.688 196.57 274.936C197.002 274.184 197.602 273.6 198.37 273.184C199.154 272.768 200.066 272.56 201.106 272.56C202.146 272.56 203.05 272.768 203.818 273.184C204.602 273.6 205.202 274.184 205.618 274.936C206.05 275.688 206.266 276.576 206.266 277.6V279.928H198.058V281.2C198.058 282.24 198.322 283.04 198.85 283.6C199.378 284.144 200.13 284.416 201.106 284.416C201.938 284.416 202.61 284.272 203.122 283.984C203.634 283.68 203.946 283.232 204.058 282.64H206.218C206.074 283.744 205.53 284.624 204.586 285.28C203.658 285.92 202.498 286.24 201.106 286.24ZM204.154 278.488V277.6C204.154 276.56 203.89 275.76 203.362 275.2C202.85 274.64 202.098 274.36 201.106 274.36C200.13 274.36 199.378 274.64 198.85 275.2C198.322 275.76 198.058 276.56 198.058 277.6V278.296H204.322L204.154 278.488ZM215.089 286.192C214.193 286.192 213.409 286.056 212.737 285.784C212.081 285.496 211.553 285.096 211.153 284.584C210.769 284.072 210.537 283.464 210.457 282.76H212.617C212.713 283.224 212.969 283.592 213.385 283.864C213.817 284.136 214.385 284.272 215.089 284.272H216.097C216.945 284.272 217.577 284.104 217.993 283.768C218.409 283.416 218.617 282.952 218.617 282.376C218.617 281.816 218.425 281.376 218.041 281.056C217.673 280.72 217.121 280.496 216.385 280.384L214.609 280.096C213.313 279.872 212.345 279.472 211.705 278.896C211.081 278.304 210.769 277.448 210.769 276.328C210.769 275.144 211.145 274.232 211.897 273.592C212.649 272.936 213.777 272.608 215.281 272.608H216.193C217.457 272.608 218.473 272.904 219.241 273.496C220.009 274.088 220.473 274.888 220.633 275.896H218.473C218.377 275.48 218.137 275.152 217.753 274.912C217.369 274.656 216.849 274.528 216.193 274.528H215.281C214.465 274.528 213.865 274.68 213.481 274.984C213.113 275.288 212.929 275.744 212.929 276.352C212.929 276.896 213.089 277.296 213.409 277.552C213.729 277.808 214.233 277.992 214.921 278.104L216.697 278.392C218.121 278.616 219.153 279.032 219.793 279.64C220.449 280.248 220.777 281.128 220.777 282.28C220.777 283.496 220.385 284.456 219.601 285.16C218.833 285.848 217.665 286.192 216.097 286.192H215.089ZM224.128 288.4V286.6H235.648V288.4H224.128ZM243.87 286.192C242.974 286.192 242.19 286.056 241.518 285.784C240.862 285.496 240.334 285.096 239.934 284.584C239.55 284.072 239.318 283.464 239.238 282.76H241.398C241.494 283.224 241.75 283.592 242.166 283.864C242.598 284.136 243.166 284.272 243.87 284.272H244.878C245.726 284.272 246.358 284.104 246.774 283.768C247.19 283.416 247.398 282.952 247.398 282.376C247.398 281.816 247.206 281.376 246.822 281.056C246.454 280.72 245.902 280.496 245.166 280.384L243.39 280.096C242.094 279.872 241.126 279.472 240.486 278.896C239.862 278.304 239.55 277.448 239.55 276.328C239.55 275.144 239.926 274.232 240.678 273.592C241.43 272.936 242.558 272.608 244.062 272.608H244.974C246.238 272.608 247.254 272.904 248.022 273.496C248.79 274.088 249.254 274.888 249.414 275.896H247.254C247.158 275.48 246.918 275.152 246.534 274.912C246.15 274.656 245.63 274.528 244.974 274.528H244.062C243.246 274.528 242.646 274.68 242.262 274.984C241.894 275.288 241.71 275.744 241.71 276.352C241.71 276.896 241.87 277.296 242.19 277.552C242.51 277.808 243.014 277.992 243.702 278.104L245.478 278.392C246.902 278.616 247.934 279.032 248.574 279.64C249.23 280.248 249.558 281.128 249.558 282.28C249.558 283.496 249.166 284.456 248.382 285.16C247.614 285.848 246.446 286.192 244.878 286.192H243.87ZM258.645 286.24C257.125 286.24 255.909 285.792 254.997 284.896C254.085 283.984 253.629 282.752 253.629 281.2V272.8H255.789V281.2C255.789 282.192 256.045 282.968 256.557 283.528C257.069 284.072 257.765 284.344 258.645 284.344C259.541 284.344 260.245 284.072 260.757 283.528C261.285 282.968 261.549 282.192 261.549 281.2V272.8H263.709V281.2C263.709 282.752 263.245 283.984 262.317 284.896C261.389 285.792 260.165 286.24 258.645 286.24ZM268.067 290.32V272.8H270.227V275.32H270.659L270.227 275.824C270.227 274.816 270.555 274.024 271.211 273.448C271.883 272.856 272.763 272.56 273.851 272.56C275.179 272.56 276.235 273 277.019 273.88C277.819 274.744 278.219 275.936 278.219 277.456V281.32C278.219 282.328 278.035 283.2 277.667 283.936C277.315 284.672 276.811 285.24 276.155 285.64C275.515 286.04 274.747 286.24 273.851 286.24C272.779 286.24 271.907 285.944 271.235 285.352C270.563 284.76 270.227 283.968 270.227 282.976L270.659 283.48H270.179L270.227 286.48V290.32H268.067ZM273.131 284.368C274.043 284.368 274.755 284.096 275.267 283.552C275.795 283.008 276.059 282.224 276.059 281.2V277.6C276.059 276.576 275.795 275.792 275.267 275.248C274.755 274.704 274.043 274.432 273.131 274.432C272.251 274.432 271.547 274.712 271.019 275.272C270.491 275.832 270.227 276.608 270.227 277.6V281.2C270.227 282.192 270.491 282.968 271.019 283.528C271.547 284.088 272.251 284.368 273.131 284.368ZM282.458 290.32V272.8H284.618V275.32H285.05L284.618 275.824C284.618 274.816 284.946 274.024 285.602 273.448C286.274 272.856 287.154 272.56 288.242 272.56C289.57 272.56 290.626 273 291.41 273.88C292.21 274.744 292.61 275.936 292.61 277.456V281.32C292.61 282.328 292.426 283.2 292.058 283.936C291.706 284.672 291.202 285.24 290.546 285.64C289.906 286.04 289.138 286.24 288.242 286.24C287.17 286.24 286.298 285.944 285.626 285.352C284.954 284.76 284.618 283.968 284.618 282.976L285.05 283.48H284.57L284.618 286.48V290.32H282.458ZM287.522 284.368C288.434 284.368 289.146 284.096 289.658 283.552C290.186 283.008 290.45 282.224 290.45 281.2V277.6C290.45 276.576 290.186 275.792 289.658 275.248C289.146 274.704 288.434 274.432 287.522 274.432C286.642 274.432 285.938 274.712 285.41 275.272C284.882 275.832 284.618 276.608 284.618 277.6V281.2C284.618 282.192 284.882 282.968 285.41 283.528C285.938 284.088 286.642 284.368 287.522 284.368ZM301.841 286.192C300.785 286.192 299.873 285.992 299.105 285.592C298.337 285.192 297.737 284.616 297.305 283.864C296.889 283.096 296.681 282.192 296.681 281.152V277.648C296.681 276.592 296.889 275.688 297.305 274.936C297.737 274.184 298.337 273.608 299.105 273.208C299.873 272.808 300.785 272.608 301.841 272.608C302.897 272.608 303.809 272.808 304.577 273.208C305.345 273.608 305.937 274.184 306.353 274.936C306.785 275.688 307.001 276.584 307.001 277.624V281.152C307.001 282.192 306.785 283.096 306.353 283.864C305.937 284.616 305.345 285.192 304.577 285.592C303.809 285.992 302.897 286.192 301.841 286.192ZM301.841 284.272C302.785 284.272 303.521 284.008 304.049 283.48C304.577 282.952 304.841 282.176 304.841 281.152V277.648C304.841 276.624 304.577 275.848 304.049 275.32C303.521 274.792 302.785 274.528 301.841 274.528C300.913 274.528 300.177 274.792 299.633 275.32C299.105 275.848 298.841 276.624 298.841 277.648V281.152C298.841 282.176 299.105 282.952 299.633 283.48C300.177 284.008 300.913 284.272 301.841 284.272ZM311.695 286V272.8H313.807V275.32H314.311L313.615 276.88C313.615 275.456 313.919 274.384 314.527 273.664C315.151 272.928 316.071 272.56 317.287 272.56C318.679 272.56 319.783 273 320.599 273.88C321.431 274.744 321.847 275.92 321.847 277.408V278.2H319.687V277.6C319.687 276.56 319.431 275.768 318.919 275.224C318.423 274.664 317.711 274.384 316.783 274.384C315.871 274.384 315.151 274.664 314.623 275.224C314.111 275.784 313.855 276.576 313.855 277.6V286H311.695ZM332.062 286C330.926 286 330.038 285.696 329.398 285.088C328.774 284.48 328.462 283.624 328.462 282.52V274.768H324.742V272.8H328.462V269.08H330.622V272.8H335.902V274.768H330.622V282.52C330.622 283.528 331.102 284.032 332.062 284.032H335.662V286H332.062ZM345.013 286.24C343.973 286.24 343.061 286.032 342.277 285.616C341.509 285.2 340.909 284.616 340.477 283.864C340.061 283.096 339.853 282.208 339.853 281.2V277.6C339.853 276.576 340.061 275.688 340.477 274.936C340.909 274.184 341.509 273.6 342.277 273.184C343.061 272.768 343.973 272.56 345.013 272.56C346.053 272.56 346.957 272.768 347.725 273.184C348.509 273.6 349.109 274.184 349.525 274.936C349.957 275.688 350.173 276.576 350.173 277.6V279.928H341.965V281.2C341.965 282.24 342.229 283.04 342.757 283.6C343.285 284.144 344.037 284.416 345.013 284.416C345.845 284.416 346.517 284.272 347.029 283.984C347.541 283.68 347.853 283.232 347.965 282.64H350.125C349.981 283.744 349.437 284.624 348.493 285.28C347.565 285.92 346.405 286.24 345.013 286.24ZM348.061 278.488V277.6C348.061 276.56 347.797 275.76 347.269 275.2C346.757 274.64 346.005 274.36 345.013 274.36C344.037 274.36 343.285 274.64 342.757 275.2C342.229 275.76 341.965 276.56 341.965 277.6V278.296H348.229L348.061 278.488ZM358.635 286.24C357.323 286.24 356.259 285.8 355.443 284.92C354.643 284.04 354.243 282.848 354.243 281.344V277.48C354.243 275.96 354.643 274.76 355.443 273.88C356.243 273 357.307 272.56 358.635 272.56C359.723 272.56 360.595 272.856 361.251 273.448C361.907 274.04 362.235 274.832 362.235 275.824L361.803 275.32H362.283L362.235 272.32V268.48H364.395V286H362.235V283.48H361.803L362.235 282.976C362.235 283.984 361.907 284.784 361.251 285.376C360.595 285.952 359.723 286.24 358.635 286.24ZM359.355 284.368C360.251 284.368 360.955 284.088 361.467 283.528C361.979 282.968 362.235 282.192 362.235 281.2V277.6C362.235 276.608 361.979 275.832 361.467 275.272C360.955 274.712 360.251 274.432 359.355 274.432C358.443 274.432 357.723 274.704 357.195 275.248C356.667 275.792 356.403 276.576 356.403 277.6V281.2C356.403 282.224 356.667 283.008 357.195 283.552C357.723 284.096 358.443 284.368 359.355 284.368ZM375.354 275.68L375.066 270.64V268.48H377.394V270.64L377.13 275.68H375.354ZM370.482 275.68L370.194 270.64V268.48H372.522V270.64L372.258 275.68H370.482ZM388.184 276.16C387.592 276.16 387.112 276 386.744 275.68C386.376 275.344 386.192 274.904 386.192 274.36C386.192 273.816 386.376 273.384 386.744 273.064C387.112 272.728 387.592 272.56 388.184 272.56C388.792 272.56 389.272 272.728 389.624 273.064C389.992 273.384 390.176 273.816 390.176 274.36C390.176 274.904 389.992 275.344 389.624 275.68C389.272 276 388.792 276.16 388.184 276.16ZM388.184 286.24C387.592 286.24 387.112 286.08 386.744 285.76C386.376 285.424 386.192 284.984 386.192 284.44C386.192 283.896 386.376 283.464 386.744 283.144C387.112 282.808 387.592 282.64 388.184 282.64C388.792 282.64 389.272 282.808 389.624 283.144C389.992 283.464 390.176 283.896 390.176 284.44C390.176 284.984 389.992 285.424 389.624 285.76C389.272 286.08 388.792 286.24 388.184 286.24ZM416.702 286.24C415.646 286.24 414.718 286.032 413.918 285.616C413.134 285.184 412.526 284.592 412.094 283.84C411.662 283.088 411.446 282.208 411.446 281.2H413.606C413.606 282.176 413.878 282.944 414.422 283.504C414.982 284.048 415.75 284.32 416.726 284.32C417.718 284.32 418.486 284.032 419.03 283.456C419.574 282.88 419.846 282.128 419.846 281.2V279.952C419.846 278.96 419.574 278.192 419.03 277.648C418.486 277.104 417.718 276.832 416.726 276.832H414.926V274.672L419.27 270.448H412.166V268.48H421.454V270.64L416.774 275.176V274.912C418.374 274.912 419.646 275.368 420.59 276.28C421.534 277.192 422.006 278.416 422.006 279.952V281.2C422.006 282.208 421.782 283.088 421.334 283.84C420.902 284.592 420.286 285.184 419.486 285.616C418.686 286.032 417.758 286.24 416.702 286.24ZM52.04 320.64V318.72H53.12C53.872 318.72 54.448 318.544 54.848 318.192C55.248 317.856 55.432 317.344 55.4 316.656L55.16 312.72C55.096 311.68 55.344 310.848 55.904 310.224C56.48 309.6 57.272 309.288 58.28 309.288V309.408C57.256 309.408 56.464 309.104 55.904 308.496C55.344 307.872 55.096 307.04 55.16 306L55.4 302.064C55.432 301.376 55.248 300.864 54.848 300.528C54.448 300.176 53.872 300 53.12 300H52.04V298.08H53.12C54.064 298.08 54.872 298.24 55.544 298.56C56.232 298.864 56.752 299.312 57.104 299.904C57.456 300.496 57.608 301.216 57.56 302.064L57.32 306C57.272 306.848 57.4 307.464 57.704 307.848C58.008 308.216 58.68 308.4 59.72 308.4H62.36V310.32H59.72C58.696 310.32 58.024 310.512 57.704 310.896C57.4 311.264 57.272 311.872 57.32 312.72L57.56 316.656C57.608 317.488 57.456 318.2 57.104 318.792C56.752 319.4 56.232 319.856 55.544 320.16C54.872 320.48 54.064 320.64 53.12 320.64H52.04ZM56.048 414.24C54.656 414.24 53.56 413.888 52.76 413.184C51.96 412.464 51.56 411.496 51.56 410.28C51.56 409.048 51.96 408.08 52.76 407.376C53.56 406.672 54.64 406.32 56 406.32H60.08V405C60.08 404.184 59.832 403.56 59.336 403.128C58.856 402.68 58.168 402.456 57.272 402.456C56.488 402.456 55.832 402.624 55.304 402.96C54.776 403.28 54.472 403.72 54.392 404.28H52.232C52.376 403.144 52.912 402.24 53.84 401.568C54.768 400.896 55.928 400.56 57.32 400.56C58.84 400.56 60.04 400.952 60.92 401.736C61.8 402.52 62.24 403.584 62.24 404.928V414H60.128V411.48H59.768L60.128 411.12C60.128 412.08 59.752 412.84 59 413.4C58.264 413.96 57.28 414.24 56.048 414.24ZM56.576 412.536C57.6 412.536 58.44 412.28 59.096 411.768C59.752 411.256 60.08 410.6 60.08 409.8V407.928H56.048C55.328 407.928 54.76 408.128 54.344 408.528C53.928 408.928 53.72 409.472 53.72 410.16C53.72 410.896 53.968 411.48 54.464 411.912C54.976 412.328 55.68 412.536 56.576 412.536ZM66.5986 414V400.8H68.7586V403.32H69.2146L68.7586 403.824C68.7586 402.784 69.0706 401.984 69.6946 401.424C70.3186 400.848 71.1826 400.56 72.2866 400.56C73.6146 400.56 74.6706 400.968 75.4546 401.784C76.2386 402.6 76.6306 403.712 76.6306 405.12V414H74.4706V405.36C74.4706 404.416 74.2146 403.696 73.7026 403.2C73.2066 402.688 72.5266 402.432 71.6626 402.432C70.7666 402.432 70.0546 402.704 69.5266 403.248C69.0146 403.792 68.7586 404.576 68.7586 405.6V414H66.5986ZM80.9893 414V400.8H83.1493V403.32H83.6053L83.1493 403.824C83.1493 402.784 83.4613 401.984 84.0853 401.424C84.7093 400.848 85.5733 400.56 86.6773 400.56C88.0053 400.56 89.0613 400.968 89.8453 401.784C90.6293 402.6 91.0213 403.712 91.0213 405.12V414H88.8613V405.36C88.8613 404.416 88.6053 403.696 88.0933 403.2C87.5973 402.688 86.9173 402.432 86.0533 402.432C85.1573 402.432 84.4453 402.704 83.9173 403.248C83.4053 403.792 83.1493 404.576 83.1493 405.6V414H80.9893ZM97.4439 418.32L99.3879 413.184L94.4919 400.8H96.8919L99.9639 408.96C100.076 409.232 100.18 409.56 100.276 409.944C100.372 410.312 100.452 410.624 100.516 410.88C100.58 410.624 100.66 410.312 100.756 409.944C100.852 409.56 100.948 409.232 101.044 408.96L103.924 400.8H106.252L99.7479 418.32H97.4439ZM116.203 414C115.067 414 114.179 413.696 113.539 413.088C112.915 412.48 112.603 411.624 112.603 410.52V402.768H108.883V400.8H112.603V397.08H114.763V400.8H120.043V402.768H114.763V410.52C114.763 411.528 115.243 412.032 116.203 412.032H119.803V414H116.203ZM124.161 414V396.48H126.321V400.8V403.32H126.777L126.321 403.824C126.321 402.784 126.633 401.984 127.257 401.424C127.881 400.848 128.745 400.56 129.849 400.56C131.177 400.56 132.233 400.968 133.017 401.784C133.801 402.6 134.193 403.712 134.193 405.12V414H132.033V405.36C132.033 404.416 131.777 403.688 131.265 403.176C130.769 402.648 130.089 402.384 129.225 402.384C128.329 402.384 127.617 402.664 127.089 403.224C126.577 403.784 126.321 404.576 126.321 405.6V414H124.161ZM138.384 414V412.032H143.064V402.768H138.984V400.8H145.224V412.032H149.664V414H138.384ZM143.904 398.424C143.376 398.424 142.96 398.288 142.656 398.016C142.352 397.744 142.2 397.376 142.2 396.912C142.2 396.432 142.352 396.056 142.656 395.784C142.96 395.496 143.376 395.352 143.904 395.352C144.432 395.352 144.848 395.496 145.152 395.784C145.456 396.056 145.608 396.432 145.608 396.912C145.608 397.376 145.456 397.744 145.152 398.016C144.848 398.288 144.432 398.424 143.904 398.424ZM152.942 414V400.8H155.102V403.32H155.558L155.102 403.824C155.102 402.784 155.414 401.984 156.038 401.424C156.662 400.848 157.526 400.56 158.63 400.56C159.958 400.56 161.014 400.968 161.798 401.784C162.582 402.6 162.974 403.712 162.974 405.12V414H160.814V405.36C160.814 404.416 160.558 403.696 160.046 403.2C159.55 402.688 158.87 402.432 158.006 402.432C157.11 402.432 156.398 402.704 155.87 403.248C155.358 403.792 155.102 404.576 155.102 405.6V414H152.942ZM168.989 418.32V416.352H173.189C173.861 416.352 174.349 416.2 174.653 415.896C174.973 415.592 175.133 415.12 175.133 414.48V412.8L175.181 410.4H174.749L175.157 410.04C175.157 411 174.837 411.76 174.197 412.32C173.557 412.88 172.701 413.16 171.629 413.16C170.269 413.16 169.197 412.72 168.413 411.84C167.629 410.944 167.237 409.744 167.237 408.24V405.456C167.237 403.952 167.629 402.76 168.413 401.88C169.197 401 170.269 400.56 171.629 400.56C172.701 400.56 173.557 400.84 174.197 401.4C174.837 401.96 175.157 402.72 175.157 403.68L174.749 403.32H175.157V400.8H177.293V414.48C177.293 415.664 176.925 416.6 176.189 417.288C175.469 417.976 174.461 418.32 173.165 418.32H168.989ZM172.277 411.288C173.173 411.288 173.877 411.008 174.389 410.448C174.901 409.888 175.157 409.112 175.157 408.12V405.6C175.157 404.608 174.901 403.832 174.389 403.272C173.877 402.712 173.173 402.432 172.277 402.432C171.365 402.432 170.653 402.704 170.141 403.248C169.645 403.792 169.397 404.576 169.397 405.6V408.12C169.397 409.144 169.645 409.928 170.141 410.472C170.653 411.016 171.365 411.288 172.277 411.288ZM201.106 414.24C200.066 414.24 199.154 414.032 198.37 413.616C197.602 413.2 197.002 412.616 196.57 411.864C196.154 411.096 195.946 410.208 195.946 409.2V405.6C195.946 404.576 196.154 403.688 196.57 402.936C197.002 402.184 197.602 401.6 198.37 401.184C199.154 400.768 200.066 400.56 201.106 400.56C202.146 400.56 203.05 400.768 203.818 401.184C204.602 401.6 205.202 402.184 205.618 402.936C206.05 403.688 206.266 404.576 206.266 405.6V407.928H198.058V409.2C198.058 410.24 198.322 411.04 198.85 411.6C199.378 412.144 200.13 412.416 201.106 412.416C201.938 412.416 202.61 412.272 203.122 411.984C203.634 411.68 203.946 411.232 204.058 410.64H206.218C206.074 411.744 205.53 412.624 204.586 413.28C203.658 413.92 202.498 414.24 201.106 414.24ZM204.154 406.488V405.6C204.154 404.56 203.89 403.76 203.362 403.2C202.85 402.64 202.098 402.36 201.106 402.36C200.13 402.36 199.378 402.64 198.85 403.2C198.322 403.76 198.058 404.56 198.058 405.6V406.296H204.322L204.154 406.488ZM217.297 414C216.529 414 215.857 413.848 215.281 413.544C214.705 413.24 214.257 412.808 213.937 412.248C213.617 411.688 213.457 411.032 213.457 410.28V398.448H209.017V396.48H215.617V410.28C215.617 410.824 215.769 411.256 216.073 411.576C216.377 411.88 216.785 412.032 217.297 412.032H221.497V414H217.297ZM229.48 414.192C228.584 414.192 227.8 414.056 227.128 413.784C226.472 413.496 225.944 413.096 225.544 412.584C225.16 412.072 224.928 411.464 224.848 410.76H227.008C227.104 411.224 227.36 411.592 227.776 411.864C228.208 412.136 228.776 412.272 229.48 412.272H230.488C231.336 412.272 231.968 412.104 232.384 411.768C232.8 411.416 233.008 410.952 233.008 410.376C233.008 409.816 232.816 409.376 232.432 409.056C232.064 408.72 231.512 408.496 230.776 408.384L229 408.096C227.704 407.872 226.736 407.472 226.096 406.896C225.472 406.304 225.16 405.448 225.16 404.328C225.16 403.144 225.536 402.232 226.288 401.592C227.04 400.936 228.168 400.608 229.672 400.608H230.584C231.848 400.608 232.864 400.904 233.632 401.496C234.4 402.088 234.864 402.888 235.023 403.896H232.864C232.768 403.48 232.528 403.152 232.144 402.912C231.76 402.656 231.24 402.528 230.584 402.528H229.672C228.856 402.528 228.256 402.68 227.872 402.984C227.504 403.288 227.32 403.744 227.32 404.352C227.32 404.896 227.48 405.296 227.8 405.552C228.12 405.808 228.624 405.992 229.312 406.104L231.088 406.392C232.512 406.616 233.544 407.032 234.184 407.64C234.84 408.248 235.168 409.128 235.168 410.28C235.168 411.496 234.776 412.456 233.992 413.16C233.224 413.848 232.056 414.192 230.488 414.192H229.48ZM244.278 414.24C243.238 414.24 242.326 414.032 241.542 413.616C240.774 413.2 240.174 412.616 239.742 411.864C239.326 411.096 239.118 410.208 239.118 409.2V405.6C239.118 404.576 239.326 403.688 239.742 402.936C240.174 402.184 240.774 401.6 241.542 401.184C242.326 400.768 243.238 400.56 244.278 400.56C245.318 400.56 246.222 400.768 246.99 401.184C247.774 401.6 248.374 402.184 248.79 402.936C249.222 403.688 249.438 404.576 249.438 405.6V407.928H241.23V409.2C241.23 410.24 241.494 411.04 242.022 411.6C242.55 412.144 243.302 412.416 244.278 412.416C245.11 412.416 245.782 412.272 246.294 411.984C246.806 411.68 247.118 411.232 247.23 410.64H249.39C249.246 411.744 248.702 412.624 247.758 413.28C246.83 413.92 245.67 414.24 244.278 414.24ZM247.326 406.488V405.6C247.326 404.56 247.062 403.76 246.534 403.2C246.022 402.64 245.27 402.36 244.278 402.36C243.302 402.36 242.55 402.64 242.022 403.2C241.494 403.76 241.23 404.56 241.23 405.6V406.296H247.494L247.326 406.488ZM270.131 418.32L272.075 413.184L267.179 400.8H269.579L272.651 408.96C272.763 409.232 272.867 409.56 272.963 409.944C273.059 410.312 273.139 410.624 273.203 410.88C273.267 410.624 273.347 410.312 273.443 409.944C273.539 409.56 273.635 409.232 273.731 408.96L276.611 400.8H278.939L272.435 418.32H270.131ZM287.45 414.192C286.394 414.192 285.482 413.992 284.714 413.592C283.946 413.192 283.346 412.616 282.914 411.864C282.498 411.096 282.29 410.192 282.29 409.152V405.648C282.29 404.592 282.498 403.688 282.914 402.936C283.346 402.184 283.946 401.608 284.714 401.208C285.482 400.808 286.394 400.608 287.45 400.608C288.506 400.608 289.418 400.808 290.186 401.208C290.954 401.608 291.546 402.184 291.962 402.936C292.394 403.688 292.61 404.584 292.61 405.624V409.152C292.61 410.192 292.394 411.096 291.962 411.864C291.546 412.616 290.954 413.192 290.186 413.592C289.418 413.992 288.506 414.192 287.45 414.192ZM287.45 412.272C288.394 412.272 289.13 412.008 289.658 411.48C290.186 410.952 290.45 410.176 290.45 409.152V405.648C290.45 404.624 290.186 403.848 289.658 403.32C289.13 402.792 288.394 402.528 287.45 402.528C286.522 402.528 285.786 402.792 285.242 403.32C284.714 403.848 284.45 404.624 284.45 405.648V409.152C284.45 410.176 284.714 410.952 285.242 411.48C285.786 412.008 286.522 412.272 287.45 412.272ZM301.817 414.24C300.297 414.24 299.081 413.792 298.169 412.896C297.257 411.984 296.801 410.752 296.801 409.2V400.8H298.961V409.2C298.961 410.192 299.217 410.968 299.729 411.528C300.241 412.072 300.937 412.344 301.817 412.344C302.713 412.344 303.417 412.072 303.929 411.528C304.457 410.968 304.721 410.192 304.721 409.2V400.8H306.881V409.2C306.881 410.752 306.417 411.984 305.489 412.896C304.561 413.792 303.337 414.24 301.817 414.24ZM325.63 414V400.8H327.79V403.32H328.246L327.79 403.824C327.79 402.784 328.102 401.984 328.726 401.424C329.35 400.848 330.214 400.56 331.318 400.56C332.646 400.56 333.702 400.968 334.486 401.784C335.27 402.6 335.662 403.712 335.662 405.12V414H333.502V405.36C333.502 404.416 333.246 403.696 332.734 403.2C332.238 402.688 331.558 402.432 330.694 402.432C329.798 402.432 329.086 402.704 328.558 403.248C328.046 403.792 327.79 404.576 327.79 405.6V414H325.63ZM345.013 414.24C343.973 414.24 343.061 414.032 342.277 413.616C341.509 413.2 340.909 412.616 340.477 411.864C340.061 411.096 339.853 410.208 339.853 409.2V405.6C339.853 404.576 340.061 403.688 340.477 402.936C340.909 402.184 341.509 401.6 342.277 401.184C343.061 400.768 343.973 400.56 345.013 400.56C346.053 400.56 346.957 400.768 347.725 401.184C348.509 401.6 349.109 402.184 349.525 402.936C349.957 403.688 350.173 404.576 350.173 405.6V407.928H341.965V409.2C341.965 410.24 342.229 411.04 342.757 411.6C343.285 412.144 344.037 412.416 345.013 412.416C345.845 412.416 346.517 412.272 347.029 411.984C347.541 411.68 347.853 411.232 347.965 410.64H350.125C349.981 411.744 349.437 412.624 348.493 413.28C347.565 413.92 346.405 414.24 345.013 414.24ZM348.061 406.488V405.6C348.061 404.56 347.797 403.76 347.269 403.2C346.757 402.64 346.005 402.36 345.013 402.36C344.037 402.36 343.285 402.64 342.757 403.2C342.229 403.76 341.965 404.56 341.965 405.6V406.296H348.229L348.061 406.488ZM359.403 414.24C358.363 414.24 357.451 414.032 356.667 413.616C355.899 413.2 355.299 412.616 354.867 411.864C354.451 411.096 354.243 410.208 354.243 409.2V405.6C354.243 404.576 354.451 403.688 354.867 402.936C355.299 402.184 355.899 401.6 356.667 401.184C357.451 400.768 358.363 400.56 359.403 400.56C360.443 400.56 361.347 400.768 362.115 401.184C362.899 401.6 363.499 402.184 363.915 402.936C364.347 403.688 364.563 404.576 364.563 405.6V407.928H356.355V409.2C356.355 410.24 356.619 411.04 357.147 411.6C357.675 412.144 358.427 412.416 359.403 412.416C360.235 412.416 360.907 412.272 361.419 411.984C361.931 411.68 362.243 411.232 362.355 410.64H364.515C364.371 411.744 363.827 412.624 362.883 413.28C361.955 413.92 360.795 414.24 359.403 414.24ZM362.451 406.488V405.6C362.451 404.56 362.187 403.76 361.659 403.2C361.147 402.64 360.395 402.36 359.403 402.36C358.427 402.36 357.675 402.64 357.147 403.2C356.619 403.76 356.355 404.56 356.355 405.6V406.296H362.619L362.451 406.488ZM373.026 414.24C371.714 414.24 370.65 413.8 369.834 412.92C369.034 412.04 368.634 410.848 368.634 409.344V405.48C368.634 403.96 369.034 402.76 369.834 401.88C370.634 401 371.698 400.56 373.026 400.56C374.114 400.56 374.986 400.856 375.642 401.448C376.298 402.04 376.626 402.832 376.626 403.824L376.194 403.32H376.674L376.626 400.32V396.48H378.786V414H376.626V411.48H376.194L376.626 410.976C376.626 411.984 376.298 412.784 375.642 413.376C374.986 413.952 374.114 414.24 373.026 414.24ZM373.746 412.368C374.642 412.368 375.346 412.088 375.858 411.528C376.37 410.968 376.626 410.192 376.626 409.2V405.6C376.626 404.608 376.37 403.832 375.858 403.272C375.346 402.712 374.642 402.432 373.746 402.432C372.834 402.432 372.114 402.704 371.586 403.248C371.058 403.792 370.794 404.576 370.794 405.6V409.2C370.794 410.224 371.058 411.008 371.586 411.552C372.114 412.096 372.834 412.368 373.746 412.368ZM386.048 409.08V404.76H387.248C388.272 404.76 389.08 404.48 389.672 403.92C390.28 403.344 390.584 402.584 390.584 401.64C390.584 400.696 390.28 399.944 389.672 399.384C389.08 398.808 388.264 398.52 387.224 398.52H384.224V396.48H387.224C388.344 396.48 389.312 396.696 390.128 397.128C390.96 397.544 391.6 398.136 392.048 398.904C392.512 399.672 392.744 400.584 392.744 401.64C392.744 402.552 392.552 403.376 392.168 404.112C391.784 404.832 391.248 405.408 390.56 405.84C389.888 406.272 389.104 406.512 388.208 406.56V409.08H386.048ZM386.744 414.12C386.328 414.12 385.984 413.984 385.712 413.712C385.44 413.44 385.304 413.096 385.304 412.68C385.304 412.264 385.44 411.92 385.712 411.648C385.984 411.376 386.328 411.24 386.744 411.24H387.464C387.928 411.24 388.28 411.376 388.52 411.648C388.776 411.904 388.904 412.24 388.904 412.656C388.904 413.072 388.768 413.424 388.496 413.712C388.224 413.984 387.88 414.12 387.464 414.12H386.744Z" fill="#5D5D5D"/>
<path d="M57.128 330.56L54.368 327.2H56.768L59.408 330.56H57.128ZM71.5186 330.56L68.7586 327.2H71.1586L73.7986 330.56H71.5186ZM85.9093 330.56L83.1493 327.2H85.5493L88.1893 330.56H85.9093Z" fill="#CD7036"/>
</svg>
